<svg width="98" height="156" viewBox="0 0 98 156" fill="none" xmlns="http://www.w3.org/2000/svg">
<path d="M95.0474 166.4L97.5279 164.8V101.241L95.0474 100.121V166.4Z" fill="#505B75"/>
<path d="M29.3132 100.322V166.401H95.0474V100.122L29.3132 100.322Z" fill="#F2F2F2"/>
<path d="M83.4449 119.121L77.4836 113.721L62.8805 129.921L46.637 110.801L40.2756 115.681L58.9997 134.201L40.5557 154.64L41.956 155.72L62.4804 137.601L80.1642 155.12L82.4447 152.96L66.4413 134.121L83.4449 119.121Z" fill="#FF1B28"/>
<path d="M94.3671 102.161C94.3671 102.641 94.007 103.001 93.5269 103.001C93.0468 103.001 92.6868 102.601 92.6868 102.161C92.6868 101.681 93.0468 101.321 93.5269 101.321C94.007 101.321 94.3671 101.721 94.3671 102.161Z" fill="#C6C6C6"/>
<path d="M32.394 102.161C32.394 102.641 32.0339 103.001 31.5538 103.001C31.0737 103.001 30.7136 102.601 30.7136 102.161C30.7136 101.681 31.1137 101.321 31.5538 101.321C31.9939 101.321 32.394 101.721 32.394 102.161Z" fill="#C6C6C6"/>
<path d="M52.1981 86.8409C52.158 86.8009 47.6371 83.8809 40.3955 91.4409L44.9965 94.8408C45.0365 94.8008 47.157 89.5209 52.1981 86.8409Z" fill="#11B1C8"/>
<path d="M43.2761 93.5609L44.9965 94.8409C44.9965 94.8409 47.0769 89.6809 51.998 86.9609C48.5973 88.3209 45.7567 90.7209 43.2761 93.5609Z" fill="#149DB1"/>
<path d="M73.8828 89.8808C66.5212 88.2408 52.1982 86.8008 52.1982 86.8008C47.1571 89.4808 45.0366 94.8007 45.0366 94.8007V100.281H76.0433V96.6807L76.2833 97.0807C75.1231 95.2407 73.8828 89.8808 73.8828 89.8808Z" fill="#F9CA29"/>
<path d="M45.0366 99.5209V100.281H76.0433V99.4409C65.6811 99.4409 55.3588 99.4809 45.0366 99.5209Z" fill="#F6B92B"/>
<path d="M83.885 96.2009C83.885 96.2009 82.2046 92.5609 76.6034 90.6409C75.8832 90.4009 74.963 90.1609 73.8828 89.9209C73.8828 89.9209 75.1231 95.2809 76.2833 97.1208L77.8036 99.5608C77.8036 99.5208 81.8445 98.5208 83.885 96.2009Z" fill="#11B1C8"/>
<path d="M74.2029 91.1208C74.643 92.8008 75.4832 95.8008 76.2833 97.0808L77.8037 99.5208C77.8037 99.5208 78.4838 99.3608 79.404 99.0008C77.8437 96.2408 76.4434 93.3208 74.2029 91.1208Z" fill="#149DB1"/>
<g style="mix-blend-mode:multiply">
<path d="M75.443 95.281C77.2434 94.601 78.9237 93.681 80.4441 92.601C79.4438 91.881 78.1636 91.201 76.6032 90.641C75.8831 90.401 74.9629 90.1611 73.8826 89.9211C66.5211 88.2811 52.198 86.8411 52.198 86.8411C52.158 86.8011 49.6775 85.2411 45.4766 87.4411C46.1967 88.4811 46.9969 89.4411 47.8771 90.361C54.7586 97.161 66.321 98.841 75.443 95.281Z" fill="#D4D4D4"/>
</g>
<g style="mix-blend-mode:multiply">
<path d="M61.9198 106.321C60.6395 106.121 58.239 105.881 58.239 105.881C58.239 105.881 61.8398 104.721 62.1599 104.081C62.4799 103.401 61.7198 103.481 60.5995 103.841C59.5193 104.201 57.5589 104.761 57.5589 104.761C57.5589 104.761 58.6391 103.561 58.5191 102.721C58.3991 101.881 55.8385 104.521 55.6785 104.641C55.4784 104.761 54.4782 104.281 53.7581 104.401C53.7581 104.401 45.9164 101.961 42.7157 100.281C40.6753 100.281 38.1947 100.321 36.1543 100.361C38.1147 102.881 53.438 106.881 53.438 106.881C53.438 106.881 53.7981 108.321 55.5585 108.801C55.5585 108.801 56.9588 110.081 57.3588 111.001C57.7989 111.921 59.0392 111.841 58.7991 111.001C58.5591 110.161 57.4789 108.881 57.4789 108.881C57.4789 108.881 59.3593 109.561 60.4395 110.321C61.5197 111.121 62.3599 110.761 61.8398 109.521C61.2797 108.321 58.159 107.521 58.159 107.521C58.159 107.521 61.1997 107.601 62.0798 107.641C63.0801 107.721 63.2001 106.521 61.9198 106.321Z" fill="#C6C6C6"/>
</g>
<g style="mix-blend-mode:multiply">
<path d="M80.2841 100.161L80.8842 101.561L70.602 104.601L69.0817 103.881C69.0817 103.881 68.4815 102.321 67.6414 102.321C66.8012 102.321 67.5613 103.281 67.9614 104.121C68.3215 104.961 68.5616 105.761 68.5616 105.761C68.5616 105.761 65.4809 103.721 64.5207 103.441C63.5605 103.201 63.8405 104.121 64.5207 104.481C65.2008 104.841 67.3213 106.241 67.3213 106.241C67.3213 106.241 63.9206 105.761 63.5605 106.241C63.2004 106.721 66.3611 106.921 66.8812 106.961C67.4413 107.041 63.0804 108.601 63.8005 109.081C64.5207 109.561 68.3615 107.521 67.9214 108.361C67.4813 109.201 65.4809 111.641 66.6011 111.401C67.6814 111.161 69.1617 108.721 69.1617 108.721C69.1617 108.721 70.802 108.481 71.1621 107.441C71.1621 107.441 83.8848 104.961 84.2849 102.481C84.405 101.681 84.2849 100.921 84.0849 100.201C82.7646 100.161 81.5243 100.121 80.2841 100.161Z" fill="#C6C6C6"/>
</g>
<path d="M58.1992 91.4409C58.1992 91.4409 56.6789 96.7609 61.1998 96.6809C65.7208 96.6009 65.8409 92.1609 65.8409 92.1609L58.1992 91.4409Z" fill="#EFCAA6"/>
<path d="M97.5278 53.3613C99.4482 52.2813 92.5667 51.8013 92.5667 51.8013C92.5667 51.8013 93.1668 50.0013 92.5667 47.9214C91.9666 45.8814 90.5263 50.6013 90.5263 50.6013C85.4452 36.0814 60.3598 34.2415 50.5577 45.2814C40.7556 56.3213 45.4766 70.7212 45.4766 70.7212C45.4766 70.7212 49.1174 61.3612 57.1191 54.8813C57.1191 54.8813 53.8784 59.2813 55.1187 59.5213C56.3189 59.7213 59.4796 58.0413 73.1225 55.7613C73.1225 55.7613 70.3619 59.1213 72.1623 59.5213C73.9227 59.8813 80.7242 57.8013 80.7242 57.8013C80.7242 57.8013 79.0438 66.4412 81.8444 65.0812C84.685 63.7212 85.5652 61.5612 85.5652 61.5612C85.5652 61.5612 89.486 70.1612 87.1656 81.0011C106.29 63.5612 93.5669 54.4413 93.5669 54.4413C93.5669 54.4413 95.5673 54.4413 97.5278 53.3613Z" fill="#EC7B23"/>
<path d="M85.4851 61.521C85.4851 61.521 84.5649 63.641 81.7643 65.041C78.9237 66.401 80.6441 57.761 80.6441 57.761C80.6441 57.761 73.8426 59.841 72.0822 59.481C70.3218 59.121 73.0424 55.7211 73.0424 55.7211C59.3995 58.001 56.2388 59.681 55.0385 59.481C53.8383 59.281 57.039 54.8411 57.039 54.8411C49.0373 61.281 45.3965 70.6809 45.3965 70.6809C45.3965 70.6809 41.7557 76.6409 45.2764 83.4808C49.7574 92.1208 59.3195 94.3208 68.4014 94.3208C80.1639 94.3208 87.0454 80.9609 87.0454 80.9609C89.446 70.1209 85.4851 61.521 85.4851 61.521Z" fill="#F4D9BF"/>
<path d="M47.5167 66.4412C47.5167 66.4412 47.9968 63.0412 44.9162 63.4012C41.8355 63.7612 41.5554 70.4012 45.1962 71.1211C45.1962 71.1211 46.4365 68.2412 47.5167 66.4412Z" fill="#EFCAA6"/>
<path d="M87.1654 80.681C87.1654 80.681 88.6057 77.241 91.6464 78.521C94.687 79.801 91.9664 84.641 88.4457 85.481C84.9249 86.321 85.0449 84.241 85.0449 84.241L87.1654 80.681Z" fill="#EFCAA6"/>
<path d="M62.2001 87.1609C62.2001 87.1609 62.0801 86.001 61.0799 86.5609C60.0396 87.1209 59.1594 90.2809 60.2397 90.5609C61.2799 90.8009 62.1601 88.1209 62.2001 87.1609Z" fill="white"/>
<path d="M57.439 63.5213C57.439 63.5213 57.599 63.2813 57.8791 63.0413C58.1991 62.8013 58.6792 62.6013 59.1993 62.5613C59.4394 62.5613 59.7195 62.5613 59.9595 62.6413C60.1996 62.7213 60.3996 62.8413 60.5596 62.9613C60.6396 63.0413 60.7197 63.0813 60.7597 63.1613C60.7997 63.2013 60.8397 63.2813 60.8797 63.3613C60.9197 63.4813 60.9597 63.5213 60.9597 63.5213C60.9597 63.5213 60.8797 63.5213 60.7597 63.5213C60.6396 63.5213 60.5196 63.5213 60.3596 63.4813C60.1996 63.4813 59.9995 63.4813 59.8395 63.4813C59.6394 63.4813 59.4394 63.5213 59.2393 63.5213C58.8393 63.5613 58.3992 63.5613 58.0391 63.5613C57.719 63.5613 57.439 63.5213 57.439 63.5213Z" fill="#A95A16"/>
<path d="M74.2827 66.6812C74.2827 66.6812 74.6028 66.4412 75.1229 66.2812C75.643 66.0812 76.3632 66.0012 77.1233 66.0812C77.3234 66.1212 77.4834 66.1612 77.6834 66.2012C77.8835 66.2412 78.0435 66.3212 78.2035 66.4012C78.3636 66.4812 78.5236 66.6012 78.6436 66.6812C78.7637 66.8012 78.8837 66.9212 78.9637 67.0412C79.0437 67.1612 79.1238 67.2812 79.1638 67.4012C79.2438 67.4812 79.2438 67.6012 79.2438 67.6812C79.2838 67.8412 79.2838 67.9212 79.2838 67.9212C79.2838 67.9212 79.2038 67.8812 79.0837 67.7612C79.0037 67.7212 78.9637 67.6412 78.8837 67.6012C78.8037 67.5612 78.6837 67.4812 78.6036 67.4412C78.4836 67.4012 78.3636 67.3612 78.2436 67.3212C78.1235 67.2812 78.0035 67.2412 77.8435 67.2012C77.6834 67.1612 77.5634 67.1212 77.4034 67.1212C77.2433 67.0812 77.0833 67.0412 76.9233 67.0412C76.6032 67.0012 76.2831 66.9612 75.9631 66.9212C75.643 66.8812 75.3629 66.8412 75.0829 66.8012C74.6828 66.7612 74.2827 66.6812 74.2827 66.6812Z" fill="#A95A16"/>
<path d="M62.2001 78.2007C62.2001 78.2007 60.2797 80.4007 61.56 80.9607C62.8402 81.5207 64.4006 80.9607 64.4006 80.9607C64.4006 80.9607 62.0801 81.3607 61.88 80.1207C61.68 78.8807 62.2001 78.2007 62.2001 78.2007Z" fill="#C39368"/>
<path d="M43.5962 67.2409C43.5962 67.2409 43.7562 67.1209 44.0763 67.0409C44.2363 67.0009 44.4364 66.9609 44.6364 67.0009C44.8365 67.0009 45.0765 67.0809 45.2765 67.1609C45.3966 67.2009 45.4766 67.2809 45.5566 67.3609C45.6366 67.4409 45.7166 67.5209 45.7967 67.6009C45.8767 67.6809 45.9167 67.8009 45.9567 67.8809C45.9967 67.9609 45.9967 68.0409 46.0367 68.1209C46.0767 68.2809 46.0767 68.4009 46.0767 68.5209C46.0767 68.6009 46.0767 68.6809 46.0767 68.6809C46.0767 68.6809 46.0367 68.6409 45.9967 68.5609C45.9567 68.5209 45.9567 68.4809 45.9167 68.4409C45.8767 68.4009 45.8367 68.3209 45.7967 68.2809C45.7566 68.2409 45.7166 68.1609 45.6766 68.0809C45.6366 68.0409 45.5966 67.9609 45.5166 67.9209C45.3966 67.8009 45.2765 67.7209 45.1165 67.6409C45.0365 67.6009 44.9565 67.5609 44.8765 67.5209C44.7964 67.5209 44.7164 67.4409 44.6364 67.4409C44.4764 67.4009 44.3164 67.3609 44.1563 67.3209C43.7962 67.2809 43.5962 67.2409 43.5962 67.2409Z" fill="#C39368"/>
<path d="M90.1661 82.2409C90.1661 82.2409 90.126 82.2009 90.006 82.1609C89.926 82.1209 89.766 82.0809 89.6459 82.0009C89.5659 82.0009 89.4859 81.9609 89.4059 81.9609C89.3259 81.9209 89.2058 81.9209 89.1258 81.9209C89.0458 81.9209 88.9258 81.8809 88.8058 81.8809C88.6857 81.8809 88.6057 81.8809 88.4857 81.9209C88.3657 81.9209 88.2857 81.9209 88.1656 81.9609C88.0456 82.0009 87.9656 82.0009 87.8456 82.0009C87.7655 82.0409 87.6455 82.0009 87.5655 82.0409C87.4855 82.0809 87.4055 82.0809 87.2854 82.1209C86.9654 82.2009 86.6853 82.2409 86.6853 82.2409C86.6853 82.2409 86.8453 82.0809 87.1654 81.8809C87.2454 81.8409 87.3254 81.7609 87.4055 81.7209C87.4855 81.6809 87.6055 81.6409 87.7255 81.6009C87.8455 81.5609 87.9656 81.5209 88.0456 81.4809C88.1656 81.4409 88.2856 81.4409 88.4057 81.4409C88.5257 81.4409 88.6457 81.4409 88.7658 81.4409C88.8858 81.4409 89.0058 81.4809 89.1258 81.5209C89.2458 81.5609 89.3659 81.5609 89.4459 81.6409C89.5259 81.6809 89.6459 81.7609 89.7259 81.8009C89.886 81.9209 89.966 82.0409 90.046 82.1209C90.1661 82.1609 90.1661 82.2409 90.1661 82.2409Z" fill="#C39368"/>
<path d="M74.8027 74.4409C74.3226 75.6809 73.5224 76.5209 73.0023 76.3209C72.4822 76.1209 72.4022 74.961 72.8823 73.721C73.3624 72.481 74.1625 71.641 74.6827 71.841C75.2028 72.041 75.2428 73.201 74.8027 74.4409Z" fill="#3D1A0B"/>
<path d="M74.0024 73.081C73.8424 73.441 73.5623 73.681 73.4023 73.601C73.2423 73.521 73.2423 73.161 73.4423 72.801C73.6024 72.441 73.8824 72.201 74.0424 72.281C74.2025 72.361 74.2025 72.721 74.0024 73.081Z" fill="white"/>
<path d="M59.2397 70.1209C58.7596 71.3609 57.9594 72.2009 57.4393 72.0009C56.9192 71.8009 56.8392 70.6409 57.3193 69.4009C57.7994 68.1609 58.5996 67.3209 59.1197 67.5209C59.6398 67.7209 59.7198 68.8809 59.2397 70.1209Z" fill="#3D1A0B"/>
<path d="M58.4797 68.7612C58.3197 69.1212 58.0396 69.3612 57.8796 69.2812C57.7196 69.2012 57.7196 68.8412 57.9196 68.4812C58.0796 68.1212 58.3597 67.8812 58.5197 67.9612C58.6798 68.0412 58.6798 68.4012 58.4797 68.7612Z" fill="white"/>
<path d="M79.2839 81.6807C79.1238 82.5207 77.3634 82.8807 75.363 82.4807C73.3626 82.0807 71.8423 81.0807 72.0023 80.2407C72.1623 79.4008 73.9227 79.0408 75.9231 79.4408C77.9636 79.8407 79.4439 80.8407 79.2839 81.6807Z" fill="#F9CBC0"/>
<path d="M56.4389 74.7611C56.2789 75.601 54.5185 75.961 52.518 75.561C50.5176 75.161 48.9973 74.1611 49.1573 73.3211C49.3174 72.4811 51.0777 72.1211 53.0782 72.5211C55.1186 72.9611 56.6389 73.9611 56.4389 74.7611Z" fill="#F9CBC0"/>
<path d="M40.6755 91.6409C40.6755 91.6409 34.5142 97.8008 35.9945 100.321C37.5148 102.841 53.1182 107.081 53.1182 107.081C53.1182 107.081 53.4783 108.521 55.2387 109.001C55.2387 109.001 56.639 110.281 57.0391 111.201C57.4792 112.121 58.7194 112.041 58.4794 111.201C58.2393 110.361 57.1591 109.081 57.1591 109.081C57.1591 109.081 59.0395 109.761 60.1197 110.521C61.2 111.321 62.0401 110.961 61.52 109.721C60.9599 108.521 57.8392 107.721 57.8392 107.721C57.8392 107.721 60.8799 107.801 61.7601 107.841C62.6403 107.921 62.7603 106.681 61.48 106.521C60.1997 106.321 57.7992 106.081 57.7992 106.081C57.7992 106.081 61.4 104.921 61.7201 104.281C62.0401 103.601 61.28 103.681 60.1597 104.041C59.0795 104.401 57.1191 104.961 57.1191 104.961C57.1191 104.961 58.1993 103.761 58.0793 102.921C57.9593 102.081 55.3987 104.721 55.2387 104.841C55.0386 104.961 54.0384 104.481 53.3183 104.601C53.3183 104.601 41.5557 100.921 40.9156 99.5208C40.2354 98.1208 43.7562 94.0009 43.7562 94.0009L40.6755 91.6409Z" fill="#F4D9BF"/>
<path d="M79.3639 99.0007L80.5241 101.721L70.2419 104.761L68.7216 104.041C68.7216 104.041 68.1214 102.481 67.2813 102.481C66.4411 102.481 67.2012 103.441 67.6013 104.281C67.9614 105.121 68.2015 105.921 68.2015 105.921C68.2015 105.921 65.1208 103.881 64.1606 103.601C63.2004 103.361 63.4804 104.281 64.1606 104.641C64.8407 105.001 66.9612 106.401 66.9612 106.401C66.9612 106.401 63.5605 105.921 63.2004 106.401C62.8403 106.881 66.001 107.081 66.5211 107.121C67.0812 107.201 62.7203 108.761 63.4404 109.241C64.1606 109.721 68.0014 107.681 67.5613 108.521C67.1212 109.361 65.1208 111.801 66.241 111.561C67.3213 111.321 68.8016 108.881 68.8016 108.881C68.8016 108.881 70.4419 108.641 70.802 107.601C70.802 107.601 83.5248 105.121 83.9248 102.641C84.3249 100.161 82.4045 97.4807 82.4045 97.4807C82.4045 97.4807 80.5641 98.6007 79.3639 99.0007Z" fill="#F4D9BF"/>
<g opacity="0.4">
<path opacity="0.4" d="M47.5168 66.4409C49.3572 63.161 52.5179 58.521 57.0789 54.841L59.6795 52.561C50.3575 56.721 47.5168 66.4409 47.5168 66.4409Z" fill="#D7711F"/>
<path opacity="0.4" d="M55.0386 59.481C56.2388 59.681 59.3995 58.0011 73.0424 55.7211C73.0424 55.7211 73.0024 55.7611 72.9624 55.8411C74.7628 54.2811 76.8433 53.1211 76.8433 53.1211C67.3612 53.9611 55.0386 59.481 55.0386 59.481Z" fill="#D7711F"/>
<path opacity="0.4" d="M71.6021 59.2012C71.6821 59.3612 71.8421 59.4412 72.0822 59.4812C73.8425 59.8412 80.644 57.7612 80.644 57.7612C80.644 57.7612 80.644 57.8412 80.604 57.9612C81.5642 56.3212 82.7244 54.5212 82.7244 54.5212C76.7232 58.7612 71.6821 59.1612 71.6021 59.2012Z" fill="#D7711F"/>
<path opacity="0.4" d="M84.6848 57.6812C85.2449 62.7611 81.164 65.1611 81.124 65.1611C81.3241 65.2011 81.5241 65.1611 81.7642 65.0411C84.6048 63.6811 85.485 61.5211 85.485 61.5211C85.485 61.5211 89.3658 69.9611 87.1253 80.681C92.6465 69.9211 84.6848 57.6812 84.6848 57.6812Z" fill="#D7711F"/>
</g>
<path d="M1.14317 7.44121C1.59495 5.88854 3.17619 5.06987 4.50331 4.36411C11.873 0.553031 20.6264 0.49657 28.702 1.00471C37.4271 1.56932 46.0957 3.15021 54.1713 6.50961C56.515 7.49767 58.8586 8.54219 60.9763 9.89724C62.8399 11.1111 63.4612 13.0026 63.2353 15.1481C62.9811 17.4629 56.9103 31.4087 52.9007 32.3967C50.6135 32.9613 48.2417 33.1025 46.0957 32.5661C41.719 31.4934 37.6812 29.6866 33.6434 27.7952C33.5587 28.1057 33.5022 28.4163 33.5304 28.755C33.5587 30.0254 34.1234 31.2957 34.7164 32.3967C35.8176 34.4575 37.7377 36.0384 39.6295 37.337C40.8437 38.1557 42.1143 38.8615 43.4132 39.4825C44.3168 40.0471 45.3333 40.527 46.2651 40.9505C46.4345 41.0352 46.6322 41.1199 46.8016 41.2328C46.6604 41.2046 46.5475 41.1763 46.4063 41.1481C44.6839 40.894 43.0462 40.5553 41.3802 40.0189C38.8107 39.172 36.2976 38.1275 33.7846 37.1112C33.3046 36.8853 32.8245 36.6595 32.3728 36.4054C29.7185 35.0504 27.3466 33.3566 25.3136 31.2111C24.2124 30.0536 23.3935 28.9809 22.857 27.7387C18.5651 28.0493 14.3014 28.4727 10.0094 28.388C8.68231 28.3598 7.32695 28.388 6.14102 27.7105C4.8139 26.9765 3.99505 25.198 3.28914 23.9277C1.36905 20.5683 0.578434 16.6725 0.60667 12.8332C0.663143 11.0547 0.634911 9.16325 1.14317 7.44121ZM50.3594 30.59C52.4772 30.4206 53.776 29.6302 54.9055 27.7952C56.2891 25.5368 57.588 23.2501 58.7457 20.8506C59.7057 18.8462 61.1458 16.4749 61.2869 14.2447C61.3999 12.4944 60.7787 11.3652 59.508 10.2078C59.4233 10.1231 59.3386 10.236 59.3951 10.3207C61.3152 12.6356 60.4681 14.894 59.3386 17.35C58.6045 18.9027 57.8986 20.4836 57.0797 22.008C56.1479 23.7583 55.1596 25.4803 54.1431 27.2024C53.7478 27.8517 53.0984 28.9244 52.4772 29.3196C51.7712 29.7995 51.0088 29.9407 50.19 30.1665C49.9641 30.2512 50.1618 30.6182 50.3594 30.59ZM45.0792 29.9407C45.9263 30.0819 46.7734 30.1383 47.6487 30.1948C43.1309 29.0373 38.9236 27.2024 34.547 25.6497C37.8789 27.5976 41.3802 29.0656 45.0792 29.9407ZM40.8437 39.0591C40.9566 39.0873 40.9849 38.9461 40.9002 38.8897C38.3589 37.704 35.6199 36.2078 34.2364 33.6106C33.0222 31.2958 32.0057 28.4727 32.8528 25.8755C32.881 25.8191 32.7681 25.7344 32.7398 25.7909C29.8032 31.5781 35.8741 37.3935 40.8437 39.0591Z" fill="#E66D74"/>
<path d="M18.3391 20.3142V10.603H20.9086L22.9134 14.16C23.4782 15.1763 24.0711 16.3902 24.4947 17.4912H24.5511C24.41 16.2208 24.3535 14.894 24.3535 13.4543V10.6313H26.3583V20.3425H24.0429L21.9816 16.5878C21.4169 15.5433 20.7675 14.3012 20.2874 13.172L20.231 13.2002C20.2874 14.4706 20.3157 15.8539 20.3157 17.4347V20.3707H18.3391V20.3142Z" fill="white"/>
<path d="M37.1446 15.374C37.1446 18.564 35.2245 20.4836 32.3727 20.4836C29.4925 20.4836 27.7983 18.3099 27.7983 15.5434C27.7983 12.6356 29.662 10.4619 32.5138 10.4619C35.5351 10.4619 37.1446 12.6921 37.1446 15.374ZM30.142 15.4869C30.142 17.3783 31.0455 18.7334 32.5138 18.7334C34.0104 18.7334 34.8575 17.3219 34.8575 15.4304C34.8575 13.6802 34.0104 12.184 32.5138 12.184C31.0173 12.184 30.142 13.5955 30.142 15.4869Z" fill="white"/>
<path d="M38.2742 19.1568C38.2742 18.3946 38.8107 17.8582 39.5731 17.8582C40.3354 17.8582 40.8437 18.3946 40.8437 19.1568C40.8437 19.919 40.3354 20.4554 39.5731 20.4554C38.7824 20.4836 38.2742 19.919 38.2742 19.1568ZM38.7542 17.1242L38.4154 10.603H40.7025L40.3919 17.1242H38.7542Z" fill="white"/>
</svg>
