<svg width="221" height="146" viewBox="0 0 221 146" fill="none" xmlns="http://www.w3.org/2000/svg">
<g clip-path="url(#clip0)">
<path d="M0 46.5263C0 30.2406 0 22.0977 3.16942 15.8774C5.95731 10.4058 10.4058 5.95731 15.8774 3.16942C22.0977 0 30.2406 0 46.5263 0H174.474C190.759 0 198.902 0 205.123 3.16942C210.594 5.95731 215.043 10.4058 217.831 15.8774C221 22.0977 221 30.2406 221 46.5263V98.8684C221 115.154 221 123.297 217.831 129.517C215.043 134.989 210.594 139.437 205.123 142.225C198.902 145.395 190.759 145.395 174.474 145.395H46.5263C30.2406 145.395 22.0977 145.395 15.8774 142.225C10.4058 139.437 5.95731 134.989 3.16942 129.517C0 123.297 0 115.154 0 98.8684V46.5263Z" fill="url(#paint0_linear)"/>
<g opacity="0.11" filter="url(#filter0_f)">
<path d="M115.615 123.185C120.267 123.185 124.038 122.421 124.038 121.478C124.038 120.535 120.267 119.771 115.615 119.771C110.963 119.771 107.192 120.535 107.192 121.478C107.192 122.421 110.963 123.185 115.615 123.185Z" fill="black"/>
</g>
<path d="M113.575 118.092V119.993L114.685 120.007V117.884L113.575 118.092Z" fill="#EDD3B8"/>
<path d="M118.626 117.815L118.834 119.869L120.042 119.744L119.792 117.468L118.626 117.815Z" fill="#EDD3B8"/>
<path d="M120.028 119.674L118.945 119.91L118.598 120.215L118.571 121.02L121.374 121.534C121.651 121.201 121.54 120.715 121.152 120.535L121.027 120.479L120.028 119.674Z" fill="#3B455A"/>
<path d="M113.603 119.869H114.713L115.101 120.382L115.06 121.284L112.215 121.464L112.104 121.187C111.938 120.826 112.173 120.41 112.576 120.354L112.645 120.34L113.603 119.869Z" fill="#3B455A"/>
<path d="M110.3 100.649L111.355 110.058L111.771 119.258L115.338 119.272L116.767 94.0992L111.022 94.1824L110.3 100.649Z" fill="#3B455A"/>
<path d="M120.944 99.4001L121.721 108.573L120.736 119.244L117.28 119.147L116.781 108.809L116.184 100.441L115.587 94.2102L119.737 94.0992L120.944 99.4001Z" fill="#3B455A"/>
<path d="M117.946 79.8754L113.936 80.0142L111.799 81.9292L110.481 88.9648L109.745 94.9873L119.154 95.029L121.499 94.4323L120.763 88.1183L120.403 81.1521L117.946 79.8754Z" fill="#F7F7F7"/>
<path d="M117.391 73.6167C116.947 73.1449 116.295 72.8673 115.643 72.8535C113.381 72.8257 113.159 75.0183 113.547 76.739C113.714 77.4883 114.075 78.2377 114.699 78.7095C114.866 78.8344 115.06 78.9315 115.254 79.0009C115.213 79.1119 115.199 80.5274 115.088 80.5135C115.615 80.5967 116.156 80.5412 116.656 80.347C116.656 79.9307 116.711 79.4033 116.684 78.9454C116.753 78.9177 116.809 78.876 116.864 78.8344C117.475 78.4042 117.697 77.6132 117.822 76.8778C117.988 75.948 118.113 74.3799 117.391 73.6167Z" fill="#EAC5B0"/>
<path d="M117.031 74.6437C117.461 75.1571 117.489 75.8787 117.475 76.5448C117.447 77.4329 117.35 78.3349 116.947 79.112C117.502 78.6957 118.044 78.2794 118.599 77.8631C118.807 77.7105 119.015 77.5439 119.14 77.3219C119.265 77.086 119.293 76.8223 119.306 76.5587C119.404 75.171 119.334 73.6584 118.46 72.5621C117.905 71.8683 117.058 71.4242 116.184 71.3687C115.463 71.3132 112.465 72.2291 113.645 73.3531C113.992 73.6723 114.824 73.7278 115.268 73.8388C115.893 73.9915 116.587 74.1163 117.031 74.6437Z" fill="#1A3151"/>
<path d="M114.408 74.3255C114.325 74.3255 114.227 74.3394 114.158 74.381C114.061 74.4365 114.005 74.5198 113.964 74.6169C113.242 75.9213 113.201 77.5866 113.881 78.9187C112.729 78.5579 111.882 77.4756 111.646 76.296C111.424 75.1165 111.771 73.8676 112.493 72.8962C113.159 71.9942 114.241 71.2865 115.351 71.4114C116.018 71.4946 116.642 71.8693 117.017 72.4244C118.404 74.5475 115.754 74.2561 114.408 74.3255Z" fill="#1A3151"/>
<path d="M109.717 70.6195C109.731 70.5779 109.745 70.5501 109.773 70.5224C109.995 70.2448 110.397 70.0228 110.703 69.8285C110.938 69.6897 111.202 69.9118 111.383 70.0367C111.438 70.0783 111.494 70.1199 111.494 70.1754C111.494 70.2171 111.494 70.2448 111.48 70.2865C111.396 70.4807 111.174 70.5362 111.049 70.675C110.994 70.7444 110.925 70.8276 110.938 70.9248C110.98 71.1468 111.174 70.9525 111.285 70.897C111.507 71.1052 111.285 71.244 111.105 71.3827C110.883 71.5492 110.661 71.688 110.425 71.8268C110.245 71.9239 110.161 71.9933 109.981 71.8684C109.939 71.8407 109.509 71.577 109.523 71.5492C109.579 71.3411 109.62 71.1329 109.676 70.9109C109.676 70.8138 109.676 70.7028 109.717 70.6195Z" fill="#EAC5B0"/>
<path d="M116.031 82.3455C116.045 82.29 116.045 82.2206 116.045 82.1512C116.017 80.3195 113.353 79.9587 112.062 79.6534C111.036 79.4036 110.161 79.0289 109.384 78.3351C109.565 76.1148 109.939 73.8945 110.536 71.7574C110.134 71.4938 109.717 71.2301 109.315 70.9803C109.301 70.9664 107.83 74.5328 107.719 74.8659C107.233 76.198 106.651 77.5302 106.22 78.8901C106.04 79.4868 106.692 79.9725 107.081 80.4166C107.539 80.9578 108.01 81.499 108.496 82.0263C109.454 83.081 110.453 84.1078 111.494 85.107C111.507 85.1209 111.535 85.1486 111.549 85.1625C111.702 85.3151 111.868 85.4539 112.062 85.5233C112.437 85.6482 112.84 85.44 113.173 85.2319C113.783 84.8572 114.366 84.427 114.921 83.9691C115.435 83.5389 115.948 82.9977 116.031 82.3455Z" fill="#F7F7F7"/>
<path d="M120.874 71.6188C120.833 71.5772 120.763 71.5217 120.708 71.48C120.583 71.3968 120.416 71.369 120.277 71.2858C120.139 71.2025 119.986 71.1054 120.014 70.925C120.042 70.7446 120.305 70.8417 120.43 70.8695C120.569 70.8972 120.694 70.8972 120.805 70.7862C120.916 70.6752 120.902 70.467 120.805 70.3283C120.708 70.2034 120.569 70.1201 120.458 70.0091C120.805 70.0091 121.124 70.023 121.401 70.245C121.54 70.356 121.61 70.5087 121.693 70.6613C121.957 71.1609 122.248 71.6466 122.539 72.1184C122.303 72.16 122.081 72.2155 121.859 72.2988C121.651 72.382 121.582 72.3959 121.415 72.2294C121.235 72.0629 121.096 71.8547 120.916 71.6743C120.916 71.6604 120.902 71.6466 120.874 71.6188Z" fill="#EAC5B0"/>
<path d="M119.903 85.2736C119.306 83.761 118.779 82.179 118.196 80.7081C119.348 79.7644 121.166 80.1807 121.665 78.349C122.179 76.5172 121.915 74.1304 121.082 72.2154C121.596 71.9934 122.109 71.8407 122.664 71.6603C123.997 74.0194 124.899 76.4062 124.593 79.1955C124.288 81.9709 121.54 83.2753 119.903 85.2736Z" fill="#F7F7F7"/>
<path d="M112.396 77.1555V78.7236C112.396 79.2371 112.798 79.6395 113.298 79.6395H117.322C117.821 79.6395 118.224 79.2232 118.224 78.7236V77.1555H112.396Z" fill="#3B455A"/>
<path d="M125.079 56.1043C125.079 50.5951 120.708 46.1129 115.31 46.1129C109.911 46.1129 105.54 50.5813 105.54 56.1043C105.54 58.0609 106.095 59.8926 107.053 61.433C109.773 66.0956 110.397 69.995 110.397 69.995H115.31H120.222C120.222 69.995 120.846 66.0956 123.566 61.433C124.524 59.8926 125.079 58.0748 125.079 56.1043Z" fill="#8CABEF"/>
<path d="M110.286 69.9951V76.656C110.286 76.9335 110.508 77.1556 110.772 77.1556H119.875C120.139 77.1556 120.361 76.9335 120.361 76.656V69.9951H110.286Z" fill="#9EA6AD"/>
<path d="M124.912 54.2447C122.428 59.1987 117.613 66.8588 110.397 69.9672C110.397 69.9811 110.397 69.9949 110.397 69.9949H115.31H120.222C120.222 69.9949 120.847 66.0955 123.566 61.4329C124.524 59.8926 125.079 58.0608 125.079 56.1042C125.079 55.4659 125.023 54.8414 124.912 54.2447Z" fill="#799FE2"/>
<path d="M107.136 56.9368C107.136 52.1215 110.952 48.2221 115.67 48.2221C118.418 48.2221 120.874 49.5543 122.428 51.6219C120.958 49.0131 118.196 47.2507 115.032 47.2507C110.328 47.2507 106.498 51.1501 106.498 55.9654C106.498 57.9637 107.164 59.8093 108.26 61.2802C107.552 60.0036 107.136 58.5187 107.136 56.9368Z" fill="#D6E1F2"/>
<path d="M113.409 69.9952L112.229 57.2146L113.88 58.6161L115.31 56.2848L116.781 58.5467L118.39 57.2007L117.211 69.9952H117.71L119.015 56.035L116.892 57.7835L115.31 55.3412L113.755 57.8529L111.618 56.0212L112.909 69.9952H113.409Z" fill="#F6F7F7"/>
<path d="M112.784 68.7182L112.909 69.9949H113.409L113.256 68.4268C113.103 68.524 112.951 68.6211 112.784 68.7182Z" fill="#EDECED"/>
<path d="M117.697 64.7217L117.211 69.995H117.711L118.252 64.1389C118.071 64.3332 117.891 64.5275 117.697 64.7217Z" fill="#EDECED"/>
<path d="M120.347 71.6464H110.286V72.8814H120.347V71.6464Z" fill="#3B455A"/>
<path d="M120.347 74.269H110.286V75.5041H120.347V74.269Z" fill="#3B455A"/>
<path opacity="0.11" d="M120.18 69.9951C119.722 70.5918 119.251 71.1469 118.779 71.6465C118.363 72.0905 117.946 72.5068 117.53 72.8815C116.947 73.4088 116.364 73.8806 115.795 74.2831C115.101 74.7688 114.421 75.1851 113.769 75.5181C112.437 76.1981 111.244 76.5866 110.3 76.7948C110.356 77.0168 110.536 77.1695 110.758 77.1695H119.861C120.125 77.1695 120.347 76.9474 120.347 76.6699V75.5181V74.2831V72.8815V71.6465V69.9951H120.18Z" fill="black"/>
<g opacity="0.11" filter="url(#filter1_f)">
<path d="M141.759 123.185C146.411 123.185 150.182 122.421 150.182 121.478C150.182 120.535 146.411 119.771 141.759 119.771C137.107 119.771 133.336 120.535 133.336 121.478C133.336 122.421 137.107 123.185 141.759 123.185Z" fill="black"/>
</g>
<path d="M138.817 121.09L138.65 121.922L136.888 122.491L136.264 121.52L137.221 120.812L138.97 120.257L138.817 121.09Z" fill="#3B455A"/>
<path d="M143.716 120.146L143.785 121.02L145.492 121.742L146.241 120.798L145.353 120.007L143.716 120.146Z" fill="#3B455A"/>
<path d="M136.264 95.5424L135.514 98.2345L135.903 99.4695H135.861L136.319 106.574L137.304 120.895L138.956 120.84L141.911 104.104L142.12 104.881L143.715 120.34L145.228 120.202L147.573 100.025V95.9309L136.264 95.5424Z" fill="#3B455A"/>
<path d="M142.966 76.8641L141.037 76.6976C136.722 76.3368 136.416 82.3316 135.861 85.3151C135.056 89.6308 134.695 94.0576 135.112 98.4426C136.472 97.7072 138.345 97.8598 139.885 97.8043C142.73 97.7072 145.658 97.6239 148.406 98.068C148.919 98.1512 148.697 94.4739 148.586 93.7939C148.378 92.4062 148.17 91.0185 147.948 89.6308C147.573 87.1191 147.185 84.6074 146.81 82.0957C146.796 82.0263 146.782 81.943 146.782 81.8737C146.741 81.61 146.657 81.3463 146.519 81.1104L144.728 77.9881C144.354 77.3498 143.702 76.9335 142.966 76.8641Z" fill="#F7F7F7"/>
<path d="M144.742 71.369C143.452 71.7714 141.995 70.9804 140.76 71.5633C140.093 71.8686 139.483 72.6179 139.538 73.3673C139.594 74.1582 139.83 75.0602 140.316 75.6986C140.746 76.2675 140.884 76.4896 140.676 77.1695C140.954 77.3777 141.218 77.5858 141.495 77.794C141.551 77.8356 141.62 77.8911 141.703 77.905C141.814 77.9328 141.925 77.8911 142.022 77.8495C142.217 77.7801 142.425 77.6969 142.619 77.6275C142.827 77.5442 142.799 76.8226 142.827 76.6283C142.841 76.5451 142.855 76.4479 142.897 76.3786C142.952 76.2953 143.049 76.2398 143.133 76.1843C144.187 75.5321 145.034 74.2554 145.02 72.9926C145.034 72.4236 144.895 71.8824 144.742 71.369Z" fill="#EAC5B0"/>
<path d="M141.592 71.5354C141.648 71.5354 141.689 71.5216 141.745 71.5216C142.466 71.4799 143.202 71.5909 143.882 71.8546C144.34 72.035 144.839 72.3542 144.867 72.8954C144.881 73.1452 144.826 73.3811 144.756 73.6308C144.673 73.9361 144.59 74.2276 144.52 74.5328C144.506 74.5884 144.493 74.6439 144.506 74.6994C144.548 74.8659 144.798 74.8659 144.937 74.7549C145.422 74.3663 146.061 73.728 146.324 73.1729C146.546 72.7288 146.505 72.1183 146.824 71.7297C147.032 71.4661 147.198 71.0497 147.504 70.911C147.906 70.7167 148.336 70.4947 148.614 70.1478C148.905 69.8008 149.016 69.2735 148.78 68.885C148.545 68.5242 148.073 68.3993 147.643 68.3854C147.212 68.3715 146.754 68.4131 146.352 68.2466C146.172 68.1772 146.019 68.0801 145.825 68.0385C145.228 67.9136 144.284 68.1078 143.743 68.3854C143.23 68.649 142.744 68.9821 142.175 69.0792C141.717 69.1486 141.245 69.0515 140.787 69.0931C140.024 69.1625 139.303 69.6065 138.886 70.2449C138.414 70.9665 138.22 71.9656 138.65 72.7427C138.859 73.1313 139.011 73.5337 139.178 73.95C139.233 74.0888 139.608 74.6577 139.691 74.1859C139.761 73.8112 139.705 73.4366 139.761 73.0619C139.899 72.1321 140.746 71.6326 141.592 71.5354Z" fill="#3B455A"/>
<path d="M137.013 70.0227L136.069 69.6203L136.569 67.9689L137.637 67.7885L138.248 68.4824L137.61 68.9958L137.776 69.0652L138.04 68.968L138.137 69.2317L137.013 70.0227Z" fill="#EAC5B0"/>
<path d="M137.97 82.928C138.831 81.2073 139.108 79.209 138.748 77.3357C137.679 77.2108 136.652 76.7806 135.806 76.1145C135.75 76.0729 135.709 76.0312 135.667 75.9757C135.598 75.8647 135.639 75.7121 135.681 75.5872C136.291 73.6999 136.985 71.8265 137.485 69.9254L136.069 69.2316C135.625 70.0225 135.181 70.8274 134.737 71.6184C134.21 72.562 133.696 73.5056 133.169 74.4493C132.975 74.7962 132.781 75.1431 132.586 75.49C132.517 75.6149 132.434 75.7398 132.364 75.8647C132.003 76.503 132.461 77.5854 132.683 78.2238C133.003 79.1258 133.433 80 133.863 80.8604C134.335 81.8179 134.82 82.7893 135.292 83.7468C135.487 84.1492 135.75 84.5933 136.194 84.6626C136.985 84.7875 137.54 83.719 137.846 83.1501C137.901 83.0668 137.943 82.9974 137.97 82.928Z" fill="#F7F7F7"/>
<path d="M147.212 70.7999L148.212 70.5085L147.934 68.8155L146.907 68.4963L146.199 69.1069L146.768 69.6897L146.588 69.7453L146.352 69.6065L146.213 69.8563L147.212 70.7999Z" fill="#EAC5B0"/>
<path d="M144.534 83.4557C143.91 81.6378 143.119 79.2371 143.729 77.4192C144.798 77.4331 146.657 77.5441 147.587 76.989C147.643 76.9613 147.698 76.9197 147.74 76.8642C147.823 76.7531 147.795 76.6005 147.781 76.4756C147.435 74.5328 146.991 72.5762 146.755 70.6196L148.253 70.12C148.586 70.9665 148.919 71.813 149.252 72.6595C149.641 73.6586 150.043 74.6716 150.432 75.6707C150.571 76.0454 150.723 76.4062 150.862 76.7809C150.918 76.9197 150.973 77.0446 151.029 77.1833C151.306 77.8633 150.71 78.8763 150.39 79.473C149.946 80.3334 149.405 81.1244 148.864 81.9292C148.267 82.8173 147.657 83.7055 147.06 84.5936C146.81 84.9544 146.491 85.3707 146.047 85.3707C145.242 85.3846 144.84 84.2467 144.618 83.6499C144.576 83.5944 144.548 83.5251 144.534 83.4557Z" fill="#F7F7F7"/>
<path d="M139.178 77.1555V78.7236C139.178 79.2371 139.58 79.6395 140.08 79.6395H144.104C144.604 79.6395 145.006 79.2232 145.006 78.7236V77.1555H139.178Z" fill="#3B455A"/>
<path d="M151.861 56.1043C151.861 50.5951 147.49 46.1129 142.092 46.1129C136.694 46.1129 132.323 50.5813 132.323 56.1043C132.323 58.0609 132.878 59.8926 133.835 61.433C136.555 66.0956 137.18 69.995 137.18 69.995H142.092H147.004C147.004 69.995 147.629 66.0956 150.349 61.433C151.306 59.8926 151.861 58.0748 151.861 56.1043Z" fill="#8CABEF"/>
<path d="M137.069 69.9951V76.656C137.069 76.9335 137.291 77.1556 137.554 77.1556H146.658C146.921 77.1556 147.143 76.9335 147.143 76.656V69.9951H137.069Z" fill="#9EA6AD"/>
<path d="M151.695 54.2447C149.211 59.1987 144.396 66.8588 137.18 69.9672C137.18 69.9811 137.18 69.9949 137.18 69.9949H142.092H147.005C147.005 69.9949 147.629 66.0955 150.349 61.4329C151.306 59.8926 151.861 58.0608 151.861 56.1042C151.861 55.4659 151.806 54.8414 151.695 54.2447Z" fill="#799FE2"/>
<path d="M133.919 56.9368C133.919 52.1215 137.735 48.2221 142.453 48.2221C145.201 48.2221 147.657 49.5543 149.211 51.6219C147.74 49.0131 144.978 47.2507 141.815 47.2507C137.11 47.2507 133.28 51.1501 133.28 55.9654C133.28 57.9637 133.946 59.8093 135.043 61.2802C134.335 60.0036 133.919 58.5187 133.919 56.9368Z" fill="#D6E1F2"/>
<path d="M140.191 69.9952L139.011 57.2146L140.663 58.6161L142.092 56.2848L143.563 58.5467L145.173 57.2007L143.993 69.9952H144.493L145.797 56.035L143.674 57.7835L142.092 55.3412L140.538 57.8529L138.401 56.0212L139.691 69.9952H140.191Z" fill="#F6F7F7"/>
<path d="M139.566 68.7182L139.691 69.9949H140.191L140.038 68.4268C139.886 68.524 139.733 68.6211 139.566 68.7182Z" fill="#EDECED"/>
<path d="M144.479 64.7217L143.993 69.995H144.493L145.034 64.1389C144.854 64.3332 144.673 64.5275 144.479 64.7217Z" fill="#EDECED"/>
<path d="M147.129 71.6464H137.069V72.8814H147.129V71.6464Z" fill="#3B455A"/>
<path d="M147.129 74.269H137.069V75.5041H147.129V74.269Z" fill="#3B455A"/>
<path opacity="0.11" d="M146.963 69.9951C146.505 70.5918 146.033 71.1469 145.561 71.6465C145.145 72.0905 144.729 72.5068 144.312 72.8815C143.73 73.4088 143.147 73.8806 142.578 74.2831C141.884 74.7688 141.204 75.1851 140.552 75.5181C139.22 76.1981 138.026 76.5866 137.083 76.7948C137.138 77.0168 137.318 77.1695 137.54 77.1695H146.644C146.907 77.1695 147.129 76.9474 147.129 76.6699V75.5181V74.2831V72.8815V71.6465V69.9951H146.963Z" fill="black"/>
<g opacity="0.11" filter="url(#filter2_f)">
<path d="M194.047 123.185C198.699 123.185 202.47 122.421 202.47 121.478C202.47 120.535 198.699 119.771 194.047 119.771C189.395 119.771 185.624 120.535 185.624 121.478C185.624 122.421 189.395 123.185 194.047 123.185Z" fill="black"/>
</g>
<path d="M196.337 120.271V121.048L198.321 122.033L199.32 121.048L198.321 120.063H198.196L198.168 120.271H196.337Z" fill="#3B455A"/>
<path d="M191.452 120.063H191.313L190.328 121.048L191.313 122.033L193.298 121.048V120.271H191.48L191.452 120.063Z" fill="#3B455A"/>
<path d="M193.617 74.3386C192.562 74.297 191.202 74.8937 190.536 75.7263C190.037 76.3369 189.745 77.0862 189.468 77.8217C188.663 79.8893 188.302 81.8044 187.9 83.983C187.65 85.3707 187.414 86.7584 187.22 88.1322C187.011 89.6587 186.873 91.1851 186.831 92.6977C186.831 92.8642 186.789 93.336 186.776 93.8911C186.734 95.0568 186.762 96.6249 187.247 96.6804C187.344 96.6942 187.428 96.6526 187.511 96.611C188.135 96.3057 188.635 95.9033 189.176 95.5563C189.37 95.4314 189.565 95.3204 189.787 95.2094C190.217 95.0013 190.689 94.8347 191.161 94.7098C190.356 94.7515 190.259 94.5988 190.259 94.5988C190.259 94.5988 190.98 91.6569 191.494 89.1036C191.757 87.7853 191.965 86.5641 191.979 85.9119C192.035 83.9275 192.285 77.3776 192.285 77.3776L193.506 74.8659H193.728C193.714 74.8659 193.7 74.8659 193.686 74.8659C193.714 74.8798 193.631 74.3802 193.617 74.3386Z" fill="#F7F7F7"/>
<path d="M202.651 95.3759C202.526 94.0714 202.401 92.7809 202.234 91.4903C201.915 88.9092 201.499 86.3281 200.764 83.8303C200.486 82.8728 200.167 81.9292 199.848 80.9855C199.459 79.8338 199.071 78.6959 198.682 77.5441C198.196 76.1148 197.391 75.1156 195.962 74.6161C195.712 74.5328 195.435 74.4634 195.157 74.4079C195.157 74.4357 195.143 74.4634 195.143 74.505C195.13 74.6438 195.088 74.7965 195.005 74.8936L195.934 74.9075C195.934 74.9075 198.571 84.2605 198.668 85.8841C198.71 86.4947 198.835 87.8407 198.96 89.2423C199.182 91.4765 199.431 93.891 199.431 93.891C199.431 93.891 198.266 93.9188 196.6 94.0437C196.725 94.0437 196.85 94.0437 196.975 94.0298C198.141 94.0159 199.348 94.5155 200.472 94.8485C200.555 94.8763 200.639 94.8902 200.708 94.9179C201.166 95.0428 201.527 95.3759 201.915 95.6395C202.484 96.0142 202.72 96.1668 202.651 95.3759Z" fill="#F7F7F7"/>
<path d="M200.472 94.8346C199.348 94.5155 198.141 94.002 196.975 94.0159C196.85 94.0159 196.725 94.0159 196.6 94.0298C196.503 94.0437 196.392 94.0437 196.281 94.0575C195.504 94.1269 194.616 94.2102 193.7 94.3212C193.658 94.3212 193.617 94.3351 193.561 94.3351C192.382 94.5849 191.632 94.6959 191.133 94.7097C190.661 94.8346 190.189 95.0012 189.759 95.2093C189.537 95.3203 189.343 95.4313 189.148 95.5562V96.8329L191.383 120.326H193.214V120.548H193.228L195.24 104.16L195.254 104.077L196.364 120.548H196.378V120.326H198.224L200.555 102.189L200.472 94.8346Z" fill="#3B455A"/>
<path d="M198.987 89.2284C198.848 87.813 198.723 86.4808 198.696 85.8702C198.571 83.8997 197.835 81.8737 197.336 79.9725C197.044 78.8485 196.739 77.7245 196.42 76.6005C196.309 76.2258 196.281 75.5458 196.073 75.2405C195.74 74.7409 195.018 74.963 194.533 74.9769C193.88 75.0046 193.145 74.6022 192.576 75.1295C192.201 75.4764 192.285 76.1148 192.257 76.5727C192.215 77.6135 192.174 78.6403 192.146 79.6811C192.09 81.7626 192.035 83.8303 191.952 85.9118C191.938 86.5779 191.729 87.7852 191.466 89.1035C191.202 90.4079 190.925 91.6985 190.619 92.989C190.522 93.4053 190.425 93.8355 190.314 94.2518C190.272 94.4461 189.634 95.1261 189.801 95.251C189.898 95.3204 190.467 95.14 190.592 95.1122C190.883 95.0567 191.161 94.9873 191.452 94.9179C192.576 94.6543 193.7 94.3767 194.852 94.2796C195.518 94.2241 196.184 94.2518 196.85 94.2796C197.391 94.3073 197.932 94.3212 198.46 94.4322C199.084 94.5571 199.723 94.793 200.347 94.6681C200.333 94.3767 200.097 94.1686 199.917 93.9465C199.362 93.3221 199.334 92.6838 199.251 91.9066C199.154 91.0185 199.07 90.1165 198.987 89.2284Z" fill="#D7E8F4"/>
<path d="M196.711 68.8988C196.947 69.3707 197.045 69.9119 197.045 70.4392C197.045 70.5779 197.045 70.7445 197.156 70.8277C197.267 70.9249 197.156 71.1053 197.253 70.9942C197.35 70.8832 197.683 70.4808 197.697 70.342C197.752 69.9951 197.766 69.6343 197.752 69.2874C197.738 68.9821 197.697 68.6629 197.502 68.4132C197.391 68.2744 197.239 68.1634 197.1 68.0662C196.878 67.9136 196.656 67.7748 196.406 67.7054C195.976 67.5944 195.698 67.7471 196.059 68.0801C196.323 68.316 196.545 68.5797 196.711 68.8988Z" fill="#1A3151"/>
<path d="M193.617 74.7547C193.631 74.9212 193.659 75.0877 193.742 75.2265C193.839 75.3653 193.978 75.4624 194.13 75.5457C194.311 75.6428 194.519 75.7261 194.727 75.74C194.935 75.7538 195.157 75.6844 195.296 75.5179C195.671 75.0322 195.671 73.9915 195.726 73.4086C196.254 73.3393 196.892 73.2005 197.1 72.6593C197.169 72.4789 197.183 72.2985 197.183 72.1042C197.225 71.3271 197.267 70.55 197.322 69.7729C197.336 69.5092 197.35 69.2317 197.281 68.9681C197.142 68.524 196.753 68.2465 196.365 68.0522C195.379 67.5804 194.2 67.5387 193.228 68.0799C192.979 68.2187 192.729 68.413 192.576 68.6905C192.34 69.1068 192.34 69.6341 192.34 70.1337C192.354 70.5916 192.354 71.0496 192.368 71.5075C192.382 72.0348 192.424 72.6315 192.812 72.9368C193.02 73.0895 193.284 73.1311 193.464 73.3393C193.77 73.7139 193.603 74.269 193.617 74.7547Z" fill="#EAC5B0"/>
<path d="M197.378 71.8128C197.378 71.674 197.336 71.2438 197.114 71.4936C197.058 71.563 197.031 71.6601 197.031 71.7434C197.017 71.8405 197.017 71.9377 196.989 72.0209C196.92 72.2152 196.684 72.2985 196.503 72.2846C196.42 72.2846 196.351 72.2568 196.281 72.2152C196.212 72.1736 196.17 72.1042 196.115 72.0487C196.004 71.896 195.879 71.7434 195.768 71.5908C195.56 71.3271 195.143 71.4104 194.852 71.4381C194.519 71.4659 194.186 71.5491 193.894 71.7573C193.867 71.785 193.839 71.7989 193.811 71.8267C193.742 71.8822 193.672 71.9377 193.603 71.9654C193.339 72.0764 193.034 71.9238 192.868 71.6879C192.784 71.5769 192.715 71.4242 192.59 71.4104C192.493 71.3965 192.396 71.452 192.326 71.5491C192.271 71.6463 192.257 71.7573 192.243 71.8683C192.201 72.2707 192.229 72.687 192.382 73.0478C192.715 73.8388 193.423 73.9776 194.158 73.9915C194.449 74.0053 194.727 74.0053 195.018 74.0192C195.546 74.0331 196.101 74.047 196.545 73.7555C196.947 73.5058 197.197 73.0617 197.322 72.576C197.35 72.3262 197.378 72.0626 197.378 71.8128ZM195.421 72.798C195.143 72.9646 194.838 72.9646 194.533 72.8535C194.408 72.8119 194.477 72.5899 194.602 72.6315C194.852 72.7287 195.088 72.7287 195.324 72.5899C195.435 72.5205 195.532 72.7287 195.421 72.798Z" fill="#1A3151"/>
<path d="M197.697 67.6082C197.752 67.4278 197.808 67.2336 197.836 67.0393C197.655 67.0948 197.461 67.0948 197.28 67.0532C197.28 66.9421 197.294 66.8311 197.294 66.7201C197.294 66.623 196.059 66.4981 195.962 66.4842C195.019 66.3593 194.172 66.2344 193.284 66.7062C192.535 67.1087 192.035 67.7331 191.882 68.5796C191.73 69.3845 191.938 70.4669 192.368 71.1607C192.382 70.9387 192.285 70.4252 192.34 70.2171C192.382 70.0089 192.465 69.8147 192.562 69.6343C192.77 69.2735 193.09 68.982 193.45 68.7878C194.019 68.4686 194.672 68.316 195.324 68.2605C195.921 68.2049 196.642 68.1633 197.211 68.3576C197.489 68.4547 197.53 68.5241 197.711 68.2466C197.738 68.1911 198.016 67.6221 197.988 67.6221C197.905 67.6221 197.794 67.6082 197.697 67.6082Z" fill="#1A3151"/>
<path d="M201.388 70.1473C201.429 70.1196 201.471 70.1057 201.512 70.078C201.568 69.8004 201.499 69.509 201.429 69.2454C201.277 68.607 201.055 67.9826 200.513 67.5801C200.25 67.3859 199.542 67.2748 199.431 67.7605C199.389 67.9548 199.653 68.0381 199.778 68.1768C199.819 68.2185 200.111 68.6903 200.111 68.6903C199.986 68.7042 199.861 68.6348 199.75 68.5515C199.667 68.6487 199.597 68.7458 199.514 68.8429C199.5 68.8707 199.473 68.8846 199.486 68.9123C199.5 68.9262 199.514 68.9401 199.528 68.9539C200.222 69.287 200.347 69.8698 200.708 70.4943C200.93 70.3694 201.152 70.2584 201.388 70.1473Z" fill="#EAC5B0"/>
<path d="M199.223 80.9574L197.044 75.8091L200.347 75.9617C200.819 75.9062 201.138 75.476 201.068 75.0181L200.208 69.9808L201.665 69.6339L203.539 73.5055C204.33 75.143 204.246 77.058 203.317 78.6261L199.223 80.9574Z" fill="#F7F7F7"/>
<path d="M188.149 70.2446C188.108 70.2169 188.066 70.1891 188.024 70.1752C187.997 69.8977 188.08 69.6201 188.163 69.3426C188.371 68.7182 188.635 68.1076 189.204 67.7468C189.482 67.5664 190.203 67.5109 190.273 67.9966C190.3 68.1908 190.037 68.2602 189.898 68.3851C189.856 68.4267 189.523 68.8708 189.523 68.8708C189.648 68.8986 189.787 68.8292 189.898 68.7598C189.967 68.8708 190.037 68.9679 190.12 69.079C190.134 69.1067 190.148 69.1345 190.134 69.1483C190.12 69.1622 190.106 69.1761 190.092 69.19C189.371 69.4675 189.204 70.0503 188.802 70.6332C188.593 70.5083 188.371 70.3834 188.149 70.2446Z" fill="#EAC5B0"/>
<path d="M188.524 82.5118L192.007 74.8518C191.369 75.2542 190.73 75.6567 190.092 76.0591C189.662 76.3228 189.246 76.6003 188.815 76.864C188.371 77.1415 188.024 77.308 187.705 76.7113C187.622 76.5448 187.553 76.3505 187.525 76.1701C187.442 75.4763 189.398 70.2169 189.329 70.1892C189.315 70.1892 187.899 69.7451 187.899 69.7451L185.749 73.4641C185.166 74.4633 184.93 75.6844 184.888 76.8362C184.874 77.4329 184.902 78.0574 185.041 78.6402C185.166 79.1398 185.249 79.681 185.693 80.014C186.109 80.3054 186.484 80.6107 186.859 80.9715C187.025 81.0825 188.566 82.4008 188.524 82.5118Z" fill="#F7F7F7"/>
<path d="M192.049 77.1555V78.7236C192.049 79.2371 192.451 79.6395 192.951 79.6395H196.975C197.475 79.6395 197.877 79.2232 197.877 78.7236V77.1555H192.049Z" fill="#3B455A"/>
<path d="M204.732 56.1043C204.732 50.5951 200.361 46.1129 194.963 46.1129C189.565 46.1129 185.194 50.5813 185.194 56.1043C185.194 58.0609 185.749 59.8926 186.706 61.433C189.426 66.0956 190.051 69.995 190.051 69.995H194.963H199.875C199.875 69.995 200.5 66.0956 203.22 61.433C204.177 59.8926 204.732 58.0748 204.732 56.1043Z" fill="#8CABEF"/>
<path d="M189.939 69.9951V76.656C189.939 76.9335 190.161 77.1556 190.425 77.1556H199.528C199.792 77.1556 200.014 76.9335 200.014 76.656V69.9951H189.939Z" fill="#9EA6AD"/>
<path d="M204.566 54.2447C202.082 59.1987 197.267 66.8588 190.051 69.9672C190.051 69.9811 190.051 69.9949 190.051 69.9949H194.963H199.875C199.875 69.9949 200.5 66.0955 203.22 61.4329C204.177 59.8926 204.732 58.0608 204.732 56.1042C204.732 55.4659 204.677 54.8414 204.566 54.2447Z" fill="#799FE2"/>
<path d="M186.79 56.9368C186.79 52.1215 190.606 48.2221 195.324 48.2221C198.072 48.2221 200.528 49.5543 202.082 51.6219C200.611 49.0131 197.85 47.2507 194.686 47.2507C189.981 47.2507 186.151 51.1501 186.151 55.9654C186.151 57.9637 186.817 59.8093 187.914 61.2802C187.206 60.0036 186.79 58.5187 186.79 56.9368Z" fill="#D6E1F2"/>
<path d="M193.062 69.9952L191.882 57.2146L193.534 58.6161L194.963 56.2848L196.434 58.5467L198.044 57.2007L196.864 69.9952H197.364L198.668 56.035L196.545 57.7835L194.963 55.3412L193.409 57.8529L191.272 56.0212L192.562 69.9952H193.062Z" fill="#F6F7F7"/>
<path d="M192.438 68.7182L192.562 69.9949H193.062L192.909 68.4268C192.757 68.524 192.604 68.6211 192.438 68.7182Z" fill="#EDECED"/>
<path d="M197.35 64.7217L196.864 69.995H197.364L197.905 64.1389C197.725 64.3332 197.544 64.5275 197.35 64.7217Z" fill="#EDECED"/>
<path d="M200 71.6464H189.939V72.8814H200V71.6464Z" fill="#3B455A"/>
<path d="M200 74.269H189.939V75.5041H200V74.269Z" fill="#3B455A"/>
<path opacity="0.11" d="M199.834 69.9951C199.376 70.5918 198.904 71.1469 198.432 71.6465C198.016 72.0905 197.6 72.5068 197.183 72.8815C196.6 73.4088 196.018 73.8806 195.449 74.2831C194.755 74.7688 194.075 75.1851 193.423 75.5181C192.09 76.1981 190.897 76.5866 189.953 76.7948C190.009 77.0168 190.189 77.1695 190.411 77.1695H199.515C199.778 77.1695 200 76.9474 200 76.6699V75.5181V74.2831V72.8815V71.6465V69.9951H199.834Z" fill="black"/>
<g opacity="0.11" filter="url(#filter3_f)">
<path d="M167.903 123.185C172.555 123.185 176.326 122.421 176.326 121.478C176.326 120.536 172.555 119.771 167.903 119.771C163.251 119.771 159.48 120.536 159.48 121.478C159.48 122.421 163.251 123.185 167.903 123.185Z" fill="black"/>
</g>
<path d="M169.485 100.094L168.305 101.593L169.179 102.273L170.484 100.608L169.485 100.094Z" fill="#EAC5B0"/>
<path d="M169.235 102.162L168.624 101.357L168.236 101.19L167.542 101.482L168.18 104.021C168.555 104.118 168.93 103.841 168.944 103.452V103.327L169.235 102.162Z" fill="#3B455A"/>
<path d="M165.738 100.094L166.918 101.593L166.043 102.287L164.725 100.608L165.738 100.094Z" fill="#EAC5B0"/>
<path d="M165.974 102.273L166.488 101.399L166.862 101.19L167.584 101.399L167.237 103.993C166.876 104.132 166.474 103.896 166.418 103.508L166.404 103.383L165.974 102.273Z" fill="#3B455A"/>
<path d="M175.84 85.2043C175.063 83.3864 174.106 82.1375 173.273 80.4306C172.302 80.278 171.33 79.9588 170.359 79.7368C170.428 79.6119 170.498 79.487 170.581 79.376C169.277 79.5009 167.945 79.3482 166.64 79.5009C166.099 79.5286 165.558 79.5425 165.016 79.5147C165.086 79.6119 165.141 79.7229 165.211 79.82C164.267 80.1114 163.337 80.5278 162.394 80.7498C161.686 82.5538 160.909 83.9553 160.312 85.8842C159.716 87.827 159.341 90.2971 158.661 92.3092C160.604 95.4038 163.115 98.9701 165.003 102.092C165.669 101.829 165.849 101.01 166.529 100.788C165.655 97.9293 164.892 95.043 163.92 92.2121C165.016 90.2832 165.988 88.2988 166.959 86.3005C167.417 85.3708 168.722 85.2875 169.277 86.1618C170.387 87.9102 171.483 89.6587 172.524 91.4488C171.455 94.6683 170.026 97.6934 168.68 100.788C169.318 101.121 169.304 101.884 169.943 102.217C172.482 98.7897 175.618 95.0152 177.839 91.3378C177.173 89.3812 176.604 87.0221 175.84 85.2043Z" fill="#D67086"/>
<path d="M170.317 61.5026C170.109 61.35 169.873 61.2251 169.61 61.1279C169.152 60.9614 168.652 60.9475 168.153 60.9614C167.029 61.003 165.821 61.1696 164.989 61.9328C163.434 63.376 163.601 66.6232 163.31 68.6353C163.088 70.2034 162.852 71.7576 162.63 73.3257L162.005 80.847L170.775 80.9857L173.662 80.5278L172.912 72.6319C172.746 70.9111 172.496 69.1765 172.274 67.4558C172.066 65.5824 172.024 62.7376 170.317 61.5026Z" fill="#474EBB"/>
<path d="M169.221 55.0359C168.791 54.5918 168.167 54.342 167.556 54.3559C165.405 54.3836 165.239 56.4652 165.641 58.0749C165.821 58.7826 166.168 59.4903 166.765 59.9205C166.932 60.0315 167.112 60.1287 167.306 60.1981C167.223 60.4895 167.278 60.878 167.265 61.1833C167.251 61.3637 167.195 61.5302 167.32 61.669C167.473 61.8494 167.792 61.8772 168.014 61.8772C168.18 61.8772 168.361 61.8494 168.514 61.7523C168.749 61.5996 168.694 61.3776 168.68 61.1417C168.666 60.8086 168.708 60.4617 168.68 60.1287C168.736 60.1009 168.805 60.0593 168.86 60.0177C169.429 59.6014 169.624 58.8381 169.735 58.1443C169.846 57.2284 169.929 55.7436 169.221 55.0359Z" fill="#EAC5B0"/>
<path d="M169.374 57.0341C169.443 57.1174 169.554 57.1313 169.638 57.2007C169.915 57.4227 169.651 57.9084 169.818 58.2137C170.04 58.6161 169.998 59.3099 169.582 59.643C169.443 59.754 169.249 59.8373 169.193 60.0038C169.124 60.1981 169.263 60.4617 169.124 60.6144C169.346 60.8503 169.735 60.7948 170.04 60.6699C170.345 60.545 170.637 60.3646 170.956 60.3785C171.053 60.3785 171.178 60.3923 171.247 60.323C171.289 60.2813 171.289 60.2119 171.289 60.1426C171.358 59.3932 172.246 59.5875 172.357 58.9908C172.385 58.8243 172.191 58.4357 172.191 58.2137C172.191 57.8806 172.385 57.5753 172.274 57.2284C172.233 57.0896 172.135 56.9648 172.08 56.826C171.983 56.5346 172.08 56.2154 172.149 55.924C172.205 55.6187 172.205 55.2579 171.955 55.0775C171.761 54.9387 171.483 54.9526 171.289 54.8C170.873 54.4808 171.178 53.6204 170.706 53.3845C170.456 53.2596 170.165 53.3984 169.901 53.3568C169.61 53.3151 169.402 53.0931 169.166 52.9266C168.93 52.7601 168.569 52.6768 168.375 52.885C168.208 53.0654 168.25 53.3568 168.111 53.551C167.986 53.7176 167.75 53.7453 167.57 53.8425C166.682 54.2588 168.347 54.5363 168.583 54.8277C168.791 55.0775 168.999 55.5354 169.138 55.813C169.305 56.1321 169.193 56.8121 169.374 57.0341Z" fill="#3B455A"/>
<path d="M166.793 54.9389C165.71 55.1748 166.362 55.9658 166.016 56.6319C165.877 56.8955 165.502 56.9926 165.433 57.2702C165.377 57.4922 165.544 57.7142 165.669 57.9085C165.807 58.1028 165.905 58.3803 165.738 58.5607C165.696 58.6162 165.627 58.644 165.585 58.7134C165.502 58.8799 165.696 59.0464 165.863 59.1158C166.029 59.1852 166.238 59.3378 166.168 59.5044C165.974 60.0039 165.849 59.7958 166.168 60.226C166.251 60.3231 166.376 60.3092 166.46 60.4202C166.321 60.5729 166.113 60.6284 165.905 60.5451C165.405 60.3509 165.544 60.6006 165.141 60.6561C164.725 60.7255 164.711 60.6006 164.35 60.3647C164.017 60.1566 163.31 60.0039 163.185 59.5599C163.115 59.3101 163.31 59.0603 163.254 58.8244C163.199 58.5885 162.949 58.422 162.824 58.1999C162.588 57.7559 162.949 57.2841 163.018 56.8123C163.115 56.16 162.741 55.3552 163.421 54.9389C163.573 54.8556 163.754 54.8001 163.906 54.7168C164.35 54.4671 164.434 54.0091 164.614 53.6206C164.794 53.232 165.238 52.8018 165.78 52.899C166.279 52.9822 166.543 53.454 167.042 53.4957C167.223 53.5096 167.417 53.4818 167.57 53.5373C167.695 53.5928 167.764 53.69 167.806 53.7871C167.931 54.0091 168.278 54.7585 168.014 54.9528C167.722 55.2025 167.251 54.8417 166.793 54.9389Z" fill="#3B455A"/>
<path d="M170.9 57.4783C170.956 57.395 171.011 57.3117 171.011 57.2146C171.025 57.062 170.956 56.9509 170.831 56.8816C170.762 56.8399 170.678 56.8122 170.595 56.7844C170.429 56.715 170.29 56.6318 170.373 56.3959C170.387 56.3542 170.415 56.3126 170.429 56.2849C170.484 56.1461 170.498 55.9796 170.456 55.8269C170.415 55.7159 170.345 55.6188 170.22 55.5771C170.123 55.5494 170.04 55.5771 169.943 55.5771C169.582 55.5494 169.721 55.2302 169.749 55.0221C169.79 54.6613 169.54 54.3699 169.193 54.3143C169.138 54.3005 169.138 54.3976 169.193 54.3976C169.374 54.4254 169.527 54.5225 169.61 54.6751C169.693 54.8278 169.665 54.9943 169.638 55.1608C169.61 55.2996 169.61 55.48 169.721 55.5771C169.915 55.7437 170.179 55.5216 170.345 55.7575C170.498 55.9934 170.331 56.1877 170.262 56.3959C170.095 56.9371 171.206 56.7705 170.859 57.3534C170.775 57.506 170.609 57.6587 170.637 57.8529C170.651 57.9917 170.762 58.1027 170.914 58.0889C170.97 58.0889 170.97 57.9917 170.914 58.0056C170.678 58.0333 170.734 57.7419 170.789 57.6309C170.817 57.5893 170.859 57.5338 170.9 57.4783Z" fill="#C69C6D"/>
<path d="M166.015 54.7028C165.71 54.6612 165.238 54.675 165.197 55.0636C165.169 55.2718 165.294 55.4522 165.335 55.6464C165.405 56.035 165.002 56.1182 164.725 56.2431C164.433 56.368 164.17 56.7149 164.489 56.9647C164.531 56.9925 164.558 57.0202 164.6 57.048C164.572 57.1313 164.558 57.2284 164.531 57.3117C164.503 57.3394 164.42 57.3672 164.392 57.4088C164.35 57.4504 164.295 57.492 164.295 57.5614C164.281 57.6724 164.35 57.7557 164.461 57.7696C164.517 57.7696 164.517 57.6863 164.461 57.6863C164.475 57.6169 164.475 57.5337 164.489 57.4643C164.517 57.4504 164.531 57.4365 164.558 57.4227C164.586 57.4088 164.614 57.3949 164.628 57.3672C164.669 57.3394 164.697 57.2978 164.711 57.2561C164.753 57.159 164.725 57.0757 164.656 56.9925C164.586 56.9231 164.503 56.8953 164.461 56.7982C164.378 56.6317 164.503 56.479 164.656 56.3819C164.822 56.2848 165.016 56.257 165.169 56.1599C165.433 56.0072 165.46 55.7713 165.377 55.4938C165.308 55.2856 165.197 55.0081 165.419 54.8554C165.585 54.7444 165.821 54.7583 166.015 54.7861C166.071 54.7999 166.071 54.7167 166.015 54.7028Z" fill="#C69C6D"/>
<path d="M164.004 56.2571C164.059 56.2432 164.031 56.16 163.976 56.1739C163.74 56.2432 163.435 56.3681 163.448 56.6595C163.448 56.7428 163.49 56.8122 163.546 56.8677C163.643 56.951 163.768 56.951 163.851 57.0481C164.017 57.2562 163.809 57.506 163.559 57.4366C163.504 57.4228 163.476 57.506 163.532 57.5199C163.768 57.5893 164.031 57.4228 164.004 57.1591C163.99 57.0065 163.893 56.9371 163.782 56.8816C163.615 56.7844 163.462 56.6457 163.629 56.4514C163.712 56.3404 163.865 56.2987 164.004 56.2571Z" fill="#C69C6D"/>
<path d="M174.897 53.2456C174.786 52.9126 174.619 52.5795 174.342 52.3436C174.148 52.1771 173.523 51.7192 173.287 52.0661C173.273 52.08 173.273 52.1077 173.273 52.1355C173.26 52.3436 173.26 52.7044 173.384 52.8848C173.495 53.0514 173.676 52.9959 173.828 53.1346C173.926 53.2318 173.953 53.426 173.842 53.4954C173.773 53.5371 173.69 53.5232 173.62 53.5509C173.551 53.5648 173.468 53.6203 173.482 53.7036C173.495 53.7452 173.523 53.773 173.551 53.8007C173.704 53.9256 173.856 54.0366 173.995 54.1615C174.217 54.328 174.453 54.5639 174.411 54.8415C174.661 54.8554 174.911 54.8415 175.147 54.7998C175.077 54.2725 175.05 53.7175 174.897 53.2456Z" fill="#EAC5B0"/>
<path d="M170.026 64.9301C169.929 64.6387 169.832 64.3334 169.749 64.0281C169.693 63.8477 169.124 61.1001 169.582 61.1972C170.595 61.4054 171.622 61.447 172.635 61.3499C172.788 61.336 174.328 61.225 174.328 61.0862C174.314 59.5459 174.259 58.0194 174.161 56.4791C174.106 55.7158 173.981 54.9249 173.981 54.1755C173.981 53.8425 173.981 53.9118 174.245 53.7731C174.467 53.6621 174.827 53.5927 175.022 53.7731C175.202 53.9396 175.258 54.1894 175.313 54.4392C175.716 56.3681 176.409 58.1998 176.978 60.0871C177.353 61.3221 178.033 63.0151 177.242 64.2362C176.978 64.6248 176.562 64.8885 176.146 65.1244C174.772 65.9015 173.357 66.5953 171.899 67.2059C171.719 67.2753 171.539 67.3585 171.358 67.3169C171.095 67.2614 170.928 66.9977 170.803 66.748C170.484 66.1235 170.234 65.5407 170.026 64.9301Z" fill="#474EBB"/>
<path d="M160.229 53.7591C160.34 53.4261 160.507 53.093 160.784 52.8571C160.978 52.6906 161.603 52.2327 161.839 52.5796C161.853 52.5935 161.853 52.6212 161.853 52.649C161.867 52.8571 161.867 53.2179 161.742 53.3983C161.631 53.5649 161.45 53.5093 161.298 53.6481C161.2 53.7453 161.173 53.9395 161.284 54.0089C161.353 54.0505 161.436 54.0367 161.506 54.0644C161.575 54.0783 161.658 54.1338 161.644 54.2171C161.631 54.2587 161.603 54.2864 161.575 54.3142C161.422 54.4391 161.27 54.5501 161.131 54.675C160.909 54.8415 160.673 55.0774 160.715 55.355C160.465 55.3688 160.215 55.355 159.979 55.3133C160.049 54.786 160.09 54.2309 160.229 53.7591Z" fill="#EAC5B0"/>
<path d="M165.516 65.5129C165.655 64.6803 165.766 63.9171 165.766 63.7783C165.766 63.3759 165.821 61.9604 165.433 61.7384C165.127 61.5719 163.865 62.0298 163.421 61.9882C162.893 61.9327 162.421 61.5996 162.102 61.1833C161.769 60.767 161.575 60.2674 161.395 59.7679C161.117 58.963 160.77 58.0749 160.853 57.2145C160.923 56.368 161.173 55.5493 161.173 54.6889C161.173 54.3559 161.173 54.4253 160.909 54.2865C160.687 54.1755 160.326 54.1061 160.132 54.2865C159.618 54.7583 159.549 55.7991 159.396 56.4235C159.146 57.4227 158.897 58.4218 158.647 59.4348C158.494 60.0593 158.328 60.6976 158.425 61.336C158.508 61.9882 158.841 62.571 159.216 63.1122C160.617 65.1798 162.588 66.8728 164.85 67.9413C165.003 68.0524 165.308 66.7063 165.516 65.5129Z" fill="#474EBB"/>
<path d="M164.289 61.0309V62.9755C164.289 63.6122 164.788 64.1112 165.408 64.1112H170.398C171.017 64.1112 171.517 63.595 171.517 62.9755V61.0309H164.289Z" fill="#3B455A"/>
<path d="M180.018 34.9261C180.018 28.0945 174.597 22.5362 167.903 22.5362C161.209 22.5362 155.788 28.0772 155.788 34.9261C155.788 37.3525 156.477 39.624 157.664 41.5341C161.037 47.3161 161.811 52.1516 161.811 52.1516H167.903H173.995C173.995 52.1516 174.769 47.3161 178.142 41.5341C179.329 39.624 180.018 37.3697 180.018 34.9261Z" fill="#F7F8F9"/>
<path d="M161.674 52.1516V60.4115C161.674 60.7557 161.949 61.031 162.276 61.031H173.564C173.891 61.031 174.167 60.7557 174.167 60.4115V52.1516H161.674Z" fill="#9EA6AD"/>
<path opacity="0.2" d="M179.811 32.6203C176.731 38.7636 170.76 48.2626 161.811 52.1172C161.811 52.1344 161.811 52.1516 161.811 52.1516H167.903H173.995C173.995 52.1516 174.769 47.3161 178.142 41.5342C179.329 39.6241 180.018 37.3526 180.018 34.9262C180.018 34.1346 179.949 33.3603 179.811 32.6203Z" fill="#799FE2"/>
<path d="M157.767 35.9586C157.767 29.9873 162.499 25.1518 168.35 25.1518C171.757 25.1518 174.803 26.8038 176.731 29.3678C174.907 26.1327 171.482 23.9472 167.559 23.9472C161.725 23.9472 156.976 28.7827 156.976 34.754C156.976 37.232 157.802 39.5207 159.161 41.3447C158.283 39.7616 157.767 37.9203 157.767 35.9586Z" fill="#D6E1F2"/>
<path d="M165.545 52.1516L164.083 36.3028L166.13 38.0408L167.903 35.1498L169.727 37.9548L171.723 36.2856L170.26 52.1516H170.88L172.497 34.8401L169.865 37.0083L167.903 33.9797L165.976 37.0944L163.325 34.8229L164.926 52.1516H165.545Z" fill="#587BC9"/>
<path d="M164.771 50.5683L164.926 52.1514H165.545L165.356 50.2069C165.167 50.3274 164.977 50.4478 164.771 50.5683Z" fill="#EDECED"/>
<path d="M170.863 45.6123L170.26 52.1515H170.88L171.551 44.8896C171.327 45.1305 171.104 45.3714 170.863 45.6123Z" fill="#EDECED"/>
<path d="M174.15 54.1994H161.674V55.7309H174.15V54.1994Z" fill="#3B455A"/>
<path d="M174.15 57.4517H161.674V58.9833H174.15V57.4517Z" fill="#3B455A"/>
<path opacity="0.11" d="M173.943 52.1516C173.375 52.8915 172.79 53.5798 172.205 54.1993C171.689 54.75 171.172 55.2662 170.656 55.7309C169.933 56.3848 169.211 56.9699 168.505 57.4689C167.645 58.0712 166.802 58.5874 165.993 59.0004C164.341 59.8436 162.861 60.3255 161.691 60.5836C161.76 60.8589 161.983 61.0482 162.259 61.0482H173.547C173.874 61.0482 174.149 60.7729 174.149 60.4287V59.0004V57.4689V55.7309V54.1993V52.1516H173.943Z" fill="black"/>
</g>
<path d="M50.3851 60.1033C50.3851 61.121 50.2086 62.0641 49.8558 62.9326C49.503 63.7876 49.0077 64.5271 48.3699 65.1514C47.7457 65.7756 46.9993 66.2641 46.1308 66.6169C45.2623 66.9562 44.3124 67.1258 43.2811 67.1258C42.2633 67.1258 41.3202 66.9562 40.4517 66.6169C39.5832 66.2641 38.83 65.7756 38.1923 65.1514C37.568 64.5271 37.0795 63.7876 36.7267 62.9326C36.3738 62.0641 36.1974 61.121 36.1974 60.1033C36.1974 59.0855 36.3738 58.1491 36.7267 57.2942C37.0795 56.4257 37.568 55.6794 38.1923 55.0551C38.83 54.4309 39.5832 53.9492 40.4517 53.6099C41.3202 53.2571 42.2633 53.0807 43.2811 53.0807C44.3124 53.0807 45.2623 53.2571 46.1308 53.6099C46.9993 53.9492 47.7457 54.4309 48.3699 55.0551C49.0077 55.6794 49.503 56.4257 49.8558 57.2942C50.2086 58.1491 50.3851 59.0855 50.3851 60.1033ZM47.4132 60.1033C47.4132 59.4655 47.3114 58.8752 47.1079 58.3323C46.9179 57.7895 46.6397 57.3214 46.2733 56.9278C45.9205 56.5207 45.4862 56.2086 44.9706 55.9915C44.4685 55.7608 43.9053 55.6455 43.2811 55.6455C42.6568 55.6455 42.0869 55.7608 41.5712 55.9915C41.0691 56.2086 40.6417 56.5207 40.2888 56.9278C39.936 57.3214 39.6578 57.7895 39.4543 58.3323C39.2643 58.8752 39.1693 59.4655 39.1693 60.1033C39.1693 60.7411 39.2643 61.3314 39.4543 61.8742C39.6578 62.417 39.936 62.8851 40.2888 63.2787C40.6417 63.6722 41.0691 63.9843 41.5712 64.215C42.0869 64.4457 42.6568 64.5611 43.2811 64.5611C43.9053 64.5611 44.4685 64.4457 44.9706 64.215C45.4862 63.9843 45.9205 63.6722 46.2733 63.2787C46.6397 62.8851 46.9179 62.417 47.1079 61.8742C47.3114 61.3314 47.4132 60.7411 47.4132 60.1033Z" fill="white"/>
<path d="M55.0847 57.3146C55.0847 57.7624 54.9287 58.1491 54.6166 58.4748C54.3044 58.7869 53.9313 58.943 53.497 58.943C53.2528 58.943 53.0221 58.8955 52.8049 58.8005C52.5878 58.7055 52.3911 58.5698 52.2146 58.3934C52.0518 58.217 51.9161 57.9999 51.8075 57.742C51.7125 57.4842 51.6651 57.1925 51.6651 56.8668C51.6651 56.2154 51.8075 55.598 52.0925 55.0144C52.3911 54.4174 52.7982 53.8881 53.3138 53.4267C53.4495 53.291 53.6327 53.2232 53.8634 53.2232C54.1077 53.2232 54.2909 53.2978 54.413 53.4471C54.5351 53.5964 54.5962 53.7456 54.5962 53.8949C54.5962 54.0849 54.5351 54.2274 54.413 54.3224C54.1416 54.5395 53.9041 54.7905 53.7006 55.0755C53.5106 55.3605 53.3817 55.6387 53.3138 55.9101C53.341 55.8965 53.3952 55.8829 53.4767 55.8694C53.5581 55.8558 53.6327 55.849 53.7006 55.849C54.0941 55.849 54.4198 55.9847 54.6776 56.2561C54.949 56.5275 55.0847 56.8803 55.0847 57.3146Z" fill="white"/>
<path d="M66.0538 58.1899C66.0538 58.3798 66.0267 58.5359 65.9724 58.658L62.0031 68.4896C61.6503 69.3445 61.1821 69.9552 60.5986 70.3216C60.0151 70.688 59.357 70.8712 58.6242 70.8712C58.3935 70.8712 58.1831 70.844 57.9932 70.7898C57.8032 70.7355 57.6335 70.6541 57.4843 70.5455C57.3486 70.4505 57.24 70.3284 57.1586 70.1791C57.0772 70.0434 57.0365 69.8874 57.0365 69.7109C57.0365 69.3988 57.145 69.1274 57.3621 68.8967C57.5928 68.6796 57.8914 68.571 58.2578 68.571C58.312 68.571 58.3663 68.571 58.4206 68.571C58.4749 68.571 58.5292 68.5643 58.5835 68.5507C58.8006 68.51 58.9906 68.4353 59.1534 68.3268C59.3298 68.2182 59.4655 68.0622 59.5605 67.8586L59.9269 67.024L56.5683 58.6377C56.514 58.5155 56.4869 58.3731 56.4869 58.2102C56.4869 57.8981 56.6022 57.6063 56.8329 57.3349C57.0772 57.0635 57.3961 56.9278 57.7896 56.9278C58.0474 56.9278 58.2849 57.0025 58.502 57.1517C58.7192 57.301 58.882 57.5114 58.9906 57.7828L61.2703 63.8893L63.5501 57.7828C63.6451 57.5249 63.808 57.3214 64.0387 57.1721C64.2694 57.0093 64.5204 56.9278 64.7918 56.9278C65.1853 56.9278 65.4907 57.0635 65.7078 57.3349C65.9385 57.5928 66.0538 57.8777 66.0538 58.1899Z" fill="white"/>
<path d="M70.3629 65.7213C70.3629 66.0741 70.234 66.3795 69.9762 66.6373C69.7319 66.8816 69.4266 67.0037 69.0602 67.0037C68.7074 67.0037 68.4021 66.8816 68.1442 66.6373C67.9 66.3795 67.7778 66.0741 67.7778 65.7213V54.4445C67.7778 54.0917 67.9 53.7931 68.1442 53.5489C68.4021 53.3046 68.721 53.1825 69.1009 53.1825C69.4537 53.1825 69.7523 53.3046 69.9966 53.5489C70.2408 53.7931 70.3629 54.0917 70.3629 54.4445V65.7213Z" fill="white"/>
<path d="M81.4144 65.7213C81.4144 66.0741 81.2923 66.3795 81.048 66.6373C80.8038 66.8816 80.5052 67.0037 80.1524 67.0037C80.1524 67.0037 80.1185 67.0037 80.0506 67.0037C79.9828 67.0037 79.9488 67.0037 79.9488 67.0037C79.6367 67.0037 79.3721 66.8951 79.155 66.678C78.9379 66.4473 78.8293 66.1759 78.8293 65.8638C78.4901 66.2573 78.049 66.5694 77.5062 66.8001C76.9634 67.0173 76.3663 67.1258 75.715 67.1258C75.3214 67.1258 74.9211 67.058 74.514 66.9223C74.1069 66.7866 73.7405 66.5898 73.4148 66.332C73.0891 66.0606 72.8177 65.7213 72.6006 65.3142C72.397 64.9071 72.2953 64.4254 72.2953 63.869C72.2953 63.299 72.397 62.8105 72.6006 62.4034C72.8177 61.9963 73.0891 61.6706 73.4148 61.4263C73.7405 61.1685 74.1069 60.9853 74.514 60.8768C74.9211 60.7546 75.3214 60.6936 75.715 60.6936C76.3663 60.6936 76.9634 60.7953 77.5062 60.9989C78.0626 61.2024 78.5036 61.501 78.8293 61.8945V60.5714C78.8293 60.0693 78.6325 59.669 78.239 59.3705C77.8455 59.0719 77.323 58.9226 76.6716 58.9226C76.2781 58.9226 75.8982 58.9701 75.5318 59.0651C75.1654 59.1601 74.8125 59.323 74.4733 59.5537C74.3104 59.6487 74.1544 59.6961 74.0051 59.6961C73.7744 59.6961 73.5505 59.6079 73.3334 59.4315C73.1298 59.2551 73.0281 59.0109 73.0281 58.6987C73.0281 58.5223 73.0756 58.3527 73.1705 58.1899C73.3198 57.9456 73.5573 57.7353 73.883 57.5588C74.2087 57.3824 74.5615 57.2399 74.9415 57.1314C75.335 57.0228 75.7217 56.9414 76.1017 56.8871C76.4952 56.8328 76.8345 56.8057 77.1195 56.8057C77.6758 56.8057 78.2119 56.8668 78.7275 56.9889C79.2432 57.111 79.6978 57.3214 80.0913 57.6199C80.4984 57.9049 80.8173 58.2849 81.048 58.7598C81.2923 59.2348 81.4144 59.8251 81.4144 60.5307V65.7213ZM78.8293 64.5203V63.299C78.6122 63.0141 78.3136 62.8037 77.9337 62.668C77.5673 62.5187 77.1737 62.4441 76.7531 62.4441C76.2374 62.4441 75.7964 62.573 75.43 62.8309C75.0772 63.0887 74.9007 63.4551 74.9007 63.93C74.9007 64.3914 75.0772 64.751 75.43 65.0089C75.7964 65.2531 76.2374 65.3753 76.7531 65.3753C77.1737 65.3753 77.5673 65.3074 77.9337 65.1717C78.3136 65.0224 78.6122 64.8053 78.8293 64.5203Z" fill="white"/>
<path d="M93.9526 61.9759C93.9526 62.7901 93.8373 63.5229 93.6066 64.1743C93.3895 64.8121 93.0841 65.3481 92.6906 65.7824C92.3106 66.2166 91.856 66.5491 91.3268 66.7798C90.7976 67.0105 90.2208 67.1258 89.5966 67.1258C88.9995 67.1258 88.4431 66.9969 87.9275 66.7391C87.4118 66.4812 86.9572 66.1081 86.5637 65.6195V65.7213C86.5637 66.0741 86.4348 66.3795 86.1769 66.6373C85.9327 66.8816 85.6273 67.0037 85.2609 67.0037C84.9081 67.0037 84.6028 66.8816 84.3449 66.6373C84.1007 66.3795 83.9786 66.0741 83.9786 65.7213V54.4445C83.9786 54.0917 84.1007 53.7931 84.3449 53.5489C84.6028 53.3046 84.9217 53.1825 85.3016 53.1825C85.6545 53.1825 85.953 53.3046 86.1973 53.5489C86.4415 53.7931 86.5637 54.0917 86.5637 54.4445V58.312C86.9572 57.8099 87.4118 57.4367 87.9275 57.1925C88.4567 56.9346 89.0131 56.8057 89.5966 56.8057C90.2208 56.8057 90.7976 56.9278 91.3268 57.1721C91.8696 57.4028 92.331 57.742 92.711 58.1899C93.1045 58.6377 93.4098 59.1805 93.6269 59.8183C93.8441 60.4561 93.9526 61.1753 93.9526 61.9759ZM91.2861 61.9759C91.2861 61.5553 91.225 61.1685 91.1029 60.8157C90.9808 60.4629 90.8111 60.1575 90.594 59.8997C90.3769 59.6419 90.1123 59.4451 89.8002 59.3094C89.5016 59.1737 89.1624 59.1058 88.7824 59.1058C88.3617 59.1058 87.941 59.2144 87.5204 59.4315C87.0997 59.6487 86.7808 59.9201 86.5637 60.2457V63.7265C86.7808 64.0386 87.0997 64.3032 87.5204 64.5203C87.941 64.7239 88.3617 64.8257 88.7824 64.8257C89.1624 64.8257 89.5016 64.7578 89.8002 64.6221C90.1123 64.4864 90.3769 64.2964 90.594 64.0522C90.8111 63.7943 90.9808 63.4958 91.1029 63.1565C91.225 62.8037 91.2861 62.4102 91.2861 61.9759Z" fill="white"/>
<path d="M42.082 91.3893C42.082 91.5521 42.0481 91.7082 41.9802 91.8575C41.926 91.9932 41.8242 92.1153 41.6749 92.2239C41.5256 92.3324 41.3153 92.4138 41.0439 92.4681C40.7725 92.536 40.4265 92.5699 40.0058 92.5699C39.0966 92.5699 38.4045 92.346 37.9295 91.8982C37.4546 91.4368 37.2171 90.7651 37.2171 89.883V84.7535H36.5861C36.274 84.7535 36.0094 84.6449 35.7922 84.4278C35.5751 84.1971 35.4666 83.9189 35.4666 83.5932C35.4666 83.2947 35.5751 83.0368 35.7922 82.8197C36.0094 82.6026 36.274 82.494 36.5861 82.494H37.2171V80.9674C37.2171 80.6146 37.3392 80.316 37.5835 80.0718C37.8413 79.8139 38.1602 79.685 38.5402 79.685C38.893 79.685 39.1916 79.8139 39.4358 80.0718C39.6937 80.316 39.8226 80.6146 39.8226 80.9674V82.494H40.8403C41.1389 82.494 41.3967 82.6094 41.6138 82.8401C41.831 83.0572 41.9395 83.3218 41.9395 83.6339C41.9395 83.9461 41.831 84.2107 41.6138 84.4278C41.3967 84.6449 41.1389 84.7535 40.8403 84.7535H39.8226V89.1909C39.8226 89.5845 39.9176 89.8626 40.1076 90.0255C40.3111 90.1883 40.5147 90.2698 40.7182 90.2698C40.7454 90.2698 40.7793 90.2698 40.82 90.2698C40.8743 90.2698 40.915 90.2698 40.9421 90.2698C41.3085 90.2698 41.5867 90.3783 41.7767 90.5954C41.9802 90.8126 42.082 91.0772 42.082 91.3893Z" fill="white"/>
<path d="M53.3566 87.3997C53.3566 88.1053 53.2345 88.7702 52.9902 89.3945C52.7595 90.0187 52.4203 90.5683 51.9724 91.0433C51.5246 91.5046 50.975 91.8778 50.3237 92.1628C49.6859 92.4342 48.9599 92.5699 48.1457 92.5699C47.3314 92.5699 46.6054 92.4342 45.9676 92.1628C45.3298 91.8778 44.787 91.5046 44.3392 91.0433C43.8914 90.5683 43.5454 90.0187 43.3011 89.3945C43.0704 88.7702 42.9551 88.1053 42.9551 87.3997C42.9551 86.7076 43.0704 86.0494 43.3011 85.4252C43.5454 84.801 43.8914 84.2582 44.3392 83.7968C44.787 83.3218 45.3298 82.9486 45.9676 82.6772C46.6054 82.3923 47.3314 82.2498 48.1457 82.2498C48.9599 82.2498 49.6859 82.3923 50.3237 82.6772C50.975 82.9486 51.5246 83.3218 51.9724 83.7968C52.4203 84.2582 52.7595 84.801 52.9902 85.4252C53.2345 86.0494 53.3566 86.7076 53.3566 87.3997ZM50.6697 87.3997C50.6697 87.0197 50.6086 86.6601 50.4865 86.3208C50.378 85.968 50.2151 85.6627 49.998 85.4048C49.7944 85.147 49.5366 84.9435 49.2245 84.7942C48.9124 84.6313 48.5528 84.5499 48.1457 84.5499C47.7386 84.5499 47.3789 84.6313 47.0668 84.7942C46.7683 84.9435 46.5105 85.147 46.2933 85.4048C46.0762 85.6627 45.9134 85.968 45.8048 86.3208C45.6962 86.6601 45.642 87.0197 45.642 87.3997C45.642 87.7932 45.6962 88.1664 45.8048 88.5192C45.9134 88.8585 46.0762 89.157 46.2933 89.4148C46.5105 89.6727 46.7683 89.883 47.0668 90.0458C47.3789 90.1951 47.7386 90.2698 48.1457 90.2698C48.5528 90.2698 48.9124 90.1951 49.2245 90.0458C49.5366 89.883 49.7944 89.6727 49.998 89.4148C50.2151 89.157 50.378 88.8585 50.4865 88.5192C50.6086 88.1664 50.6697 87.7932 50.6697 87.3997Z" fill="white"/>
<path d="M65.2485 87.3997C65.2485 88.2139 65.14 88.9467 64.9228 89.598C64.7057 90.2358 64.4004 90.7786 64.0069 91.2265C63.6269 91.6607 63.1655 91.9932 62.6227 92.2239C62.0935 92.4546 61.5167 92.5699 60.8925 92.5699C60.309 92.5699 59.7526 92.4478 59.2234 92.2035C58.7077 91.9592 58.2531 91.5793 57.8596 91.0636V94.9311C57.8596 95.2839 57.7307 95.5825 57.4728 95.8267C57.2286 96.071 56.9232 96.1931 56.5568 96.1931C56.204 96.1931 55.8987 96.071 55.6408 95.8267C55.3966 95.5825 55.2745 95.2839 55.2745 94.9311V83.6339C55.2745 83.2811 55.3966 82.9826 55.6408 82.7383C55.8987 82.494 56.2176 82.3719 56.5975 82.3719C56.9504 82.3719 57.2489 82.494 57.4932 82.7383C57.7374 82.9826 57.8596 83.2811 57.8596 83.6339V83.7357C58.2395 83.2608 58.6873 82.8944 59.203 82.6365C59.7187 82.3787 60.2818 82.2498 60.8925 82.2498C61.5167 82.2498 62.0935 82.3651 62.6227 82.5958C63.1655 82.8265 63.6269 83.159 64.0069 83.5932C64.4004 84.0275 64.7057 84.5703 64.9228 85.2216C65.14 85.8594 65.2485 86.5854 65.2485 87.3997ZM62.5616 87.3997C62.5616 86.979 62.5006 86.5922 62.3784 86.2394C62.2563 85.8866 62.0867 85.588 61.8696 85.3438C61.6524 85.0859 61.3878 84.8892 61.0757 84.7535C60.7772 84.6178 60.4447 84.5499 60.0783 84.5499C59.6576 84.5499 59.2369 84.6585 58.8163 84.8756C58.3956 85.0927 58.0767 85.3573 57.8596 85.6695V89.1502C58.0767 89.4623 58.3956 89.7269 58.8163 89.9441C59.2369 90.1612 59.6576 90.2698 60.0783 90.2698C60.4447 90.2698 60.7772 90.2019 61.0757 90.0662C61.3878 89.9305 61.6524 89.7337 61.8696 89.4759C62.0867 89.2181 62.2563 88.9195 62.3784 88.5803C62.5006 88.2274 62.5616 87.8339 62.5616 87.3997Z" fill="white"/>
<path d="M68.4241 78.3619C68.8584 78.3619 69.2248 78.5112 69.5233 78.8097C69.8218 79.0947 69.9711 79.4543 69.9711 79.8886C69.9711 80.3228 69.8218 80.6892 69.5233 80.9878C69.2248 81.2863 68.8584 81.4356 68.4241 81.4356C68.0034 81.4356 67.637 81.2863 67.3249 80.9878C67.0264 80.6892 66.8771 80.3228 66.8771 79.8886C66.8771 79.4543 67.0264 79.0947 67.3249 78.8097C67.637 78.5112 68.0034 78.3619 68.4241 78.3619ZM69.7268 91.1654C69.7268 91.5182 69.5979 91.8235 69.3401 92.0814C69.0958 92.3256 68.7905 92.4478 68.4241 92.4478C68.0713 92.4478 67.766 92.3256 67.5081 92.0814C67.2639 91.8235 67.1417 91.5182 67.1417 91.1654V83.6339C67.1417 83.2811 67.2639 82.9826 67.5081 82.7383C67.766 82.494 68.0849 82.3719 68.4648 82.3719C68.8176 82.3719 69.1162 82.494 69.3605 82.7383C69.6047 82.9826 69.7268 83.2811 69.7268 83.6339V91.1654Z" fill="white"/>
<path d="M81.5111 91.1654C81.5111 91.5182 81.3822 91.8235 81.1244 92.0814C80.8801 92.3256 80.5748 92.4478 80.2084 92.4478C79.8556 92.4478 79.5502 92.3256 79.2924 92.0814C79.0481 91.8235 78.926 91.5182 78.926 91.1654V86.3819C78.926 85.6898 78.7632 85.2149 78.4375 84.957C78.1118 84.6856 77.6708 84.5499 77.1144 84.5499C76.8565 84.5499 76.6123 84.5839 76.3816 84.6517C76.1645 84.7196 75.9609 84.8078 75.7709 84.9163C75.5809 85.0249 75.4113 85.147 75.2621 85.2827C75.1128 85.4184 74.9839 85.5609 74.8753 85.7102V91.1654C74.8753 91.5182 74.7464 91.8235 74.4885 92.0814C74.2443 92.3256 73.939 92.4478 73.5726 92.4478C73.2197 92.4478 72.9144 92.3256 72.6566 92.0814C72.4123 91.8235 72.2902 91.5182 72.2902 91.1654V83.6339C72.2902 83.2811 72.4123 82.9826 72.6566 82.7383C72.9144 82.494 73.2333 82.3719 73.6133 82.3719C73.9661 82.3719 74.2646 82.494 74.5089 82.7383C74.7532 82.9826 74.8753 83.2811 74.8753 83.6339V83.7764C75.0381 83.5864 75.2281 83.4032 75.4452 83.2268C75.6759 83.0369 75.9338 82.874 76.2187 82.7383C76.5173 82.589 76.8362 82.4737 77.1754 82.3923C77.5283 82.2973 77.9082 82.2498 78.3153 82.2498C79.401 82.2498 80.2016 82.5348 80.7173 83.1047C81.2465 83.6611 81.5111 84.421 81.5111 85.3845V91.1654Z" fill="white"/>
<path d="M93.421 91.6539C93.421 92.5903 93.2582 93.357 92.9325 93.9541C92.6068 94.5647 92.1861 95.0397 91.6705 95.3789C91.1548 95.7317 90.5848 95.976 89.9606 96.1117C89.3364 96.2474 88.7189 96.3153 88.1083 96.3153C87.8097 96.3153 87.4705 96.2949 87.0905 96.2542C86.7106 96.2135 86.3374 96.1456 85.971 96.0506C85.6046 95.9557 85.2721 95.8267 84.9736 95.6639C84.675 95.5146 84.4511 95.3246 84.3019 95.0939C84.1933 94.9175 84.139 94.7276 84.139 94.524C84.139 94.2119 84.2476 93.9541 84.4647 93.7505C84.6818 93.547 84.9329 93.4452 85.2178 93.4452C85.4078 93.4452 85.591 93.4927 85.7674 93.5877C86.1203 93.8048 86.4866 93.9608 86.8666 94.0558C87.2602 94.1508 87.674 94.1983 88.1083 94.1983C88.4204 94.1983 88.7325 94.1576 89.0446 94.0762C89.3703 94.0083 89.6621 93.8794 89.9199 93.6894C90.1913 93.4995 90.4084 93.2416 90.5713 92.9159C90.7341 92.6038 90.8155 92.2035 90.8155 91.715V90.7176C90.422 91.2061 89.9674 91.5861 89.4517 91.8575C88.9496 92.1289 88.3933 92.2646 87.7826 92.2646C87.1719 92.2646 86.602 92.156 86.0728 91.9389C85.5435 91.7218 85.0821 91.4029 84.6886 90.9822C84.3086 90.5615 84.0033 90.0391 83.7726 89.4148C83.5555 88.7906 83.4469 88.0714 83.4469 87.2572C83.4469 86.4565 83.5555 85.7441 83.7726 85.1199C83.9897 84.4956 84.2883 83.9732 84.6683 83.5525C85.0618 83.1183 85.5232 82.7926 86.0524 82.5755C86.5816 82.3583 87.1584 82.2498 87.7826 82.2498C88.3797 82.2498 88.9361 82.3787 89.4517 82.6365C89.9674 82.8808 90.422 83.254 90.8155 83.7561V83.6543C90.8155 83.3015 90.9377 83.0029 91.1819 82.7587C91.4398 82.5008 91.7587 82.3719 92.1386 82.3719C92.4915 82.3719 92.79 82.5008 93.0343 82.7587C93.2921 83.0029 93.421 83.3015 93.421 83.6543V91.6539ZM90.8155 88.8449V85.6695C90.707 85.5066 90.5713 85.3573 90.4084 85.2216C90.2456 85.0859 90.0624 84.9706 89.8588 84.8756C89.6689 84.767 89.4653 84.6856 89.2482 84.6313C89.0311 84.5771 88.8139 84.5499 88.5968 84.5499C88.2304 84.5499 87.8912 84.611 87.5791 84.7331C87.2805 84.8553 87.0227 85.0385 86.8055 85.2827C86.5884 85.5134 86.4188 85.7984 86.2967 86.1376C86.1745 86.4633 86.1135 86.8365 86.1135 87.2572C86.1135 87.6778 86.1745 88.0578 86.2967 88.3971C86.4188 88.7228 86.5884 89.0077 86.8055 89.252C87.0227 89.4827 87.2805 89.6591 87.5791 89.7812C87.8912 89.9034 88.2304 89.9644 88.5968 89.9644C88.8139 89.9644 89.0311 89.9373 89.2482 89.883C89.4653 89.8287 89.6689 89.7541 89.8588 89.6591C90.0624 89.5505 90.2456 89.4284 90.4084 89.2927C90.5713 89.157 90.707 89.0077 90.8155 88.8449Z" fill="white"/>
<defs>
<filter id="filter0_f" x="105.192" y="117.771" width="20.8465" height="7.4137" filterUnits="userSpaceOnUse" color-interpolation-filters="sRGB">
<feFlood flood-opacity="0" result="BackgroundImageFix"/>
<feBlend mode="normal" in="SourceGraphic" in2="BackgroundImageFix" result="shape"/>
<feGaussianBlur stdDeviation="1" result="effect1_foregroundBlur"/>
</filter>
<filter id="filter1_f" x="131.336" y="117.771" width="20.8465" height="7.4137" filterUnits="userSpaceOnUse" color-interpolation-filters="sRGB">
<feFlood flood-opacity="0" result="BackgroundImageFix"/>
<feBlend mode="normal" in="SourceGraphic" in2="BackgroundImageFix" result="shape"/>
<feGaussianBlur stdDeviation="1" result="effect1_foregroundBlur"/>
</filter>
<filter id="filter2_f" x="183.624" y="117.771" width="20.8465" height="7.4137" filterUnits="userSpaceOnUse" color-interpolation-filters="sRGB">
<feFlood flood-opacity="0" result="BackgroundImageFix"/>
<feBlend mode="normal" in="SourceGraphic" in2="BackgroundImageFix" result="shape"/>
<feGaussianBlur stdDeviation="1" result="effect1_foregroundBlur"/>
</filter>
<filter id="filter3_f" x="157.48" y="117.771" width="20.8465" height="7.4137" filterUnits="userSpaceOnUse" color-interpolation-filters="sRGB">
<feFlood flood-opacity="0" result="BackgroundImageFix"/>
<feBlend mode="normal" in="SourceGraphic" in2="BackgroundImageFix" result="shape"/>
<feGaussianBlur stdDeviation="1" result="effect1_foregroundBlur"/>
</filter>
<linearGradient id="paint0_linear" x1="221" y1="-1.28364e-05" x2="-12.9975" y2="120.063" gradientUnits="userSpaceOnUse">
<stop stop-color="#00A1FF"/>
<stop offset="1" stop-color="#0081CC"/>
</linearGradient>
<clipPath id="clip0">
<rect width="221" height="145.395" fill="white"/>
</clipPath>
</defs>
</svg>
