<svg width="976" height="254" viewBox="0 0 976 254" fill="none" xmlns="http://www.w3.org/2000/svg">
<rect width="976" height="254" rx="16" fill="#5D748A"/>
<mask id="mask0" mask-type="alpha" maskUnits="userSpaceOnUse" x="0" y="0" width="976" height="254">
<rect width="976" height="254" rx="16" fill="url(#paint0_linear)"/>
</mask>
<g mask="url(#mask0)">
<path d="M572.539 64.1719C619.277 -8.86173 676.856 -17.7856 699.803 -13.1183L1168.67 -26V277H334.756C439.693 247.316 514.117 155.464 572.539 64.1719Z" fill="#566B80"/>
<path fill-rule="evenodd" clip-rule="evenodd" d="M584.298 180.246C585.033 180.378 585.474 182.982 585.666 184.496C586.019 185.15 586.286 185.847 586.46 186.57C586.492 186.775 586.492 186.983 586.46 187.188C591.638 189.185 596.932 190.864 602.314 192.218C607.938 193.635 613.815 193.721 619.478 192.468C621.816 193.012 621.11 200.101 620.169 200.292C617.448 200.954 608.786 200.469 600.549 197.483C594.985 195.439 589.659 192.795 584.665 189.6C584.446 189.63 584.223 189.63 584.004 189.6C582.61 189.33 581.249 188.91 579.944 188.35C576.576 188.203 575.532 188.011 575.532 187.6C575.4 186.776 577.753 187.158 579.386 187.011C579.739 187.011 579.768 186.791 579.636 186.732C578.018 185.688 574.635 184.776 575.032 183.952C575.753 183.026 580.077 185.732 580.018 185.173C580.489 184.908 575.106 181.908 575.782 180.908C576.459 179.908 581.283 184.717 581.562 184.276C581.842 183.835 578.533 180.143 579.386 179.761C580.239 179.378 581.695 182.143 583.121 183.717C583.195 183.717 583.518 184.349 584.018 184.143C583.768 182.452 583.724 180.114 584.386 180.217L584.298 180.246Z" fill="#FBD6A0"/>
<path fill-rule="evenodd" clip-rule="evenodd" d="M584.666 189.6C589.687 192.801 595.043 195.444 600.638 197.483C605.66 199.285 610.926 200.316 616.257 200.542C617.007 200.542 617.728 200.542 618.301 200.542C617.184 195.747 616.639 193.012 616.639 193.012L616.463 194.688C616.433 196.033 616.616 197.373 617.007 198.659C616.39 198.691 615.771 198.691 615.154 198.659C610.946 198.541 606.769 197.914 602.711 196.792C596.929 195.221 591.388 192.87 586.239 189.806C586.019 189.541 586.239 188.57 586.239 188.57C585.405 188.82 584.534 188.919 583.665 188.864C582.614 188.805 581.599 188.465 580.724 187.879C579.904 187.907 579.083 187.873 578.268 187.776C577.459 187.688 576.4 187.585 575.518 187.467C575.503 187.51 575.503 187.557 575.518 187.6C575.518 188.011 576.621 188.203 579.93 188.35C581.234 188.91 582.595 189.329 583.989 189.6C584.213 189.631 584.441 189.631 584.666 189.6Z" fill="#F5CA8C"/>
<path fill-rule="evenodd" clip-rule="evenodd" d="M612.609 165.377C614.61 189.026 628.052 207.205 617.757 227.677C675.792 223.721 669.821 149.728 655.29 137.256C647.201 130.329 638.744 130.756 632.553 132.359C617.919 136.124 610.536 141.801 612.609 165.377Z" fill="#763A20"/>
<path fill-rule="evenodd" clip-rule="evenodd" d="M896.683 108.547L901.904 130.888L909.11 175.142C909.11 175.142 913.655 187.497 913.655 188.82C912.967 191.973 911.689 194.967 909.89 197.645C908.61 198.924 906.728 200.704 905.963 199.689C905.198 198.674 907.728 196.292 907.772 195.703C907.816 195.115 908.507 192.6 908.596 192.115C908.326 190.532 907.968 188.966 907.522 187.423C906.551 186.217 905.742 185.791 904.845 187.35C904.845 187.35 903.83 193.115 902.654 193.232C901.477 193.35 902.095 186.805 902.507 184.57C902.918 182.334 903.477 181.275 903.477 180.864C903.477 180.452 903.389 178.407 903.33 176.701L891.373 132.064L885.49 111.474L896.683 108.547Z" fill="#FBD6A0"/>
<path fill-rule="evenodd" clip-rule="evenodd" d="M902.463 193.071C901.566 192.424 902.125 186.57 902.463 184.467C902.801 182.364 903.433 181.172 903.433 180.761C903.433 180.349 903.345 178.305 903.286 176.598L891.329 131.962L887.991 120.431L896.918 119.622L892.506 124.711L905.86 176.187C905.86 176.187 903.845 182.584 902.919 186.879C902.516 188.917 902.363 190.996 902.463 193.071Z" fill="#E8BD80"/>
<path fill-rule="evenodd" clip-rule="evenodd" d="M771.817 178.055C774.038 204.954 765.36 241.605 765.36 241.605C762.845 246.738 762.64 271.02 760.375 296.17C757.897 296.688 755.376 296.969 752.844 297.008C752.227 286.242 747.388 259.666 750.168 241.12C749.447 236.502 748.403 180.04 748.403 180.04L771.817 178.055Z" fill="#FBD6A0"/>
<path fill-rule="evenodd" clip-rule="evenodd" d="M772.994 41.2317C783.671 65.2489 766.934 111.254 761.801 109.386L748.947 104.723L750.418 54.233L772.994 41.2317Z" fill="#763A20"/>
<path fill-rule="evenodd" clip-rule="evenodd" d="M719.312 57.292C719.312 71.6023 721.429 88.1775 731.386 104.356L748.947 104.738L749.491 36.7017C743.505 40.7903 719.282 50.1442 719.312 57.292Z" fill="#763A20"/>
<path fill-rule="evenodd" clip-rule="evenodd" d="M735.872 179.143C734.578 180.805 726.886 174.628 726.886 174.628C722.915 186.967 727.224 215.529 727.651 240.237C727.651 240.237 728.166 293.096 729.121 295.669C731.328 295.669 736.578 295.802 736.578 295.802C738.417 277.594 742.549 261.328 742.079 241.178L749.535 177.113L735.872 179.143Z" fill="#FBD6A0"/>
<path fill-rule="evenodd" clip-rule="evenodd" d="M772.596 105.238C773.567 104.179 776.773 99.3555 776.773 99.3555L786.789 115.004C786.789 115.004 778.965 130.388 778.729 129.873C778.494 129.359 769.743 118.784 769.743 118.784L772.596 105.238Z" fill="#AE4283"/>
<path fill-rule="evenodd" clip-rule="evenodd" d="M725.136 165.862C719.826 180.805 722.709 190.644 726.415 239.855L767.037 239.075C773.288 211.676 776.258 186.997 772.096 168.892L725.136 165.862Z" fill="#231916" stroke="#231916" stroke-width="0.22" stroke-miterlimit="22.93"/>
<path fill-rule="evenodd" clip-rule="evenodd" d="M752.477 96.811C747.461 96.914 735.872 97.4288 735.872 97.4288L721.165 99.1054C721.826 115.151 720.679 114.578 727.312 135.653C730.651 152.155 722.518 153.729 721.9 173.892C736.166 175.79 753.285 177.878 774.096 174.554C775.097 156.023 768.39 153.611 771.155 135.344C772.935 123.578 776.714 99.3554 776.714 99.3554L765.081 97.4288L752.477 96.811Z" fill="#AE4283"/>
<path fill-rule="evenodd" clip-rule="evenodd" d="M744.976 85.7363C745.476 94.9579 740.784 96.0315 735.843 97.5022C736.74 100.444 745.123 102.179 750.477 101.738C755.815 102.179 764.199 100.37 765.184 97.5022C760.242 96.1197 754.065 95.2079 754.58 86.0011L749.065 85.9275L744.976 85.7363Z" fill="#FBD6A0"/>
<path d="M749.491 88.5893C762.414 88.5893 772.891 76.9739 772.891 62.6455C772.891 48.3171 762.414 36.7017 749.491 36.7017C736.568 36.7017 726.092 48.3171 726.092 62.6455C726.092 76.9739 736.568 88.5893 749.491 88.5893Z" fill="#FBD6A0"/>
<path fill-rule="evenodd" clip-rule="evenodd" d="M740.564 63.8812C741.092 63.8754 741.607 63.7134 742.043 63.4158C742.479 63.1182 742.818 62.6981 743.016 62.2085C743.214 61.7189 743.263 61.1817 743.156 60.6644C743.05 60.1471 742.792 59.6729 742.417 59.3015C742.041 58.9301 741.564 58.6781 741.046 58.5772C740.527 58.4762 739.991 58.5309 739.503 58.7344C739.016 58.9378 738.6 59.2809 738.307 59.7204C738.014 60.1599 737.858 60.6763 737.858 61.2044C737.86 61.5579 737.931 61.9075 738.068 62.2333C738.205 62.5591 738.405 62.8547 738.656 63.1033C738.908 63.3518 739.205 63.5485 739.533 63.6819C739.86 63.8154 740.21 63.8831 740.564 63.8812Z" fill="#3E3A39"/>
<path fill-rule="evenodd" clip-rule="evenodd" d="M739.329 61.116C739.491 61.116 739.651 61.0677 739.786 60.9772C739.922 60.8867 740.027 60.758 740.089 60.6076C740.152 60.4571 740.168 60.2915 740.136 60.1317C740.105 59.9719 740.026 59.8252 739.911 59.71C739.796 59.5948 739.649 59.5164 739.489 59.4846C739.329 59.4528 739.164 59.4691 739.013 59.5314C738.863 59.5938 738.734 59.6993 738.644 59.8348C738.553 59.9702 738.505 60.1295 738.505 60.2924C738.505 60.5108 738.592 60.7203 738.746 60.8747C738.901 61.0292 739.11 61.116 739.329 61.116Z" fill="#EEEEEF"/>
<path fill-rule="evenodd" clip-rule="evenodd" d="M743.093 57.1008C740.803 56.7149 738.459 56.7849 736.196 57.3067C733.74 58.1009 732.607 56.8949 735.725 55.6595C738.09 54.8408 740.635 54.6932 743.079 55.233C744.52 55.6448 744.579 57.4538 743.093 57.1008Z" fill="#763A20"/>
<path fill-rule="evenodd" clip-rule="evenodd" d="M742.799 75.8235C742.946 78.9709 746.285 81.5005 750.388 81.5005C754.492 81.5005 757.845 78.9709 757.992 75.8235H742.799Z" fill="#4F2211"/>
<path fill-rule="evenodd" clip-rule="evenodd" d="M744.329 75.8235H756.462V77.2942C756.462 77.4464 756.402 77.5922 756.294 77.6998C756.187 77.8074 756.041 77.8678 755.889 77.8678H744.976C744.9 77.8698 744.825 77.8564 744.754 77.8283C744.684 77.8002 744.62 77.758 744.566 77.7043C744.512 77.6507 744.47 77.5866 744.442 77.5161C744.414 77.4456 744.4 77.3701 744.402 77.2942L744.329 75.8235Z" fill="white"/>
<path fill-rule="evenodd" clip-rule="evenodd" d="M747.344 69.9404C747.344 70.9111 748.668 71.6759 750.212 71.6759C751.756 71.6759 753.036 70.9111 753.153 69.9404H747.344Z" fill="#DF9C72"/>
<path fill-rule="evenodd" clip-rule="evenodd" d="M756.301 31.8776C740.887 45.2908 730.548 67.4695 720.268 72.4406C707.987 41.9963 731.96 21.3177 756.301 31.8776Z" fill="#763A20"/>
<path fill-rule="evenodd" clip-rule="evenodd" d="M738.681 42.217C731.166 52.6299 725.312 54.1594 728.386 88.3247C716.62 71.2641 716.091 49.306 740.402 37.7754L738.681 42.217Z" fill="#763A20"/>
<path fill-rule="evenodd" clip-rule="evenodd" d="M744.388 31.8776C722.165 51.5708 766.728 42.2904 775.273 60.4982C778.171 50.9237 774.494 24.568 744.388 31.8776Z" fill="#763A20"/>
<path fill-rule="evenodd" clip-rule="evenodd" d="M781.068 105.738C778.95 103.782 768.817 111.504 772.405 118.975C775.994 126.446 787.113 148.228 792.172 153.64C802.335 164.793 813.528 174.962 825.602 184.011L826.528 178.422C826.528 178.422 800.32 146.948 799.717 145.801C795.849 138.374 783.48 108.724 781.068 105.738Z" fill="#FBD6A0"/>
<path fill-rule="evenodd" clip-rule="evenodd" d="M759.801 64.0577C760.329 64.0519 760.844 63.89 761.28 63.5923C761.716 63.2947 762.055 62.8746 762.253 62.3851C762.451 61.8955 762.5 61.3582 762.393 60.8409C762.287 60.3236 762.029 59.8494 761.654 59.478C761.278 59.1066 760.801 58.8546 760.283 58.7537C759.765 58.6527 759.228 58.7074 758.74 58.9109C758.253 59.1143 757.837 59.4574 757.544 59.8969C757.251 60.3364 757.095 60.8528 757.095 61.3809C757.097 61.7344 757.168 62.084 757.305 62.4098C757.442 62.7356 757.642 63.0312 757.893 63.2798C758.145 63.5283 758.442 63.725 758.77 63.8584C759.097 63.9919 759.447 64.0596 759.801 64.0577Z" fill="#3E3A39"/>
<path fill-rule="evenodd" clip-rule="evenodd" d="M758.551 61.2631C758.713 61.2602 758.871 61.2094 759.004 61.1172C759.138 61.0249 759.241 60.8953 759.301 60.7446C759.361 60.5938 759.375 60.4287 759.342 60.2699C759.309 60.1112 759.229 59.9658 759.113 59.8521C758.997 59.7384 758.851 59.6614 758.691 59.6308C758.532 59.6001 758.367 59.6173 758.218 59.68C758.068 59.7428 757.94 59.8483 757.85 59.9834C757.76 60.1185 757.712 60.2772 757.712 60.4395C757.712 60.5489 757.734 60.6572 757.776 60.7581C757.819 60.859 757.881 60.9504 757.959 61.0271C758.037 61.1038 758.129 61.1641 758.231 61.2046C758.333 61.2452 758.441 61.265 758.551 61.2631Z" fill="#EEEEEF"/>
<path fill-rule="evenodd" clip-rule="evenodd" d="M755.874 56.7037C758.518 56.2085 761.234 56.2535 763.86 56.8361C766.728 57.7332 768.022 56.3213 764.39 54.9241C761.654 54.0264 758.726 53.8892 755.918 54.527C754.212 55.0565 754.153 57.1449 755.874 56.7037Z" fill="#763A20"/>
<path fill-rule="evenodd" clip-rule="evenodd" d="M771.361 82.5006C777.391 69.4699 780.097 40.2316 759.301 33.1279C761.242 38.702 771.964 43.4672 771.361 82.5006Z" fill="#763A20"/>
<path fill-rule="evenodd" clip-rule="evenodd" d="M823.616 107.827L818.41 130.167L810.336 175.025L816.513 177.598L828.941 131.241L834.868 110.68L823.616 107.827Z" fill="#FBD6A0"/>
<path fill-rule="evenodd" clip-rule="evenodd" d="M818.792 169.098L828.926 131.241L831.75 121.519L825.455 120.166L827.028 123.108C826.014 127.064 816.16 165.936 816.16 165.936L818.792 169.098Z" fill="#E8BD80"/>
<path fill-rule="evenodd" clip-rule="evenodd" d="M836.471 172.113C835.618 175.937 836.206 218.956 836.588 225.324C836.897 230.428 837.647 266.27 837.441 281.33C837.441 281.33 835.706 292.449 835.735 292.449L851.178 295.743C852.546 263.696 857.635 190.365 857.84 192.071C858.046 193.777 864.974 228.501 865.194 230.634C865.415 232.766 871.195 295.758 871.195 295.758C871.195 295.758 887.005 293.581 886.932 292.522C886.932 292.272 883.99 281.609 883.99 281.609C882.887 265.784 882.122 232.163 882.137 230.31C882.137 227.913 881.813 169.23 881.813 169.23L857.62 173.54L836.471 172.113Z" fill="#231916"/>
<path fill-rule="evenodd" clip-rule="evenodd" d="M845.78 83.7951L832.749 86.4865C830.837 85.9571 828.264 88.0602 828.264 88.0602L819.116 118.799L832.441 121.74L833.911 116.96C835.336 137.941 835.665 158.981 834.897 179.996C843.633 184.144 873.901 182.452 881.857 179.202C882.99 152.552 884.372 131.388 885.681 115.107L888.52 124.608L900.021 117.946L892.05 88.7809C890.905 87.825 889.492 87.2493 888.005 87.1337C883.505 85.8835 878.666 84.1922 874.768 83.3686C865.253 81.133 857.752 81.3095 845.78 83.7951Z" fill="#57B44B"/>
<path fill-rule="evenodd" clip-rule="evenodd" d="M853.016 72.5879C853.531 82.0742 850.325 83.089 845.236 84.5303C846.163 87.4718 854.796 89.3396 860.296 88.9425C865.797 89.3984 874.416 87.4718 875.357 84.5303C870.268 83.0595 866.679 82.0742 867.209 72.5879L860.296 72.8085L853.016 72.5879Z" fill="#F1BD83"/>
<path fill-rule="evenodd" clip-rule="evenodd" d="M764.64 112.445C767.092 112.445 769.489 113.172 771.528 114.534C773.567 115.897 775.156 117.833 776.094 120.099C777.033 122.364 777.278 124.857 776.8 127.262C776.321 129.667 775.141 131.876 773.407 133.61C771.673 135.344 769.464 136.525 767.059 137.003C764.654 137.482 762.161 137.236 759.895 136.298C757.63 135.359 755.693 133.77 754.331 131.731C752.969 129.692 752.241 127.295 752.241 124.843C752.24 123.214 752.559 121.601 753.181 120.096C753.804 118.591 754.717 117.224 755.869 116.072C757.02 114.92 758.388 114.007 759.893 113.385C761.398 112.762 763.011 112.443 764.64 112.445Z" fill="#AE4283"/>
<path fill-rule="evenodd" clip-rule="evenodd" d="M717.517 104.503C721.768 99.0318 731.931 106.959 728.342 114.416C724.753 121.872 711.355 138.168 708.943 145.11C707.119 150.405 704.295 173.054 701.78 183.349C698.707 184.82 694.53 181.54 694.206 179.672C694.206 179.672 698.456 149.346 700.618 142.904C703.266 134.991 710.87 113.666 717.517 104.503Z" fill="#FBD6A0"/>
<path fill-rule="evenodd" clip-rule="evenodd" d="M689.22 194.586C685.705 197.174 681.602 199.336 676.807 202.528C671.483 193.365 665.674 190.041 665.674 190.041C662.968 189.541 657.908 193.674 658.791 194.321C661.364 196.262 670.557 207.411 675.954 208.925C682.028 208.131 689.809 200.822 692.941 197.571C692.103 196.13 690.176 196.233 689.22 194.586Z" fill="#FBD6A0"/>
<path fill-rule="evenodd" clip-rule="evenodd" d="M690.206 183.761C689.279 184.173 689.5 193.144 688.941 195.218C690.706 195.924 691.191 197.204 692.735 197.821C694.206 196.012 697.148 194.88 697.912 192.424C700.501 191.718 702.736 190.865 702.325 189.982C701.913 189.1 699.28 190.644 697.427 190.938C697.104 190.085 702.839 186.644 701.663 185.688C700.927 185.099 697.471 188.188 696.28 188.732C696.103 188.364 700.883 182.981 699.913 182.54C698.942 182.099 695.824 186.232 694.677 187.585C694.868 185.599 695.971 181.893 695.177 181.923C694.383 181.952 693.118 185.452 692.618 187.291C692.618 187.379 692.132 189.262 691.515 189.188C691.324 187.232 690.941 183.452 690.235 183.746L690.206 183.761Z" fill="url(#paint1_linear)"/>
<path fill-rule="evenodd" clip-rule="evenodd" d="M794.849 251.474C794.216 256.827 791.451 289.992 792.363 290.183C793.275 290.375 801.864 291.566 801.864 291.566C801.864 291.566 807.571 267.24 808.027 269.902C808.482 272.564 812.086 291.022 812.733 291.389C813.38 291.757 822.028 291.566 822.028 290.728C822.028 289.889 820.19 254.886 820.19 254.886L794.849 251.474Z" fill="#2E2E35"/>
<path fill-rule="evenodd" clip-rule="evenodd" d="M793.201 216.014C790.613 214.632 777.744 211.117 777.744 211.117C777.303 209.47 771.184 203.41 767.449 200.174C767.915 198.751 768.139 197.26 768.11 195.762C768.258 193.027 768.699 190.879 768.11 190.541C767.522 190.203 765.993 194.497 765.993 194.497C765.993 194.497 764.404 187.261 763.154 187.144C761.904 187.026 764.375 194.497 764.198 194.174C764.022 193.85 759.933 187.35 759.301 188.026C758.668 188.703 761.772 194.586 761.683 194.909C761.595 195.233 756.403 189.159 755.889 190.365C755.374 191.571 760.389 195.998 760.007 196.248C759.624 196.498 755.227 192.938 754.756 193.777C754.286 194.615 759.315 198.424 759.315 198.424C760.433 200.057 761.742 201.704 763.625 202.042C766.257 205.822 771.876 213.617 774.832 215.75C778.803 218.603 787.715 223.103 788.068 222.353C788.421 221.603 793.201 216.014 793.201 216.014Z" fill="#FBD6A0"/>
<path fill-rule="evenodd" clip-rule="evenodd" d="M820.572 214.573C823.16 213.19 836.029 209.675 836.029 209.675C836.47 208.043 842.589 201.969 846.324 198.733C845.856 197.31 845.632 195.818 845.663 194.321C845.516 191.585 845.074 189.423 845.663 189.1C846.251 188.776 847.78 193.041 847.78 193.041C847.78 193.041 849.369 185.805 850.619 185.688C851.869 185.57 849.398 193.041 849.575 192.732C849.751 192.424 853.84 185.908 854.472 186.57C855.105 187.232 852.001 193.144 852.104 193.453C852.207 193.762 857.37 187.702 857.884 188.908C858.399 190.114 853.384 194.541 853.766 194.791C854.149 195.041 858.546 191.497 859.017 192.335C859.488 193.174 854.458 196.983 854.458 196.983C853.34 198.601 852.031 200.263 850.148 200.586C847.516 204.366 841.897 212.161 838.941 214.293C834.97 217.235 826.058 221.647 825.705 220.897C825.352 220.147 820.572 214.573 820.572 214.573Z" fill="#FBD6A0"/>
<path fill-rule="evenodd" clip-rule="evenodd" d="M830.588 217.014C833.569 215.849 836.318 214.16 838.706 212.028C839.662 211.108 840.557 210.126 841.383 209.087L842.854 207.234C845.663 203.66 848.531 199.63 848.531 199.63C849.411 199.748 850.304 199.544 851.046 199.057C852.137 198.34 853.057 197.391 853.737 196.277L859.032 192.321V192.6C858.649 193.791 854.458 197.012 854.458 197.012C853.34 198.63 852.031 200.292 850.149 200.616C848.516 202.969 845.736 206.851 843.148 209.984C842.662 210.572 842.177 211.146 841.677 211.675C840.839 212.641 839.913 213.527 838.912 214.323C836.014 216.294 832.965 218.035 829.793 219.529L828.543 215.352C828.518 215.173 828.463 214.999 828.382 214.838C828.382 214.838 829.999 217.014 830.588 217.014Z" fill="#F6C987"/>
<path fill-rule="evenodd" clip-rule="evenodd" d="M800.202 216.602L786.157 213.44L783.362 222.691L792.304 228.81L791.937 259.401L822.16 258.298C822.16 258.298 818.013 228.354 819.307 227.986C820.601 227.618 830.779 221.529 830.779 221.529L827.97 211.764L813.821 216.338L800.202 216.602Z" fill="#B9A13E"/>
<path fill-rule="evenodd" clip-rule="evenodd" d="M804.453 211.47C804.453 211.47 804.07 215.882 803.702 215.882C803.335 215.882 799.29 216.382 799.29 216.382C799.29 216.382 800.555 222.147 806.262 222.147C811.968 222.147 814.233 216.485 814.233 216.485L810.13 216.117L809.762 212.249L804.453 211.47Z" fill="#FBD6A0"/>
<path fill-rule="evenodd" clip-rule="evenodd" d="M633.906 241.34C633.538 246.061 631.347 262.622 630.964 264.446C630.435 267.093 623.155 301.111 624.405 304.023C624.537 304.347 627.464 303.861 627.464 303.861C627.464 303.861 641.877 256.989 642.245 255.709C642.613 254.43 642.789 244.605 640.965 243.517C638.696 242.543 636.33 241.813 633.906 241.34Z" fill="#FBD6A0"/>
<path fill-rule="evenodd" clip-rule="evenodd" d="M654.82 244.826C654.82 247.194 658.923 264.269 662.012 277.55C665.1 290.831 667.012 302.92 668.101 302.92C669.337 303.086 670.551 303.392 671.719 303.832L665.836 245.194L654.82 244.826Z" fill="#FBD6A0"/>
<path fill-rule="evenodd" clip-rule="evenodd" d="M631.391 229.089C632.788 242.326 625.17 256.71 626.067 257.195C643.333 266.578 658.423 258.666 674.292 255.224C673.748 254.327 665.144 236.105 663.835 225.059L631.391 229.089Z" fill="#EC7477"/>
<path fill-rule="evenodd" clip-rule="evenodd" d="M631.567 232.619C631.567 244.782 625.243 256.754 626.067 257.195C633.115 261.043 641.237 262.46 649.172 261.225C644.142 258.651 635.406 254.606 634.715 253.989C633.715 253.062 634.347 244.399 634.347 243.296C634.347 242.193 635.465 243.105 644.392 242.002C653.319 240.899 664.424 234.648 664.424 234.648C664.424 234.648 657.849 234.045 656.555 233.854L631.729 232.207L631.567 232.619Z" fill="#EB6B70"/>
<path fill-rule="evenodd" clip-rule="evenodd" d="M664.086 200.513C663.556 210.278 664.277 220.044 667.248 233.928C661.089 235.715 654.768 236.888 648.378 237.428C638.554 238.164 629.45 238.384 629.45 238.384C629.45 238.384 630.7 228.677 628.376 209.808C627.979 206.572 627.611 203.925 627.288 201.763C623.536 201.983 619.774 201.983 616.022 201.763L614.845 192.747C625.567 190.188 635.98 187.467 639.024 186.32C649.628 185.011 652.055 184.261 663.424 186.673C667.101 189.497 670.116 192.35 675.293 199.395L668.88 205.278C668.88 205.278 665.556 201.954 664.086 200.513Z" fill="#796BAE"/>
<path fill-rule="evenodd" clip-rule="evenodd" d="M636.583 179.378C638.2 187.158 635.994 186.732 632.17 188.659C638.995 196.895 651.658 192.953 652.908 185.452C645.554 185.452 647.893 184.879 645.084 177.54L636.583 179.378Z" fill="#F6CB8A"/>
<path fill-rule="evenodd" clip-rule="evenodd" d="M635.685 137.388C624.037 138.712 615.786 150.272 617.272 163.185C618.757 176.098 629.361 182.952 641.01 181.614C652.658 180.275 660.938 171.318 659.453 158.376C657.967 145.433 647.348 136.124 635.685 137.388Z" fill="#FBD6A0"/>
<path fill-rule="evenodd" clip-rule="evenodd" d="M659.673 151.669C657.496 150.905 649.157 151.434 640.348 152.787L635.524 148.169C635.524 148.478 636.994 151.111 638.156 153.125C634.048 153.799 629.979 154.687 625.964 155.787L624.17 152.39L625.111 156.037C620.375 157.508 616.904 159.082 616.286 160.817C615.439 155.823 615.439 150.722 616.286 145.728C619.198 130.873 655.82 122.725 659.673 151.669Z" fill="#763A20"/>
<path fill-rule="evenodd" clip-rule="evenodd" d="M694.971 175.113C693.588 181.378 693.338 180.555 690.823 184.688C688.309 188.82 688.706 194.527 688.882 196.218C689.22 199.263 692.28 201.425 694.927 200.086C697.118 198.983 699.089 195.13 699.898 194.203C699.898 194.203 700.354 197.601 701.648 195.395C702.942 193.188 702.383 180.687 702.383 180.687L694.971 175.113Z" fill="#FBD6A0"/>
<path fill-rule="evenodd" clip-rule="evenodd" d="M715.855 135.006C712.8 132.043 708.998 129.964 704.854 128.991C705.119 126.049 712.737 97.7963 724.459 98.7376C725.577 98.8258 731.43 104.135 730.592 111.974C729.519 121.74 715.855 135.006 715.855 135.006Z" fill="#AE4283"/>
<path fill-rule="evenodd" clip-rule="evenodd" d="M780.833 136.124C785.701 131.079 792.451 129.594 792.422 129.388C792.157 126.446 785.348 98.0463 773.626 98.9729C772.508 99.0611 766.655 104.37 767.493 112.21C768.508 121.931 780.833 136.124 780.833 136.124Z" fill="#AE4283"/>
<path fill-rule="evenodd" clip-rule="evenodd" d="M735.328 113.724C737.779 113.727 740.175 114.457 742.212 115.821C744.249 117.185 745.836 119.123 746.772 121.388C747.708 123.654 747.951 126.146 747.471 128.55C746.991 130.955 745.809 133.162 744.075 134.895C742.34 136.627 740.131 137.807 737.727 138.284C735.322 138.761 732.83 138.515 730.565 137.576C728.3 136.637 726.365 135.048 725.003 133.009C723.642 130.971 722.915 128.574 722.915 126.123C722.915 124.493 723.236 122.88 723.86 121.375C724.484 119.869 725.399 118.502 726.551 117.351C727.704 116.199 729.073 115.286 730.579 114.664C732.085 114.042 733.698 113.722 735.328 113.724Z" fill="#AE4283"/>
<path fill-rule="evenodd" clip-rule="evenodd" d="M790.275 200.66C791.161 200.749 792.053 200.567 792.834 200.14C793.615 199.712 794.249 199.058 794.651 198.264C795.054 197.47 795.207 196.572 795.09 195.689C794.973 194.807 794.591 193.98 793.995 193.318C793.4 192.656 792.618 192.19 791.752 191.981C790.886 191.772 789.978 191.829 789.145 192.146C788.313 192.463 787.596 193.025 787.089 193.757C786.582 194.489 786.308 195.357 786.304 196.247C786.248 197.358 786.634 198.447 787.378 199.273C788.122 200.1 789.164 200.599 790.275 200.66Z" fill="#FBD6A0"/>
<path fill-rule="evenodd" clip-rule="evenodd" d="M789.26 193.865C790.128 193.865 790.937 195.056 791.069 196.542C791.201 198.027 790.598 199.218 789.731 199.218C788.863 199.218 788.054 198.012 787.922 196.542C787.789 195.071 788.392 193.865 789.26 193.865Z" fill="#EDA46C"/>
<path fill-rule="evenodd" clip-rule="evenodd" d="M824.793 200.66C825.679 200.749 826.571 200.567 827.353 200.14C828.134 199.712 828.767 199.058 829.17 198.264C829.572 197.47 829.725 196.572 829.608 195.689C829.491 194.807 829.109 193.98 828.514 193.318C827.918 192.656 827.136 192.19 826.27 191.981C825.405 191.772 824.496 191.829 823.664 192.146C822.832 192.463 822.115 193.025 821.607 193.757C821.1 194.489 820.826 195.357 820.822 196.247C820.766 197.358 821.152 198.447 821.896 199.273C822.641 200.1 823.682 200.599 824.793 200.66Z" fill="#FBD6A0"/>
<path fill-rule="evenodd" clip-rule="evenodd" d="M825.867 193.865C824.999 193.865 824.175 195.056 824.043 196.542C823.911 198.027 824.514 199.218 825.381 199.218C826.249 199.218 827.073 198.012 827.205 196.542C827.337 195.071 826.69 193.865 825.867 193.865Z" fill="#EDA46C"/>
<path fill-rule="evenodd" clip-rule="evenodd" d="M789.363 198.527C788.995 198.292 785.127 192.262 788.275 184.084C791.422 175.907 798.349 179.422 798.349 179.422L797.099 183.187C796.526 184.246 789.745 198.762 789.363 198.527Z" fill="#A95C40"/>
<path d="M807.526 214.088C817.631 214.088 825.822 206.12 825.822 196.292C825.822 186.463 817.631 178.496 807.526 178.496C797.422 178.496 789.23 186.463 789.23 196.292C789.23 206.12 797.422 214.088 807.526 214.088Z" fill="#FBD6A0"/>
<path fill-rule="evenodd" clip-rule="evenodd" d="M815.777 193.483C816.19 193.495 816.597 193.592 816.971 193.766C817.346 193.941 817.681 194.19 817.956 194.498C818.231 194.806 818.441 195.167 818.572 195.559C818.703 195.951 818.753 196.365 818.719 196.777C818.541 197.592 818.059 198.309 817.369 198.779C816.68 199.25 815.837 199.439 815.013 199.307C814.607 199.283 814.21 199.178 813.845 198.998C813.48 198.819 813.154 198.568 812.887 198.262C812.62 197.955 812.417 197.598 812.289 197.212C812.162 196.825 812.113 196.418 812.145 196.012C812.316 195.208 812.786 194.499 813.461 194.029C814.136 193.559 814.964 193.364 815.777 193.483Z" fill="white"/>
<path fill-rule="evenodd" clip-rule="evenodd" d="M799.511 193.262C799.915 193.292 800.308 193.401 800.669 193.584C801.03 193.767 801.351 194.019 801.614 194.327C801.876 194.635 802.075 194.992 802.199 195.377C802.323 195.762 802.369 196.168 802.335 196.571C802.161 197.388 801.678 198.107 800.988 198.578C800.298 199.049 799.453 199.236 798.629 199.101C798.223 199.077 797.826 198.972 797.461 198.792C797.096 198.613 796.77 198.362 796.503 198.056C796.236 197.749 796.033 197.392 795.905 197.006C795.778 196.62 795.729 196.212 795.761 195.806C795.935 194.979 796.423 194.252 797.123 193.777C797.822 193.303 798.678 193.118 799.511 193.262Z" fill="white"/>
<path fill-rule="evenodd" clip-rule="evenodd" d="M825.337 199.218C828.808 191.482 829.279 188.203 824.131 182.011C820.513 171.569 805.541 175.084 807.262 168.112C798.643 169.436 791.628 178.525 792.216 183.835C792.599 187.217 799.938 189.085 811.424 187.6C819.322 186.585 821.013 186.129 821.013 186.129C826.367 192.012 824.69 192.115 825.337 199.218Z" fill="#A95C40"/>
<path fill-rule="evenodd" clip-rule="evenodd" d="M815.571 198.027C815.937 197.976 816.281 197.821 816.562 197.581C816.842 197.34 817.047 197.024 817.153 196.669C817.259 196.315 817.26 195.938 817.157 195.583C817.054 195.228 816.852 194.91 816.573 194.667C816.295 194.424 815.952 194.266 815.587 194.213C815.221 194.159 814.847 194.212 814.511 194.364C814.174 194.517 813.889 194.763 813.688 195.074C813.488 195.384 813.381 195.746 813.38 196.115C813.421 196.658 813.674 197.162 814.084 197.52C814.494 197.877 815.028 198.06 815.571 198.027Z" fill="#3E3A39"/>
<path fill-rule="evenodd" clip-rule="evenodd" d="M814.557 196.042C814.643 196.055 814.731 196.05 814.814 196.026C814.898 196.003 814.976 195.961 815.042 195.904C815.108 195.848 815.162 195.778 815.198 195.698C815.235 195.619 815.253 195.533 815.253 195.446C815.253 195.359 815.235 195.273 815.198 195.194C815.162 195.115 815.108 195.044 815.042 194.988C814.976 194.931 814.898 194.889 814.814 194.866C814.731 194.842 814.643 194.837 814.557 194.85C814.47 194.837 814.382 194.842 814.299 194.866C814.215 194.889 814.137 194.931 814.071 194.988C814.005 195.044 813.951 195.115 813.915 195.194C813.878 195.273 813.86 195.359 813.86 195.446C813.86 195.533 813.878 195.619 813.915 195.698C813.951 195.778 814.005 195.848 814.071 195.904C814.137 195.961 814.215 196.003 814.299 196.026C814.382 196.05 814.47 196.055 814.557 196.042Z" fill="#EEEEEF"/>
<path fill-rule="evenodd" clip-rule="evenodd" d="M812.542 193.482C814.263 193.203 816.021 193.228 817.733 193.556C819.587 194.071 820.44 193.262 818.072 192.468C816.283 191.953 814.396 191.877 812.571 192.247C811.453 192.571 811.424 193.762 812.542 193.482Z" fill="#A95C40"/>
<path fill-rule="evenodd" clip-rule="evenodd" d="M799.158 197.718C799.518 197.668 799.856 197.514 800.132 197.277C800.407 197.039 800.609 196.728 800.712 196.379C800.816 196.03 800.817 195.659 800.715 195.31C800.613 194.96 800.414 194.648 800.139 194.409C799.865 194.17 799.528 194.015 799.168 193.962C798.808 193.91 798.44 193.962 798.109 194.112C797.778 194.262 797.497 194.505 797.299 194.811C797.102 195.116 796.997 195.472 796.996 195.836C797.034 196.372 797.283 196.871 797.688 197.224C798.093 197.577 798.622 197.755 799.158 197.718Z" fill="#3E3A39"/>
<path fill-rule="evenodd" clip-rule="evenodd" d="M798.158 195.748C798.239 195.754 798.321 195.743 798.398 195.718C798.475 195.692 798.547 195.652 798.608 195.598C798.67 195.545 798.72 195.48 798.756 195.407C798.793 195.334 798.814 195.255 798.82 195.174C798.808 195.009 798.733 194.855 798.609 194.745C798.485 194.635 798.323 194.578 798.158 194.586C797.991 194.577 797.827 194.634 797.701 194.744C797.575 194.853 797.496 195.007 797.481 195.174C797.496 195.339 797.576 195.492 797.702 195.599C797.829 195.707 797.993 195.76 798.158 195.748Z" fill="#EEEEEF"/>
<path fill-rule="evenodd" clip-rule="evenodd" d="M801.261 193.35C799.701 193.094 798.107 193.118 796.555 193.424C794.863 193.88 794.099 193.144 796.231 192.424C797.859 191.962 799.574 191.896 801.232 192.233C802.232 192.483 802.335 193.571 801.261 193.35Z" fill="#A95C40"/>
<path fill-rule="evenodd" clip-rule="evenodd" d="M801.702 205.249C801.805 207.763 804.32 209.778 807.409 209.778C810.497 209.778 812.998 207.763 813.115 205.249H801.702Z" fill="#4F2211"/>
<path fill-rule="evenodd" clip-rule="evenodd" d="M802.849 205.249H811.953V206.366C811.955 206.424 811.946 206.482 811.925 206.536C811.905 206.591 811.874 206.64 811.834 206.683C811.795 206.725 811.747 206.759 811.694 206.783C811.642 206.807 811.585 206.82 811.527 206.822H803.276C803.218 206.82 803.161 206.807 803.108 206.783C803.055 206.759 803.008 206.725 802.968 206.683C802.929 206.64 802.898 206.591 802.877 206.536C802.857 206.482 802.847 206.424 802.849 206.366V205.249Z" fill="white"/>
<path fill-rule="evenodd" clip-rule="evenodd" d="M804.688 201.616C804.688 202.278 805.997 202.807 807.527 202.807C809.056 202.807 810.306 202.278 810.35 201.616H804.688Z" fill="#DF9C72"/>
<path fill-rule="evenodd" clip-rule="evenodd" d="M818.366 182.79C819.338 183.844 820.224 184.976 821.013 186.173C821.013 186.173 821.646 187.129 816.439 188.923C811.233 190.718 809.203 190.071 809.659 189.982C810.512 189.561 811.329 189.069 812.1 188.512C809.118 189.183 806.081 189.586 803.026 189.718C798.746 189.806 796.952 189.159 797.731 189.115C798.609 188.961 799.461 188.684 800.261 188.291C799.761 188.423 798.423 189.438 795.113 188.012C791.804 186.585 790.363 183.32 791.01 183.599C793.94 183.545 796.863 183.299 799.761 182.864C802.055 182.511 818.366 182.79 818.366 182.79Z" fill="#A95C40"/>
<path fill-rule="evenodd" clip-rule="evenodd" d="M649.378 157.303C649.852 157.339 650.314 157.47 650.737 157.688C651.159 157.906 651.534 158.205 651.84 158.57C652.145 158.934 652.375 159.356 652.515 159.81C652.656 160.264 652.704 160.742 652.658 161.215C652.472 162.156 651.928 162.989 651.141 163.537C650.354 164.086 649.384 164.308 648.437 164.156C647.962 164.119 647.5 163.988 647.076 163.771C646.653 163.553 646.277 163.254 645.97 162.89C645.664 162.526 645.433 162.104 645.29 161.65C645.148 161.196 645.098 160.718 645.142 160.244C645.335 159.303 645.883 158.473 646.671 157.925C647.46 157.377 648.429 157.154 649.378 157.303Z" fill="white"/>
<path fill-rule="evenodd" clip-rule="evenodd" d="M629.817 160.715C630.291 160.75 630.752 160.879 631.175 161.095C631.597 161.311 631.973 161.609 632.278 161.973C632.584 162.336 632.814 162.756 632.954 163.21C633.095 163.663 633.143 164.14 633.097 164.612C632.908 165.555 632.361 166.387 631.571 166.936C630.782 167.484 629.811 167.705 628.861 167.554C628.388 167.519 627.926 167.389 627.504 167.173C627.081 166.957 626.706 166.659 626.4 166.296C626.095 165.933 625.865 165.512 625.724 165.059C625.584 164.605 625.535 164.129 625.582 163.656C625.771 162.714 626.318 161.881 627.107 161.333C627.897 160.784 628.868 160.563 629.817 160.715Z" fill="white"/>
<path fill-rule="evenodd" clip-rule="evenodd" d="M648.437 157.994C647.971 158.051 647.533 158.245 647.177 158.551C646.821 158.857 646.563 159.261 646.436 159.712C646.308 160.164 646.317 160.643 646.462 161.09C646.606 161.537 646.878 161.931 647.246 162.223C647.613 162.515 648.058 162.692 648.526 162.732C648.993 162.772 649.462 162.673 649.874 162.448C650.285 162.222 650.621 161.88 650.839 161.465C651.057 161.049 651.147 160.578 651.099 160.112C651.025 159.478 650.704 158.9 650.205 158.503C649.706 158.107 649.07 157.923 648.437 157.994Z" fill="#3E3A39"/>
<path fill-rule="evenodd" clip-rule="evenodd" d="M647.407 158.905C647.264 158.923 647.129 158.983 647.019 159.077C646.91 159.171 646.83 159.296 646.791 159.435C646.752 159.573 646.754 159.721 646.798 159.859C646.842 159.996 646.925 160.118 647.038 160.208C647.151 160.299 647.287 160.354 647.431 160.367C647.575 160.381 647.719 160.351 647.847 160.283C647.974 160.214 648.078 160.11 648.146 159.983C648.215 159.856 648.244 159.711 648.231 159.567C648.222 159.469 648.193 159.374 648.146 159.287C648.1 159.2 648.036 159.124 647.959 159.062C647.882 159 647.794 158.954 647.699 158.928C647.604 158.901 647.505 158.893 647.407 158.905Z" fill="#EEEEEF"/>
<path fill-rule="evenodd" clip-rule="evenodd" d="M629.052 161.626C628.596 161.692 628.169 161.891 627.824 162.197C627.479 162.504 627.232 162.905 627.114 163.351C626.996 163.797 627.011 164.268 627.158 164.705C627.305 165.142 627.577 165.527 627.941 165.811C628.305 166.094 628.744 166.265 629.204 166.301C629.663 166.337 630.124 166.238 630.528 166.014C630.931 165.791 631.26 165.454 631.474 165.045C631.688 164.636 631.776 164.173 631.729 163.715C631.695 163.4 631.598 163.095 631.444 162.819C631.289 162.542 631.081 162.3 630.832 162.105C630.582 161.91 630.296 161.768 629.991 161.685C629.685 161.603 629.366 161.583 629.052 161.626Z" fill="#3E3A39"/>
<path fill-rule="evenodd" clip-rule="evenodd" d="M628.038 162.597C627.941 162.606 627.847 162.635 627.761 162.68C627.675 162.726 627.6 162.788 627.538 162.863C627.477 162.939 627.43 163.025 627.403 163.118C627.375 163.212 627.366 163.309 627.376 163.406C627.391 163.55 627.449 163.687 627.541 163.799C627.634 163.91 627.757 163.992 627.897 164.034C628.036 164.075 628.184 164.075 628.323 164.032C628.461 163.99 628.584 163.907 628.676 163.795C628.768 163.682 628.825 163.545 628.839 163.401C628.853 163.257 628.824 163.111 628.756 162.983C628.688 162.855 628.583 162.75 628.455 162.681C628.327 162.613 628.182 162.583 628.038 162.597Z" fill="#EEEEEF"/>
<path fill-rule="evenodd" clip-rule="evenodd" d="M631.862 160.023C629.705 159.887 627.543 160.192 625.508 160.92C623.317 161.921 622.14 160.92 624.89 159.45C626.983 158.458 629.308 158.061 631.611 158.303C633.023 158.523 633.2 160.185 631.862 160.023Z" fill="#A95C40"/>
<path fill-rule="evenodd" clip-rule="evenodd" d="M635.436 172.892C635.772 174.218 636.59 175.372 637.729 176.129C638.869 176.886 640.249 177.192 641.602 176.989C642.954 176.785 644.183 176.086 645.05 175.028C645.916 173.969 646.358 172.626 646.29 171.26L635.436 172.892Z" fill="#4F2211"/>
<path fill-rule="evenodd" clip-rule="evenodd" d="M636.538 172.76L645.201 171.451L645.377 172.672C645.404 172.79 645.384 172.915 645.321 173.019C645.258 173.124 645.157 173.199 645.039 173.231L637.2 174.407C637.08 174.411 636.963 174.37 636.873 174.29C636.782 174.211 636.726 174.1 636.715 173.981L636.538 172.76Z" fill="white"/>
<path fill-rule="evenodd" clip-rule="evenodd" d="M636.7 166.524C636.862 167.348 638.289 167.862 639.965 167.686C641.642 167.509 642.907 166.7 642.907 165.862L636.7 166.524Z" fill="#DF9C72"/>
<path fill-rule="evenodd" clip-rule="evenodd" d="M644.701 156.832C646.743 156.116 648.911 155.826 651.069 155.979C653.437 156.347 654.305 155.067 651.26 154.39C648.978 154.008 646.635 154.252 644.48 155.096C643.186 155.699 643.392 157.361 644.701 156.832Z" fill="#A95C40"/>
<path fill-rule="evenodd" clip-rule="evenodd" d="M630.582 135.094C613.801 139.256 614.698 152.978 615.698 154.582C615.11 146.993 626.214 140.301 632.906 138.845C649.731 135.183 657.1 146.198 657.085 146.198C651.79 134.741 645.598 131.388 630.582 135.094Z" fill="#EF8200"/>
<path fill-rule="evenodd" clip-rule="evenodd" d="M628.332 209.808C630.656 228.677 629.405 238.384 629.405 238.384C629.405 238.384 630.479 238.384 632.273 238.296C635.715 238.178 641.877 237.914 648.334 237.428C653.574 236.994 658.769 236.123 663.865 234.825C665.953 234.31 667.203 233.928 667.203 233.928C664.698 223.358 663.615 212.502 663.983 201.645C663.983 201.263 663.983 200.88 663.983 200.513L664.291 200.807C665.924 202.351 668.704 205.219 668.704 205.219L669.277 204.69L672.042 202.307C672.042 202.307 668.439 199.822 665.468 197.733C663.556 196.38 661.909 195.189 661.688 194.939C661.468 194.689 661.453 195.498 661.497 196.939C661.571 198.924 661.762 202.101 661.791 205.293C661.791 205.837 661.791 206.381 661.791 206.91C661.703 212.896 664.924 231.913 664.924 231.913C664.924 231.913 664.115 231.913 662.703 231.84C660.747 231.84 657.658 231.839 654.084 232.06C652.512 232.201 650.95 232.442 649.408 232.781C642.98 234.09 634.7 236.546 632.832 235.34C631.156 234.266 629.891 215.823 629.376 204.66C629.126 199.748 628.994 196.248 628.994 196.248C628.994 196.248 627.655 199.983 624.714 199.616C624.052 199.527 623.243 199.366 622.346 199.174L620.875 198.836C619.728 198.542 618.566 198.218 617.61 197.954L616.669 197.674L615.345 197.277L615.536 198.748H615.345C615.345 199.277 615.345 199.91 615.345 200.557H615.772L615.919 201.748C615.919 201.748 620.125 202.013 624.126 201.939C625.184 201.939 626.229 201.939 627.185 201.792C627.317 202.66 627.449 203.601 627.596 204.631C627.861 206.131 628.082 207.866 628.332 209.808Z" fill="#7567AA"/>
<path fill-rule="evenodd" clip-rule="evenodd" d="M618.154 153.39C618.125 158.442 618.733 163.477 619.963 168.377C621.949 175.51 627.567 185.746 627.111 185.335C626.655 184.923 620.654 181.364 617.757 177.172C614.86 172.98 614.345 158.891 614.345 158.891L618.154 153.39Z" fill="#763A20"/>
<path fill-rule="evenodd" clip-rule="evenodd" d="M654.981 145.904C656.976 150.55 658.384 155.426 659.173 160.42C660.144 167.774 658.967 179.378 659.173 178.819C659.379 178.26 663.585 172.642 664.585 167.656C665.585 162.67 660.556 149.493 660.556 149.493L654.981 145.904Z" fill="#763A20"/>
<path fill-rule="evenodd" clip-rule="evenodd" d="M702.325 180.717C704.678 169.51 707.207 149.978 708.884 145.11C710.574 141.31 712.665 137.701 715.12 134.344C714.154 133.437 713.1 132.629 711.973 131.932C710.491 135.031 708.831 138.041 707.002 140.948C703.501 146.654 701.472 168.671 700.927 172.554C700.681 174.82 700.558 177.098 700.56 179.378C700.56 180.849 700.56 182.32 700.56 183.79C700.56 184.511 700.56 185.261 700.56 185.879C700.56 186.497 700.56 187.085 700.56 187.629C700.56 188.556 700.56 189.379 700.663 190.026C700.675 190.52 700.729 191.012 700.824 191.497C701.001 192.085 700.824 191.953 700.574 191.615C700.324 191.276 699.766 190.365 699.766 190.365L698.177 192.409L697.471 193.291L696.295 194.762L694.618 196.777C694.399 197.025 694.133 197.227 693.835 197.371C693.537 197.515 693.213 197.598 692.882 197.615C692.618 197.637 692.353 197.637 692.088 197.615C690.967 197.446 689.883 197.088 688.882 196.556C689.087 197.822 689.772 198.959 690.794 199.733C691.367 200.187 692.056 200.469 692.782 200.547C693.508 200.625 694.242 200.496 694.897 200.174C697.089 199.071 699.06 195.218 699.868 194.291C699.868 194.291 700.324 197.689 701.619 195.483C702.913 193.277 702.354 180.775 702.354 180.775L702.325 180.717Z" fill="#F7CD8D"/>
<path fill-rule="evenodd" clip-rule="evenodd" d="M723.43 122.152C722.224 123.916 718.209 129.623 717.017 129.505C715.547 129.388 712.031 131.917 712.031 131.917C713.159 132.614 714.213 133.422 715.179 134.329C715.414 134.535 715.635 134.756 715.855 134.991C718.395 132.457 720.773 129.765 722.974 126.931C723.081 128.604 723.528 130.237 724.286 131.731C725.045 133.225 726.099 134.55 727.386 135.623C729.541 136.804 731.819 137.741 734.181 138.418C735.049 138.683 736.005 138.962 737.034 139.227C743.77 140.977 749.109 137.477 750.035 137.756C750.962 138.035 763.566 139.418 766.522 138.3C768.265 137.673 769.847 136.669 771.155 135.359C773.264 134.033 774.929 132.108 775.935 129.829C778.553 133.52 780.774 136.079 780.774 136.079L781.024 135.829C781.599 135.255 782.208 134.714 782.848 134.212C781.775 132.399 780.611 130.642 779.362 128.946C778.428 127.672 777.625 126.307 776.965 124.872C775.935 122.784 774.803 120.24 773.847 117.842C773.553 117.151 773.288 116.46 773.038 115.798L772.464 114.21C772.464 114.607 772.597 115.018 772.655 115.445C772.92 117.136 773.17 119.048 773.376 120.887C773.369 120.965 773.369 121.044 773.376 121.122C773.464 121.975 773.538 122.813 773.611 123.608C773.714 124.784 773.773 125.843 773.773 126.711C773.825 127.384 773.76 128.06 773.582 128.711C773.151 129.526 772.549 130.239 771.817 130.799C769.009 133.066 765.498 134.283 761.89 134.241C759.625 134.241 757.61 133.991 756.007 133.785C754.369 133.624 752.749 133.314 751.168 132.858C750.638 132.638 747.859 133.785 744.461 134.506C741.861 135.157 739.148 135.222 736.519 134.697C730.489 133.226 730.342 131.108 727.857 126.593C727.139 125.039 726.729 123.361 726.651 121.651C726.539 120.321 726.495 118.986 726.518 117.651V117.386C726.577 114.73 726.778 112.079 727.121 109.444L723.739 121.666C723.739 121.666 723.65 121.843 723.43 122.152Z" fill="#A93F80"/>
<path fill-rule="evenodd" clip-rule="evenodd" d="M781.083 135.815C785.156 143.301 789.525 150.758 792.172 153.625C796.805 158.655 801.643 163.538 806.673 168.215L807.262 168.112C807.262 168.303 807.262 168.495 807.159 168.671L810.88 172.039L811.6 168.039C809.203 166.053 805.026 162.818 800.482 158.817C795.378 154.331 787.568 141.595 782.833 134.197C782.219 134.702 781.634 135.242 781.083 135.815Z" fill="#F7CD8D"/>
<path fill-rule="evenodd" clip-rule="evenodd" d="M811.601 168.039L810.88 172.039L810.748 172.76C811.248 172.951 811.777 173.142 812.336 173.319C813.982 173.815 815.602 174.394 817.189 175.054L817.601 173.51C814.219 171.098 814.189 170.201 811.601 168.039Z" fill="#FAD297"/>
<path fill-rule="evenodd" clip-rule="evenodd" d="M817.601 173.51L817.189 175.054C818.732 175.625 820.137 176.513 821.315 177.661C822.493 178.808 823.417 180.19 824.028 181.717L824.131 181.584C824.131 181.584 824.881 182.378 825.705 183.334C825.705 183.026 825.808 182.731 825.852 182.423C824.478 179.491 822.377 176.96 819.749 175.069L817.601 173.51Z" fill="#FAD297"/>
<path fill-rule="evenodd" clip-rule="evenodd" d="M727.327 135.653C730.666 152.155 722.533 153.728 721.915 173.892L722.856 174.024C734.688 175.832 746.661 176.546 758.624 176.157C758.624 176.157 753.433 171.583 743.123 169.377C738.064 168.289 734.593 167.906 732.651 166.347C730.71 164.788 730.283 162.023 731.504 156.052C732.615 150.244 734.366 144.576 736.725 139.153C735.799 138.918 734.96 138.668 734.181 138.433C731.684 138.217 729.312 137.242 727.386 135.638L727.327 135.653Z" fill="#A93F80"/>
<path fill-rule="evenodd" clip-rule="evenodd" d="M750.168 241.135C747.388 259.666 752.227 286.242 752.845 297.023C753.926 297.072 755.009 297.018 756.08 296.861C755.977 295.728 755.83 294.258 755.669 292.552C754.58 281.403 752.727 260.195 753.212 254.709C753.595 250.9 754.683 244.635 755.727 239.34L750.021 239.443C750.065 240.223 750.124 240.811 750.168 241.135Z" fill="#F6CA87"/>
<path fill-rule="evenodd" clip-rule="evenodd" d="M736.931 301.788C736.799 299.861 736.652 297.611 736.549 295.802C738.387 277.594 742.52 261.328 742.049 241.178L742.24 239.561L727.651 239.825V240.237C727.651 240.237 727.651 241.017 727.651 242.399C730.151 242.311 738.328 242.09 738.725 243.267C739.122 244.444 732.739 284.815 733.284 289.61C733.401 290.536 733.519 291.434 733.637 292.287C733.828 293.566 734.004 294.743 734.151 295.758C734.417 296.919 734.417 298.126 734.151 299.287C732.814 300.406 731.329 301.336 729.739 302.052L736.931 301.788Z" fill="#F6CA87"/>
<path fill-rule="evenodd" clip-rule="evenodd" d="M676.425 206.043C674.525 205.327 672.741 204.336 671.13 203.101L669.409 204.675C671.291 206.515 673.514 207.969 675.954 208.955C680.94 208.308 687.073 203.263 690.838 199.674C690.49 199.413 690.179 199.106 689.912 198.762C687.382 200.424 678.16 206.44 676.425 206.043Z" fill="#FACE91"/>
<path fill-rule="evenodd" clip-rule="evenodd" d="M801.658 255.915C800.626 255.642 799.676 255.123 798.887 254.404C798.098 253.684 797.495 252.785 797.128 251.783C796.218 249.513 795.663 247.117 795.481 244.679C794.922 239.517 793.819 224.868 793.819 224.868C793.819 224.868 792.069 225.971 788.039 222.368C785.098 219.735 784.995 217.706 785.098 216.794L783.848 220.971L783.318 222.691L792.26 228.81L791.893 259.401H794.04L811.527 258.754C811.527 258.754 805.982 256.93 801.658 255.915Z" fill="#B1982F"/>
<path fill-rule="evenodd" clip-rule="evenodd" d="M814.645 228.089C814.645 229.192 816.233 243.841 818.234 249.93C818.744 251.482 819.012 253.104 819.028 254.739C819.039 255.976 818.936 257.212 818.719 258.43H820.381L822.175 258.357C822.175 258.357 818.028 228.413 819.322 228.045C820.616 227.677 830.794 221.588 830.794 221.588C830.794 221.588 830.5 220.618 830.117 219.279C824.984 221.809 814.645 227.31 814.645 228.089Z" fill="#B1982F"/>
<path fill-rule="evenodd" clip-rule="evenodd" d="M783.215 218.485C780.233 217.327 777.484 215.643 775.097 213.514C774.144 212.59 773.25 211.608 772.42 210.572L770.949 208.719C768.14 205.145 765.272 201.116 765.272 201.116C764.392 201.224 763.503 201.021 762.757 200.542C761.667 199.818 760.748 198.865 760.066 197.748L754.771 193.791C754.771 193.791 754.771 193.909 754.771 194.071C755.153 195.262 759.345 198.483 759.345 198.483C760.463 200.116 761.772 201.763 763.654 202.101C765.287 204.44 768.066 208.337 770.655 211.455C771.14 212.058 771.626 212.632 772.126 213.146C772.961 214.12 773.886 215.011 774.891 215.808C777.789 217.78 780.838 219.521 784.009 221.015L785.259 216.838C785.287 216.654 785.342 216.476 785.421 216.308C785.421 216.308 783.774 218.485 783.215 218.485Z" fill="#F6C987"/>
<path fill-rule="evenodd" clip-rule="evenodd" d="M833.882 116.886C835.307 137.867 835.636 158.907 834.867 179.922C835.235 180.099 835.647 180.26 836.088 180.422C846.119 183.922 874.21 182.246 881.828 179.128C882.961 152.478 884.343 131.314 885.652 115.033L888.491 124.534L889.123 124.166L898.992 118.475L899.992 117.901L899.55 116.298L898.58 116.71C895.521 118.004 891.388 119.651 890.491 119.857C889.844 119.989 888.182 115.871 886.505 111.165C884.358 105.179 882.21 98.2372 882.093 97.9284C881.902 97.3842 883.843 113.415 883.755 113.959C883.667 114.504 880.343 153.081 878.74 169.848C878.342 173.966 878.048 176.76 877.945 177.304C877.386 180.069 843.854 177.495 842.015 176.76C841.721 176.642 841.412 175.069 841.103 172.495C839.397 158.611 837.471 115.504 837.309 114.651C837.147 113.798 836.397 94.8398 836.397 94.8398L833.22 110.283L831.838 117.166C831.838 117.166 829.529 116.327 828.337 117.063C827.69 117.46 824.705 116.945 821.572 116.357L819.984 116.033L819.16 118.798L820.998 119.195L831.749 121.519L832.455 121.666L833.882 116.886Z" fill="#4FA84A"/>
<path fill-rule="evenodd" clip-rule="evenodd" d="M838.412 56.1304C841.354 56.1304 843.648 53.1889 843.648 49.5415C843.648 45.8941 841.295 42.9673 838.412 42.9673C835.529 42.9673 833.176 45.9088 833.176 49.5415C833.176 53.1742 835.529 56.1304 838.412 56.1304Z" fill="#FBD6A0"/>
<path fill-rule="evenodd" clip-rule="evenodd" d="M837.059 45.9087C838.206 45.9087 839.28 47.7177 839.456 49.9385C839.633 52.1593 838.839 53.9536 837.691 53.9536C836.544 53.9536 835.471 52.1593 835.309 49.9385C835.147 47.7177 835.927 45.9087 837.059 45.9087Z" fill="#EDA46C"/>
<path fill-rule="evenodd" clip-rule="evenodd" d="M883.858 56.1304C886.799 56.1304 889.094 53.1889 889.094 49.5415C889.094 45.8941 886.741 42.9673 883.858 42.9673C880.975 42.9673 878.622 45.9088 878.622 49.5415C878.622 53.1742 880.975 56.1304 883.858 56.1304Z" fill="#FBD6A0"/>
<path fill-rule="evenodd" clip-rule="evenodd" d="M885.196 45.9087C884.049 45.9087 882.975 47.7177 882.814 49.9385C882.652 52.1593 883.417 53.9536 884.564 53.9536C885.711 53.9536 886.785 52.1593 886.961 49.9385C887.138 47.7177 886.343 45.9087 885.196 45.9087Z" fill="#EDA46C"/>
<path fill-rule="evenodd" clip-rule="evenodd" d="M837.221 52.9241C836.721 52.5564 834.485 37.7167 834.485 36.143C834.485 34.5693 839.309 28.7893 839.309 28.7893L843.413 34.2605C842.648 35.8489 837.721 53.2771 837.221 52.9241Z" fill="#A95C40"/>
<path fill-rule="evenodd" clip-rule="evenodd" d="M861.164 22.877C847.928 22.877 837.088 34.8341 837.088 49.5856C837.088 64.3371 847.81 76.2795 861.164 76.2795C874.519 76.2795 885.255 64.3224 885.255 49.5709C885.255 34.8194 874.401 22.877 861.164 22.877Z" fill="#FBD6A0"/>
<path fill-rule="evenodd" clip-rule="evenodd" d="M837.118 51.8503C838.162 65.5282 849.207 76.2793 861.105 76.2793C873.004 76.2793 881.696 67.8226 884.402 56.3508C884.696 54.1888 884.873 52.6298 884.873 52.6298C883.77 55.9243 880.872 66.9401 874.504 68.705C872.504 69.2492 871.783 61.6013 869.842 60.7336C867.9 59.8659 865.282 61.1454 861.37 61.1895C857.458 61.2337 855.487 60.1747 853.355 60.6895C851.222 61.2042 849.898 68.2344 849.075 68.1902C841.427 67.8079 837.382 52.4092 837.118 51.8503ZM860.87 63.6163L868.459 62.9838C868.493 65.0482 868.216 67.106 867.636 69.0874C865.826 74.0879 854.222 72.7054 853.369 68.2491C853 66.5105 853.025 64.7114 853.443 62.9838L860.87 63.6163Z" fill="#F5B386"/>
<path fill-rule="evenodd" clip-rule="evenodd" d="M850.384 45.4085C850.931 45.4385 851.467 45.5767 851.961 45.8152C852.455 46.0538 852.897 46.3879 853.26 46.7982C853.624 47.2086 853.903 47.687 854.081 48.2058C854.259 48.7246 854.332 49.2735 854.296 49.8207C854.064 50.9369 853.41 51.9202 852.469 52.5645C851.529 53.2088 850.376 53.4641 849.251 53.277C848.698 53.2436 848.156 53.0999 847.659 52.8544C847.162 52.6088 846.718 52.2664 846.355 51.8471C845.992 51.4278 845.716 50.9402 845.544 50.4129C845.373 49.8856 845.308 49.3292 845.354 48.7765C845.605 47.6796 846.265 46.72 847.2 46.0939C848.135 45.4678 849.274 45.2227 850.384 45.4085Z" fill="white"/>
<path fill-rule="evenodd" clip-rule="evenodd" d="M872.415 45.585C872.968 45.6165 873.509 45.7584 874.007 46.0024C874.504 46.2464 874.947 46.5875 875.311 47.0056C875.674 47.4237 875.95 47.9103 876.122 48.4368C876.294 48.9632 876.359 49.5188 876.313 50.0708C876.081 51.184 875.429 52.1649 874.492 52.8088C873.555 53.4527 872.405 53.71 871.283 53.527C870.729 53.4974 870.186 53.3569 869.687 53.1138C869.188 52.8706 868.743 52.5298 868.378 52.1115C868.013 51.6932 867.736 51.2059 867.563 50.6785C867.39 50.1511 867.325 49.5944 867.371 49.0413C867.602 47.9251 868.257 46.9418 869.197 46.2975C870.138 45.6532 871.291 45.3979 872.415 45.585Z" fill="white"/>
<path fill-rule="evenodd" clip-rule="evenodd" d="M884.946 53.4535C885.093 55.0566 887.799 36.4076 887.799 34.8487C887.799 33.2897 882.975 27.495 882.975 27.495C882.625 25.0596 881.926 22.6872 880.902 20.4501C874.004 7.56647 839.309 22.1562 829.632 17.7881C829.485 17.7146 827.411 39.8492 866.238 34.8487C876.651 33.5103 878.872 32.9661 878.872 32.9661C885.917 40.6875 884.079 44.0996 884.946 53.4535Z" fill="#A95C40"/>
<path fill-rule="evenodd" clip-rule="evenodd" d="M871.71 52.1739C872.27 52.1593 872.814 51.9806 873.275 51.66C873.735 51.3394 874.091 50.8908 874.299 50.3699C874.507 49.849 874.557 49.2785 874.444 48.7291C874.331 48.1798 874.06 47.6756 873.663 47.279C873.266 46.8824 872.762 46.6108 872.213 46.4978C871.663 46.3848 871.093 46.4353 870.572 46.6432C870.051 46.8511 869.603 47.2072 869.282 47.6674C868.961 48.1276 868.783 48.6717 868.768 49.2324C868.768 50.0125 869.078 50.7607 869.63 51.3123C870.181 51.864 870.929 52.1739 871.71 52.1739Z" fill="#3E3A39"/>
<path fill-rule="evenodd" clip-rule="evenodd" d="M870.371 49.1735C870.545 49.1706 870.714 49.1163 870.857 49.0176C871.001 48.9189 871.111 48.7801 871.176 48.6186C871.241 48.4572 871.256 48.2802 871.22 48.11C871.185 47.9398 871.099 47.784 870.975 47.662C870.851 47.5401 870.694 47.4575 870.523 47.4246C870.353 47.3917 870.176 47.41 870.016 47.4772C869.855 47.5444 869.718 47.6575 869.622 47.8023C869.526 47.9471 869.474 48.1171 869.474 48.291C869.474 48.4081 869.497 48.5241 869.543 48.6321C869.588 48.7402 869.654 48.8381 869.738 48.9203C869.821 49.0024 869.92 49.0671 870.029 49.1106C870.138 49.154 870.254 49.1754 870.371 49.1735Z" fill="#EEEEEF"/>
<path fill-rule="evenodd" clip-rule="evenodd" d="M867.724 45.4231C869.983 44.9995 872.303 45.0345 874.548 45.5261C877.004 46.2909 878.107 45.0849 875.004 43.8936C872.662 43.1281 870.155 43.0163 867.753 43.57C866.297 43.9818 866.253 45.7761 867.724 45.4231Z" fill="#A95C40"/>
<path fill-rule="evenodd" clip-rule="evenodd" d="M850.104 51.7034C850.661 51.6976 851.204 51.5271 851.665 51.2133C852.125 50.8995 852.483 50.4564 852.692 49.94C852.901 49.4235 852.953 48.8567 852.841 48.3109C852.728 47.765 852.457 47.2646 852.061 46.8727C851.665 46.4807 851.162 46.2146 850.615 46.1081C850.068 46.0015 849.502 46.0591 848.987 46.2736C848.473 46.4882 848.034 46.8501 847.725 47.3138C847.416 47.7776 847.251 48.3223 847.251 48.8796C847.253 49.2523 847.328 49.6211 847.473 49.9647C847.617 50.3084 847.828 50.6202 848.093 50.8824C848.358 51.1446 848.672 51.3521 849.017 51.493C849.362 51.6338 849.731 51.7053 850.104 51.7034Z" fill="#3E3A39"/>
<path fill-rule="evenodd" clip-rule="evenodd" d="M848.781 48.762C848.955 48.762 849.126 48.7102 849.271 48.6132C849.416 48.5163 849.529 48.3785 849.596 48.2172C849.663 48.056 849.68 47.8785 849.646 47.7074C849.612 47.5362 849.528 47.3789 849.405 47.2555C849.281 47.1321 849.124 47.0481 848.953 47.014C848.782 46.98 848.604 46.9975 848.443 47.0642C848.282 47.131 848.144 47.2441 848.047 47.3893C847.95 47.5344 847.898 47.705 847.898 47.8795C847.898 48.1136 847.991 48.338 848.157 48.5035C848.322 48.669 848.547 48.762 848.781 48.762Z" fill="#EEEEEF"/>
<path fill-rule="evenodd" clip-rule="evenodd" d="M852.869 45.1439C850.814 44.7685 848.705 44.8035 846.663 45.2469C844.442 45.9528 843.442 44.8498 846.251 43.7761C848.376 43.0855 850.648 42.9838 852.825 43.482C854.149 43.8496 854.193 45.4822 852.869 45.1439Z" fill="#A95C40"/>
<path fill-rule="evenodd" clip-rule="evenodd" d="M853.443 62.9248C853.627 64.7879 854.498 66.5158 855.886 67.7727C857.273 69.0296 859.079 69.7257 860.951 69.7257C862.823 69.7257 864.629 69.0296 866.016 67.7727C867.404 66.5158 868.275 64.7879 868.459 62.9248H853.443Z" fill="#4F2211"/>
<path fill-rule="evenodd" clip-rule="evenodd" d="M854.958 62.9248H866.944V64.6014C866.957 64.7646 866.906 64.9263 866.801 65.0524C866.697 65.1786 866.548 65.2594 866.385 65.278H855.531C855.366 65.263 855.213 65.1837 855.106 65.0571C854.999 64.9306 854.946 64.7669 854.958 64.6014V62.9248Z" fill="white"/>
<path fill-rule="evenodd" clip-rule="evenodd" d="M857.385 57.5569C857.385 58.5423 859.091 59.3365 861.106 59.3365C863.12 59.3365 864.768 58.5423 864.841 57.5569H857.385Z" fill="#DF9C72"/>
<path fill-rule="evenodd" clip-rule="evenodd" d="M829.632 17.7881C829.585 20.4985 830.271 23.1712 831.617 25.5242C832.963 27.8772 834.919 29.8233 837.279 31.1571C838.724 32.0427 840.263 32.763 841.868 33.3044L843.339 33.7603C850.193 35.7605 883.534 37.4372 883.049 27.2155C883.049 27.2155 880.284 27.8186 876.122 28.348L873.43 28.6422C868.764 28.8385 864.103 28.1498 859.694 26.6125C860.962 27.7653 862.37 28.7536 863.885 29.554C864.723 29.8188 863.15 29.7305 858.914 29.1275C856.767 28.8334 852.325 27.6568 848.413 26.6861C844.501 25.7154 841.309 24.73 841.177 24.6712C842.108 26.106 843.14 27.4724 844.265 28.7598C844.633 29.0834 842.515 28.3921 837.441 24.8918C834.478 22.8635 831.853 20.3819 829.661 17.5381L829.632 17.7881Z" fill="#9F553D"/>
<path fill-rule="evenodd" clip-rule="evenodd" d="M742.27 36.54C742.623 37.2019 745.814 40.6581 752.565 44.732C759.316 48.806 770.729 51.821 770.655 51.4386C770.582 51.0562 764.081 45.9086 764.61 46.1734C765.14 46.4381 772.655 48.6001 772.067 48.6883C771.479 48.7766 765.419 40.864 765.419 40.864L771.743 43.1142C770.318 39.7838 768.071 36.8692 765.213 34.6428C760.801 31.5395 747.285 30.4806 747.903 30.6129C748.521 30.7453 755.065 34.2898 755.065 34.2898C749.937 32.6925 744.549 32.0983 739.196 32.5396C739.549 32.5396 746.55 35.4076 746.55 35.4076L740.667 34.3486L742.27 36.54Z" fill="#7D4025"/>
<path fill-rule="evenodd" clip-rule="evenodd" d="M738.372 43.982C738.004 45.188 736.328 47.9824 731.916 56.145C727.503 64.3076 725.106 66.1019 725.106 66.1019C725.106 66.1019 726.121 73.0585 727.268 79.2503C728.415 85.4421 732.666 94.5754 731.548 93.2811C728.422 87.6015 725.893 81.6129 724.003 75.4117C722.885 70.7053 722.709 68.7786 722.709 69.4258C722.709 70.0729 723.076 79.4562 723.076 78.2502C723.076 77.0442 719.208 66.7784 719.664 59.263C720.12 51.7475 720.87 49.7767 720.87 49.7767C720.87 49.7767 721.076 54.3213 721.047 53.9683C722.465 49.4853 724.531 45.234 727.18 41.3494C730.357 37.3342 732.195 35.9517 731.739 36.4665C731.283 36.9813 728.621 46.3057 728.798 45.7763C728.974 45.2468 734.828 36.643 734.681 37.1577C734.533 37.6725 733.342 41.57 731.416 47.0117C729.489 52.4534 727.636 56.3215 728.474 55.5861C729.312 54.8507 738.372 43.982 738.372 43.982Z" fill="#7D4025"/>
<path fill-rule="evenodd" clip-rule="evenodd" d="M770.699 77.2059C768.258 85.3685 765.301 91.1632 765.949 90.2513C766.596 89.3394 769.64 84.5301 769.405 85.4126C769.169 86.295 767.052 94.237 767.508 93.4281C767.963 92.6192 773.714 76.4411 774.861 69.8963C775.487 64.9738 775.413 59.9876 774.641 55.0859C774.641 55.586 774.273 64.8516 774.317 63.3809C773.978 60.6422 773.392 57.9398 772.567 55.3065C773.279 62.6592 772.646 70.0801 770.699 77.2059Z" fill="#7D4025"/>
<path fill-rule="evenodd" clip-rule="evenodd" d="M804.791 182.673C803.747 181.393 802.144 178.893 803.114 177.216C801.438 177.378 799.585 180.246 799.393 180.805C799.499 179.015 799.902 177.256 800.585 175.598C801.894 172.657 805.674 169.421 806.894 168.421L807.262 168.112L806.674 168.215C796.628 170.201 787.23 184.07 793.805 187.188C793.908 187.188 793.408 187.261 795.114 187.997C796.782 188.502 798.548 188.598 800.261 188.276C799.461 188.669 798.609 188.946 797.732 189.1C796.952 189.1 798.746 189.791 803.026 189.703C806.081 189.572 809.118 189.168 812.101 188.497C811.329 189.054 810.512 189.546 809.659 189.967C809.203 190.056 811.233 190.703 816.439 188.909C817.042 188.688 817.586 188.497 818.042 188.306C819.807 187.1 820.984 186.158 820.984 186.158C820.984 186.158 818.998 184.32 817.366 182.761H816.601L818.337 185.496C816.561 186.189 814.616 186.322 812.762 185.879C809.821 185.085 808.203 182.673 807.85 182.673C807.497 182.673 807.85 185.364 807.85 185.364C807.85 185.364 807.438 185.364 805.732 183.702C805.401 183.376 805.087 183.032 804.791 182.673Z" fill="#A5573B"/>
</g>
<defs>
<linearGradient id="paint0_linear" x1="-9.94815" y1="-0.655537" x2="1.89546" y2="193.735" gradientUnits="userSpaceOnUse">
<stop stop-color="#FEA244"/>
<stop offset="1" stop-color="#FD9147"/>
</linearGradient>
<linearGradient id="paint1_linear" x1="695.103" y1="189.938" x2="699.001" y2="199.277" gradientUnits="userSpaceOnUse">
<stop stop-color="#FBE5D5"/>
<stop offset="1" stop-color="#F8CAA8"/>
</linearGradient>
</defs>
</svg>
