<svg width="105" height="156" viewBox="0 0 105 156" fill="none" xmlns="http://www.w3.org/2000/svg">
<path d="M29.7791 101.641V101.961H52.1065L52.0189 101.553C44.6056 101.553 37.1923 101.611 29.7791 101.641Z" fill="white"/>
<path d="M12.1987 102.257V159.956H69.596V102.083L12.1987 102.257Z" fill="#F2F2F2"/>
<path d="M69.5959 159.956L71.7619 158.559V103.06L69.5959 102.082V159.956Z" fill="#505B75"/>
<path d="M68.478 103.619C68.478 104.038 68.1636 104.352 67.7444 104.352C67.3252 104.352 67.0107 104.003 67.0107 103.619C67.0107 103.2 67.3252 102.885 67.7444 102.885C68.1286 102.85 68.478 103.2 68.478 103.619Z" fill="#C6C6C6"/>
<path d="M14.3647 103.619C14.3647 104.038 14.0503 104.353 13.6311 104.353C13.2119 104.353 12.8975 104.003 12.8975 103.619C12.8975 103.2 13.2119 102.886 13.6311 102.886C14.0154 102.851 14.3647 103.2 14.3647 103.619Z" fill="#C6C6C6"/>
<path d="M26.9061 127.998L21.4214 131.211C21.4214 131.211 27.1856 143.296 28.3733 149.338C28.3733 149.338 33.893 136.38 60.3733 110.954L59.3252 109.871C59.3252 109.871 38.12 125.308 30.7838 137.952L26.9061 127.998Z" fill="#26B545"/>
<path d="M49.1244 93.5257C49.0895 93.5257 49.0545 93.5257 49.0196 93.5257C47.3428 93.4558 33.1594 93.4908 32.3908 93.5257C32.3908 93.5257 30.8886 93.5955 28.7576 93.9099C30.3996 98.2757 27.3952 99.568 25.9629 99.8823V102.222H52.6877L52.1288 99.3235C49.6135 98.4154 49.1244 95.6213 49.1244 93.5257Z" fill="#006AB0"/>
<path d="M49.1244 94.1187C49.1244 93.9091 49.0894 93.7345 49.0894 93.5249C49.0545 93.5249 49.0196 93.5249 48.9846 93.5249C47.3078 93.4551 33.1244 93.49 32.3558 93.5249C32.3558 93.5249 30.8537 93.5948 28.7227 93.9091C28.7576 93.9441 28.7576 94.0139 28.7576 94.0488C35.5698 94.0488 42.3471 94.0838 49.1244 94.1187Z" fill="white"/>
<path d="M29.2117 96.1792C29.2117 96.3888 29.2117 96.5634 29.1768 96.7381C35.989 96.773 42.8361 96.8079 49.6483 96.8079C49.5435 96.5634 49.4736 96.319 49.4038 96.0745C42.6614 96.0745 35.9191 96.1443 29.2117 96.1792Z" fill="white"/>
<path d="M51.3254 98.9385C43.5001 98.9385 35.6747 98.9385 27.8844 99.0083C27.6049 99.2179 27.2905 99.3925 26.9761 99.5322C35.3603 99.5672 43.7795 99.5672 52.1638 99.5672L52.1289 99.3576C51.8145 99.2179 51.535 99.0782 51.3254 98.9385Z" fill="white"/>
<g style="mix-blend-mode:multiply">
<path d="M35.0458 106.902C36.8624 106.483 38.1549 104.981 36.0239 105.086C33.8929 105.156 32.8449 106.553 32.5654 106.483C32.3908 106.448 28.5829 104.108 25.4737 102.222C23.6222 102.222 21.8056 102.222 19.9541 102.257C23.762 104.632 30.644 108.683 30.644 108.683C30.644 108.683 30.2947 109.521 30.9235 110.604C30.9235 110.604 30.7838 115.599 31.6921 115.389C32.6004 115.179 31.9715 110.464 32.3908 111.303C32.81 112.141 34.5916 115.738 35.1506 114.83C35.7095 113.922 32.81 109.556 34.1724 110.604C35.4999 111.652 37.6309 113.713 38.0501 112.735C38.4693 111.757 33.8231 109.207 35.7794 109.556C37.7707 109.906 40.7051 110.185 39.3776 108.858C38.0851 107.496 33.1942 107.356 35.0458 106.902Z" fill="#C6C6C6"/>
</g>
<path d="M63.5173 65.2344C63.5173 65.2344 74.9409 66.9109 77.4911 82.069L75.2902 85.0378L73.4736 80.9514L74.7313 86.0856L71.6221 88.0065L70.1549 83.2915L70.8536 88.0065L66.2073 88.9845C66.2073 88.9845 66.4169 79.1003 63.7968 75.3631L63.5173 65.2344Z" fill="#E08804"/>
<path opacity="0.3" d="M65.299 79.1352C66.9758 75.0138 67.0457 70.3337 65.9977 65.9678C64.5304 65.3741 63.5522 65.2344 63.5522 65.2344L63.8317 75.398C64.4605 76.341 64.9496 77.6683 65.299 79.1352Z" fill="#E08804"/>
<path d="M36.3733 92.3027C36.3733 92.3027 35.1157 98.7292 38.2947 99.1483C41.4737 99.5675 42.6615 93.9443 42.5218 92.3027H36.3733Z" fill="#EFCAA6"/>
<path d="M28.7229 93.9094C26.3473 94.2587 23.1683 94.9223 20.4085 96.1447C15.1334 98.4848 15.7622 99.7422 16.9849 100.72C18.1727 101.698 30.0154 108.683 30.0154 108.683C30.0154 108.683 29.6661 109.522 30.2949 110.604C30.2949 110.604 30.1552 115.599 31.0635 115.389C31.9718 115.18 31.3429 110.465 31.7622 111.303C32.1814 112.141 33.963 115.739 34.522 114.83C35.0809 113.922 32.1814 109.557 33.5438 110.604C34.8713 111.652 37.0023 113.713 37.4215 112.735C37.8408 111.757 33.1945 109.207 35.1508 109.557C37.1421 109.906 40.0765 110.185 38.749 108.858C37.4215 107.531 32.5307 107.391 34.3822 106.937C36.1988 106.518 37.4914 105.016 35.3604 105.121C33.2294 105.191 32.1814 106.588 31.9019 106.518C31.6224 106.448 20.8277 99.812 20.8277 99.812C20.8277 99.812 24.2163 98.2753 25.8932 97.8212V99.8819C27.3604 99.5326 30.3648 98.2753 28.7229 93.9094Z" fill="#EFCAA6"/>
<path d="M28.4083 96.9829C28.4083 96.9829 28.2686 97.0877 28.059 97.1925C27.8494 97.2973 27.535 97.437 27.2205 97.5417C26.9061 97.6465 26.5917 97.7164 26.3472 97.7513C26.1026 97.7862 25.928 97.7862 25.928 97.7862C25.928 97.7862 26.0677 97.6814 26.2773 97.5767C26.4869 97.4719 26.8013 97.3322 27.1157 97.2274C27.4302 97.1226 27.7446 97.0528 27.9891 97.0178C28.2336 96.9829 28.4083 96.9829 28.4083 96.9829Z" fill="#C39368"/>
<path d="M81.4386 70.9624C81.6482 70.3337 84.408 66.7362 83.7094 66.1774C83.0107 65.6186 81.0893 69.705 80.5303 69.3557C79.9714 69.0065 81.1591 63.2086 79.7618 64.012C78.3644 64.7803 79.1329 69.5304 78.4342 69.0763C77.7356 68.5873 77.2465 62.9642 76.1635 63.9421C75.1155 64.92 77.7006 69.9495 76.6526 69.7399C75.6046 69.5304 74.1373 68.8668 73.0543 69.5304C71.9714 70.159 75.884 70.5083 76.2334 71.5212C76.5827 72.4991 76.5129 72.9183 76.5129 72.9183C76.5129 72.9183 72.1461 81.0911 65.4037 86.0157C58.8011 90.8356 51.0107 93.525 49.1243 93.5599C49.1243 95.6904 49.6483 98.4496 52.1286 99.3926L51.5697 96.4588C51.5697 96.4588 67.4998 95.3062 79.7967 72.6738C79.7967 72.6738 80.4255 72.8833 80.9845 72.2546C80.9845 72.2546 85.2115 71.8355 85.2115 70.9973C85.1766 70.1241 81.229 71.591 81.4386 70.9624Z" fill="#EFCAA6"/>
<path d="M50.9758 94.2241C50.9758 94.2241 51.0806 94.3988 51.1854 94.6432C51.2902 94.8877 51.395 95.237 51.4998 95.5863C51.5697 95.9355 51.6396 96.2848 51.6745 96.5642C51.7094 96.8436 51.6745 97.0183 51.6745 97.0183C51.6745 97.0183 51.5697 96.8436 51.4649 96.5991C51.3601 96.3546 51.2553 96.0054 51.1854 95.6561C51.1156 95.3068 51.0457 94.9576 51.0108 94.6782C50.9758 94.3988 50.9758 94.2241 50.9758 94.2241Z" fill="#C39368"/>
<g style="mix-blend-mode:multiply">
<path d="M34.906 98.694C37.4911 99.0433 40.1462 99.0084 42.7313 98.5543C47.8667 97.6113 52.7225 95.1315 56.1811 91.2546C52.8623 92.7216 50.1025 93.5249 49.0894 93.5249C49.0544 93.5249 49.0195 93.5249 48.9846 93.5249C48.2859 93.4899 45.5261 93.4899 42.4518 93.4899C42.5217 93.0359 42.5217 92.6168 42.4868 92.3374H36.3383C36.3383 92.3374 36.2335 92.7914 36.1636 93.4899C34.1025 93.4899 32.5654 93.5249 32.3208 93.5249C32.3208 93.5249 30.8187 93.5947 28.6877 93.9091C27.8143 94.0488 26.8012 94.2234 25.7532 94.433C27.954 97.0874 31.6222 98.24 34.906 98.694Z" fill="#D4D4D4"/>
</g>
<path d="M16.9847 66.1073C16.9847 66.1073 13.3865 64.5705 7.93673 69.0062C2.48696 73.4419 0.355957 82.5578 0.355957 82.5578L1.92801 83.4659C1.92801 83.4659 4.82756 77.4235 7.48258 74.9088C7.48258 74.9088 3.7446 80.4971 2.97604 84.5835C2.97604 84.5835 6.25987 85.8409 7.58738 85.9456C7.58738 85.9456 8.94983 79.3794 9.96293 78.0522C9.96293 78.0522 8.49568 83.6056 8.63542 86.4695C8.63542 86.4695 11.5 87.3078 13.7708 86.9934C13.7708 86.9934 13.1769 78.8555 16.6703 73.7562L16.9847 66.1073Z" fill="#E08804"/>
<path opacity="0.3" d="M14.3297 65.9329C13.8406 67.33 13.5262 68.8668 13.3864 70.0194C13.072 72.2197 12.9672 74.4201 13.2816 76.6205C13.4912 78.0176 13.7707 79.3797 14.1899 80.7069C14.5742 78.4018 15.3078 75.8172 16.7401 73.7565L17.0196 66.0726C16.9847 66.1076 16.0065 65.6885 14.3297 65.9329Z" fill="#E08804"/>
<path d="M65.2291 69.8797C63.5523 54.4072 46.7139 40.8905 28.0938 51.8226C28.0938 51.8226 16.7751 57.1664 14.8537 70.648C12.9323 84.1297 20.1288 89.2989 23.727 90.207C23.727 90.207 17.858 83.5709 19.6397 72.2197C19.6397 72.2197 23.9366 72.6039 30.1899 72.8135C30.6091 70.3686 31.6571 66.0727 34.2423 63.3833C34.2423 63.3833 31.7969 67.6094 31.6571 72.8484C33.9977 72.9183 36.5829 72.9183 39.3078 72.8834C39.3776 70.7878 39.727 67.2602 41.2292 64.2565C41.2292 64.2565 40.4606 68.5175 40.4606 72.8484C44.4082 72.7786 48.5654 72.5341 52.5828 72.08C52.6178 70.3337 52.5829 67.6793 52.0588 65.2344C52.0588 65.2344 53.2466 68.3429 53.9453 71.9054C56.0064 71.6609 57.9977 71.3117 59.8841 70.9275C59.8841 70.9275 60.8623 78.8907 57.4038 87.3081C57.5086 87.1684 57.5435 87.0636 57.5435 87.0636C57.5435 87.0636 66.7662 84.025 65.2291 69.8797Z" fill="#F39F00"/>
<path d="M59.9541 70.9621C58.0327 71.3463 56.0415 71.6956 54.0153 71.9401C53.3166 68.3776 52.1288 65.2691 52.1288 65.2691C52.6528 67.7139 52.6878 70.4033 52.6528 72.1147C48.6354 72.5688 44.4782 72.8132 40.5306 72.8831C40.5306 68.5522 41.2992 64.2911 41.2992 64.2911C39.762 67.2948 39.4476 70.8224 39.3778 72.918C36.6878 72.9529 34.1027 72.9529 31.7271 72.8831C31.8669 67.6441 34.3123 63.418 34.3123 63.418C31.7271 66.1073 30.6442 70.3684 30.2599 72.8482C24.0415 72.6735 19.7097 72.2544 19.7097 72.2544C19.4302 73.9658 19.3603 75.5724 19.3953 77.0743C19.4651 79.6589 19.8843 81.8592 20.4782 83.7453C21.7708 87.9714 23.8319 90.2766 23.8319 90.2766C23.8319 90.2766 30.0852 97.8556 42.0328 96.249C52.7227 94.817 56.81 88.7049 57.5437 87.4126C58.1026 86.0155 58.5568 84.6534 58.9061 83.3262C59.4301 81.3004 59.7445 79.4144 59.9192 77.7379C60.2685 73.6864 59.9541 70.9621 59.9541 70.9621Z" fill="#F4D9BF"/>
<path d="M23.7619 59.1223C23.3776 59.5414 22.9933 59.9955 22.644 60.4495C22.2946 60.9036 21.9453 61.3925 21.5959 61.8466L21.1068 62.58L20.6527 63.3135C20.3732 63.8025 20.0588 64.3264 19.8143 64.8503C19.6745 65.0948 19.5348 65.3742 19.43 65.6187L19.0807 66.422L18.7662 67.2253C18.6614 67.5047 18.5566 67.7841 18.4868 68.0635C18.382 68.3429 18.3121 68.6224 18.2073 68.9018L17.9977 69.74C17.9278 70.0194 17.858 70.2988 17.7881 70.5782L17.6134 71.4514L17.5785 71.3466C17.7182 71.4514 17.8929 71.5562 18.0676 71.661C18.2422 71.7658 18.4169 71.8356 18.5916 71.9055C18.7662 71.9753 18.9409 72.0452 19.1505 72.0801C19.3252 72.1499 19.5348 72.1499 19.7095 72.2198C19.4999 72.1849 19.3252 72.2198 19.1156 72.1499C18.906 72.115 18.7313 72.0801 18.5566 72.0102C18.382 71.9404 18.1724 71.8705 17.9977 71.8007C17.823 71.7308 17.6483 71.626 17.4737 71.5213L17.4038 71.4863V71.4165L17.5435 70.5433C17.5785 70.2639 17.6134 69.9496 17.6833 69.6702L17.858 68.797C17.9278 68.5176 18.0326 68.2382 18.1025 67.9587C18.1724 67.6793 18.2772 67.3999 18.382 67.1205L18.6964 66.2823L19.0457 65.479C19.1505 65.1995 19.2903 64.9551 19.43 64.6756C19.5697 64.4312 19.7095 64.1517 19.8492 63.9073C19.989 63.6628 20.1636 63.3834 20.3034 63.1389L20.7924 62.4054L21.3165 61.7069C21.6658 61.2528 22.0501 60.7639 22.4693 60.3447C22.8885 59.9256 23.3077 59.4716 23.7619 59.1223Z" fill="#CC6809"/>
<path d="M58.0327 59.1223C58.2074 59.2969 58.3821 59.5065 58.5218 59.6811C58.6615 59.8907 58.8013 60.1003 58.941 60.3098C59.2205 60.7289 59.4301 61.183 59.6746 61.637L59.989 62.3006C60.0938 62.5451 60.1986 62.7547 60.3035 62.9992C60.4083 63.2437 60.4781 63.4532 60.5829 63.6977C60.6877 63.9422 60.7576 64.1867 60.8275 64.4312C60.8973 64.6756 61.0021 64.9201 61.0371 65.1646L61.2467 65.8981L61.4213 66.6315C61.4912 66.876 61.5262 67.1205 61.5611 67.365L61.6659 68.0985L61.7358 68.8668C61.7707 69.3558 61.7707 69.8797 61.7707 70.3687V70.4385L61.7008 70.4735C61.1419 70.6132 60.548 70.7878 59.989 70.9275C60.548 70.683 61.072 70.4735 61.631 70.2639L61.5611 70.3687C61.5262 69.8797 61.4912 69.3907 61.4213 68.9018L61.3165 68.1683L61.1768 67.4348C61.1419 67.1904 61.072 66.9459 61.0371 66.7014L60.8624 65.9679L60.6528 65.2345C60.5829 64.99 60.5131 64.7455 60.4432 64.5359C60.3733 64.2915 60.3034 64.047 60.1986 63.8374C60.1288 63.5929 60.0589 63.3484 59.9541 63.1389C59.7794 62.6848 59.6048 62.1959 59.3952 61.7418C59.1855 61.2878 58.9759 60.8337 58.7663 60.3797C58.6615 60.1701 58.5567 59.9256 58.417 59.7161C58.2773 59.5065 58.2074 59.2969 58.0327 59.1223Z" fill="#CC6809"/>
<path d="M44.478 76.0616C44.478 76.0616 45.3863 74.5248 46.4344 74.8042C47.4824 75.0836 47.8667 76.0616 48.0064 76.4807C48.1811 76.8998 46.7488 74.9439 44.478 76.0616Z" fill="#CC6809"/>
<path d="M28.5828 76.5855C28.5828 76.5855 29.4911 75.0487 30.5391 75.3281C31.5871 75.6076 31.9714 76.5855 32.1111 77.0046C32.2858 77.4237 30.8535 75.4679 28.5828 76.5855Z" fill="#CC6809"/>
<path d="M32.0063 88.3908C32.0063 88.3908 38.5391 92.7915 46.6089 88.0764C46.6089 88.0764 45.1067 94.1537 39.2727 94.2934C33.4037 94.4331 32.0063 88.3908 32.0063 88.3908Z" fill="white"/>
<path d="M38.4692 83.9901C38.4692 83.9901 38.3993 83.9901 38.2945 83.9901C38.1897 83.9901 38.0151 83.9901 37.8404 84.025C37.7705 84.0599 37.6657 84.0948 37.5958 84.1298C37.526 84.1996 37.491 84.2695 37.4212 84.3393C37.4212 84.3743 37.3862 84.4441 37.3862 84.479C37.3862 84.5489 37.3513 84.6187 37.3862 84.6537C37.3862 84.7235 37.4212 84.8283 37.491 84.9331C37.5609 85.0379 37.6308 85.1077 37.7006 85.2125C37.7705 85.2823 37.8753 85.3871 37.9801 85.457C38.0849 85.5268 38.1548 85.5967 38.2596 85.6665C38.3644 85.7364 38.4343 85.7713 38.5391 85.8412C38.7137 85.946 38.8535 86.0158 38.9583 86.0507C39.0631 86.0857 39.133 86.0857 39.133 86.0857C39.133 86.0857 39.0631 86.1206 38.9583 86.1206C38.8185 86.1206 38.6439 86.1206 38.4343 86.0507C38.2247 85.9809 37.9801 85.911 37.7705 85.7713C37.6657 85.7015 37.526 85.6316 37.4212 85.5268C37.3164 85.422 37.2116 85.3173 37.1417 85.1776C37.0718 85.0379 37.002 84.8982 37.002 84.6886C37.002 84.5838 37.0369 84.5489 37.0369 84.479C37.0718 84.3743 37.1068 84.3393 37.1417 84.2345C37.2116 84.0948 37.3513 83.9901 37.4561 83.9202C37.5958 83.8504 37.7006 83.8154 37.8404 83.8154C38.0849 83.8154 38.2247 83.8853 38.3644 83.9202C38.4343 83.9551 38.4692 83.9901 38.4692 83.9901Z" fill="#C39368"/>
<path d="M17.264 77.1094C14.8536 78.0524 15.8317 83.5359 20.4081 83.6756C19.8142 81.8245 19.395 79.5892 19.3252 77.0046C18.8361 76.83 18.1723 76.7602 17.264 77.1094Z" fill="#EFCAA6"/>
<path d="M62.1198 77.1093C61.1765 76.9346 60.408 77.214 59.849 77.6332C59.6744 79.3096 59.36 81.2306 58.8359 83.2214C59.4997 83.2214 60.2682 83.1166 61.1416 82.8372C64.0062 82.0339 64.4254 77.5982 62.1198 77.1093Z" fill="#EFCAA6"/>
<path d="M16.9846 79.6243C16.9846 79.6243 17.2292 79.5544 17.6134 79.5894C17.7881 79.5894 18.0326 79.6243 18.2423 79.6941C18.4519 79.764 18.6964 79.8688 18.906 80.0085C19.1156 80.1482 19.3252 80.3228 19.465 80.4975C19.5348 80.6022 19.6047 80.6721 19.6746 80.7769C19.7444 80.8817 19.7794 80.9515 19.8143 81.0563C19.8842 81.2309 19.9191 81.4056 19.9191 81.5103C19.9191 81.6151 19.9191 81.685 19.9191 81.685C19.9191 81.685 19.8842 81.65 19.8143 81.5453C19.7794 81.5103 19.7444 81.4405 19.7095 81.3706C19.6746 81.3008 19.6047 81.2658 19.5698 81.1611C19.5348 81.0912 19.465 81.0214 19.3951 80.9515C19.3252 80.8817 19.2554 80.8118 19.1855 80.7419C19.1156 80.6721 19.0108 80.6022 18.9409 80.5324C18.8711 80.4625 18.7663 80.3927 18.6615 80.3578C18.5567 80.2879 18.4868 80.253 18.382 80.1831C18.2772 80.1482 18.1724 80.0783 18.1025 80.0434C17.8929 79.9386 17.7182 79.8688 17.5436 79.7989C17.1942 79.6942 16.9846 79.6243 16.9846 79.6243Z" fill="#C39368"/>
<path d="M62.0501 80.148C62.0501 80.148 61.8405 80.0781 61.5261 80.0781C61.4562 80.0781 61.3514 80.0781 61.2815 80.1131C61.2117 80.1131 61.1069 80.148 61.037 80.1829C60.8623 80.2528 60.6877 80.3226 60.513 80.4274C60.4431 80.4623 60.3383 80.5322 60.2684 80.602C60.1986 80.6719 60.0938 80.7417 60.0588 80.8116C59.989 80.8814 59.9191 80.9513 59.8492 81.0211C59.7794 81.091 59.7095 81.1609 59.6746 81.1958C59.5698 81.3006 59.465 81.4053 59.3951 81.4752C59.3252 81.545 59.2903 81.58 59.2903 81.58C59.2903 81.58 59.2903 81.5101 59.3252 81.4403C59.3252 81.4053 59.3601 81.3355 59.3951 81.2656C59.43 81.1958 59.43 81.1259 59.4999 81.0561C59.5698 80.9164 59.6746 80.7068 59.8143 80.5671C59.8842 80.4972 59.954 80.3925 60.0588 80.3226C60.1287 80.2528 60.2335 80.148 60.3383 80.1131C60.4431 80.0432 60.5479 80.0083 60.6527 79.9384C60.7575 79.9035 60.8973 79.8686 61.0021 79.8336C61.1069 79.8336 61.2466 79.7987 61.3514 79.8336C61.4562 79.8336 61.561 79.8686 61.6309 79.9035C61.9104 79.9733 62.0501 80.148 62.0501 80.148Z" fill="#C39368"/>
<path d="M32.8798 81.999C32.9496 83.2913 32.5304 84.3391 31.9365 84.374C31.3776 84.4089 30.8536 83.3611 30.8186 82.0689C30.7488 80.7766 31.168 79.7288 31.7619 79.6938C32.3208 79.6938 32.8448 80.7067 32.8798 81.999Z" fill="#673121"/>
<path d="M31.6921 81.0911C31.6921 81.4753 31.5174 81.7897 31.3427 81.7897C31.1681 81.7897 31.0283 81.4753 31.0633 81.0562C31.0633 80.672 31.2379 80.3577 31.4126 80.3577C31.5873 80.3577 31.6921 80.7069 31.6921 81.0911Z" fill="white"/>
<path d="M47.3776 81.021C47.4474 82.3133 47.0282 83.3611 46.4343 83.396C45.8754 83.4309 45.3514 82.3831 45.3164 81.0908C45.2466 79.7985 45.6658 78.7507 46.2597 78.7158C46.8186 78.7158 47.3077 79.7287 47.3776 81.021Z" fill="#673121"/>
<path d="M46.155 80.1129C46.155 80.497 45.9803 80.8114 45.8056 80.8114C45.6309 80.8114 45.5261 80.497 45.5261 80.0779C45.5261 79.6937 45.7008 79.3794 45.8755 79.3794C46.0501 79.3794 46.155 79.6937 46.155 80.1129Z" fill="white"/>
<path d="M30.3994 86.086C30.3994 86.8195 28.9322 87.4132 27.1505 87.4132C25.3689 87.4132 23.9016 86.8195 23.9016 86.0511C23.9016 85.3176 25.3689 84.7239 27.1505 84.7239C28.9671 84.7239 30.3994 85.3526 30.3994 86.086Z" fill="#F9CBC0"/>
<path d="M54.8884 84.7585C54.8884 85.492 53.4212 86.0858 51.6395 86.0858C49.8579 86.0858 48.3906 85.492 48.3906 84.7236C48.3906 83.9902 49.8579 83.3615 51.6395 83.3964C53.4212 83.3964 54.8884 83.9902 54.8884 84.7585Z" fill="#F9CBC0"/>
<path d="M28.8972 72.7786C29.3164 72.7786 29.7356 72.8135 30.1898 72.8135C30.609 70.3686 31.657 66.0727 34.2422 63.3833C31.168 65.1995 29.526 70.2988 28.8972 72.7786Z" fill="#CC6809"/>
<path d="M39.3078 72.8835C39.3777 70.7879 39.727 67.2603 41.2292 64.2566C38.8187 66.7015 38.0851 70.9974 37.8755 72.8835C38.3646 72.8835 38.8187 72.8835 39.3078 72.8835Z" fill="#CC6809"/>
<path d="M49.6482 72.3947C50.6264 72.3249 51.6395 72.2201 52.6176 72.1153C52.6526 70.4039 52.6176 67.7844 52.1285 65.3745C51.0805 62.5454 49.7879 60.7991 49.7879 60.7991C51.1154 64.8855 50.1722 70.1943 49.6482 72.3947Z" fill="#CC6809"/>
<path d="M25.9277 101.454V102.222H52.6526L52.4779 101.349C43.6395 101.314 34.7661 101.349 25.9277 101.454Z" fill="#D4D4D4"/>
<path d="M104.478 13.4783C104.508 17.4839 103.677 21.6082 101.659 25.1095C100.917 26.4447 100.056 28.2843 98.6616 29.0855C97.4151 29.7976 95.9906 29.7679 94.5957 29.7976C90.0846 29.8866 85.6032 29.4415 81.0922 29.1151C80.5283 30.4207 79.6379 31.5482 78.5102 32.7647C76.3733 35.0197 73.8804 36.8 71.0906 38.2243C70.5861 38.4616 70.1113 38.7287 69.6067 38.966C66.9654 40.0342 64.324 41.1321 61.6233 42.0222C59.8723 42.586 58.151 42.942 56.3406 43.2091C56.1922 43.2387 56.0735 43.2684 55.9251 43.2981C56.1032 43.2091 56.311 43.1201 56.489 43.0014C57.4981 42.5563 58.5665 42.0519 59.4865 41.4585C60.8517 40.8057 62.1872 40.0639 63.4634 39.2034C65.4518 37.8385 67.4699 36.1769 68.6274 34.0109C69.2506 32.8537 69.8442 31.5482 69.8738 30.1833C69.8738 29.8272 69.8442 29.5009 69.7551 29.1745C65.5112 31.1625 61.2672 33.0614 56.6671 34.1889C54.4116 34.7527 51.8889 34.6043 49.5147 34.0109C45.3301 32.9724 38.9196 18.3147 38.6525 15.8816C38.4151 13.6266 39.068 11.6386 41.0268 10.3628C43.2526 8.90885 45.7456 7.81101 48.1792 6.80218C56.6968 3.27127 65.8079 1.63934 74.9785 1.01624C83.4664 0.482155 92.6666 0.541497 100.413 4.54715C101.837 5.25926 103.469 6.11973 103.944 7.78134C104.478 9.5913 104.478 11.5793 104.478 13.4783ZM52.3935 31.6669C51.5328 31.4295 50.7612 31.2811 49.9895 30.7767C49.3366 30.3317 48.654 29.2041 48.2385 28.5514C47.1701 26.7711 46.1314 24.9611 45.152 23.0918C44.2913 21.4896 43.5494 19.828 42.7778 18.196C41.561 15.6146 40.6706 13.2409 42.7184 10.8078C42.7778 10.7188 42.6887 10.6001 42.5997 10.6891C41.2642 11.9353 40.6113 13.0925 40.73 14.9322C40.908 17.3059 42.4216 19.7983 43.401 21.8753C44.5881 24.3974 45.9533 26.8007 47.4372 29.1745C48.6243 31.1031 49.9895 31.9339 52.2154 32.1119C52.4528 32.1416 52.6309 31.7559 52.3935 31.6669ZM68.8351 26.9194C64.235 28.581 59.8427 30.48 55.0645 31.6965C55.9845 31.6372 56.8748 31.5779 57.7652 31.4295C61.653 30.5097 65.3331 28.9668 68.8351 26.9194ZM70.7345 27.0975C70.7048 27.0381 70.5861 27.0975 70.6158 27.1865C71.5061 29.9163 70.4377 32.8834 69.1616 35.3165C67.7073 38.0462 64.8286 39.6188 62.1575 40.865C62.0685 40.9244 62.0982 41.0727 62.2169 41.0431C67.4402 39.2628 73.821 33.1504 70.7345 27.0975Z" fill="#47AD5D"/>
<path d="M61.653 21.0161V16.8324L58.4478 10.8091H61.0891L62.1278 13.2718C62.4543 14.0136 62.662 14.5477 62.9291 15.2301H62.9588C63.1962 14.607 63.4337 14.0136 63.7305 13.2718L64.7692 10.8091H67.3512L63.9976 16.7434V20.9864H61.653V21.0161Z" fill="white"/>
<path d="M74.2366 16.7125H70.4972V19.1455H74.6818V21.0445H68.1526V10.8079H74.4443V12.7068H70.4675V14.8135H74.2069V16.7125H74.2366Z" fill="white"/>
<path d="M76.3138 18.6411C76.9371 18.9674 77.8868 19.2642 78.8661 19.2642C79.9345 19.2642 80.4984 18.8191 80.4984 18.1663C80.4984 17.5432 80.0236 17.1575 78.7771 16.7421C77.0855 16.1486 75.9874 15.1992 75.9874 13.7453C75.9874 11.9946 77.4416 10.6594 79.8455 10.6594C81.003 10.6594 81.8339 10.8968 82.4572 11.1638L81.9527 13.0331C81.5372 12.8254 80.8249 12.5584 79.8158 12.5584C78.8068 12.5584 78.3319 13.0035 78.3319 13.5376C78.3319 14.1903 78.8958 14.487 80.2313 14.9618C82.0417 15.6146 82.8727 16.564 82.8727 18.0179C82.8727 19.7389 81.5668 21.1928 78.7474 21.1928C77.59 21.1928 76.4325 20.8961 75.8687 20.5697L76.3138 18.6411Z" fill="white"/>
<path d="M84.0896 19.7983C84.0896 18.9972 84.6535 18.4334 85.4548 18.4334C86.2561 18.4334 86.7903 18.9972 86.7903 19.7983C86.7903 20.5994 86.2561 21.1632 85.4548 21.1632C84.6238 21.1929 84.0896 20.5994 84.0896 19.7983ZM84.5645 17.662L84.2083 10.8079H86.6122L86.2858 17.662H84.5645Z" fill="white"/>
</svg>
